<svg width="118" height="38" xmlns="http://www.w3.org/2000/svg">
    <g fill="none" fill-rule="evenodd">
        <path d="M84.846 32.187c-2.687 0-4.498-1.239-4.498-4.469V14.37h9.49v-3.93c0-1.29-.493-1.828-1.485-1.828h-8.005V1.615C80.348.54 79.635 0 78.208 0 76.29 0 74.593.214 73 .647V27.343C73 34.284 76.948 38 82.817 38 87.313 38 90 35.953 90 34.339c0-.967-.436-2.262-.987-2.905-1.093.483-2.74.753-4.167.753" fill="#00A3DA"/>
        <path d="M40.608 31.959c-2.345 0-3.264-2.043-3.608-4.102C37.668 35.197 40.657 38 40.657 38c3.798 0 6.612-1.066 8.343-3.188-1.821-2.138-2.594-5.215-2.594-8.812 0 2.94-2.339 5.959-5.798 5.959" fill="#3366A2"/>
        <path d="M37.255 27.264a36.108 36.108 0 0 1-.135-3.147v-7.213h.005v-7.23c0-1.117-.642-1.674-2.034-1.674-1.872 0-3.53.221-5.085.667v1.464c-.002.015-.006.025-.006.043v13.623C30 33.264 33.666 38 41 38c0 0-3.061-2.968-3.745-10.736" fill="#00A3DA"/>
        <path d="M65.977 8c-1.826 0-4.153 1.247-5.195 2.18.411 1.143 1.34 5.819 1.34 10.31 0 7.017-2.962 11.093-6.26 11.093-2.576 0-3.862-2.108-3.862-7.46C52 34.531 55.914 38 55.914 38c5.059 0 8.81-2.749 11.18-8.24C68.361 26.68 69 24.061 69 19.98c0-3.096-.273-6.69-1.074-10.22C67.64 8.51 67.22 8 65.977 8" fill="#3366A2"/>
        <path d="M52.094 24.122V10.07c-.07-1.379-.987-2.07-2.75-2.07H47.75C46 8 45.087 8.691 45 10.07v15.181c0 3.822.793 7.09 2.657 9.363C49.41 36.748 52.108 38 56 38c0 0-3.906-3.47-3.906-13.878M17.505 28.429c-1.107 2.58-3.638 3.981-6.063 3.981-2.48 0-4.43-1.237-4.43-3.764 0-2.526 2.004-4.032 5.537-4.032 1.531 0 3.85.215 4.956.644v3.17zm8.911 3.71c-1.212 0-1.898-.645-1.898-2.633V19.56C24.518 11.871 20.142 8 12.392 8 6.698 8 2.32 10.528 2.32 12.41c0 .913.315 2.096.843 2.85 2.268-1.13 4.798-1.666 7.277-1.666 4.905 0 7.066 1.987 7.066 5.428v1.775c-1.424-.753-4.06-1.291-6.325-1.291C4.43 19.506 0 23 0 28.86 0 34.182 3.9 38 9.65 38c3.637 0 6.643-1.722 8.383-4.517.896 2.957 3.165 4.247 5.377 4.247 2.796 0 4.59-1.72 4.59-3.172 0-.913-.16-1.664-.37-2.42h-1.214zM104.204 32.194c-3.883 0-7.258-3.388-7.258-9.515 0-6.077 3.057-8.875 6.844-8.875 3.89 0 7.209 3.388 7.209 9.518 0 6.076-3.008 8.872-6.795 8.872M103.998 8C96.532 8 90 13.375 90 23c0 9.626 6.532 15 13.998 15C111.466 38 118 32.626 118 23c0-9.625-6.534-15-14.002-15" fill="#00A3DA"/>
    </g>
</svg>
