<svg width="15" height="32" xmlns="http://www.w3.org/2000/svg">
    <g fill="#00A3DA" fill-rule="nonzero">
        <path d="M1.3 7.155v8.452a5.853 5.853 0 1 0 11.706 0l.001-8.452a5.853 5.853 0 1 0-11.706 0zm-1.3 0a7.154 7.154 0 1 1 14.308 0v8.452a7.154 7.154 0 1 1-14.308 0V7.155z"/>
        <path d="M6.504 5.206a.65.65 0 1 1 1.3 0v2.596a.65.65 0 1 1-1.3 0V5.206zM7.154 30.43l4.81-4.81a.65.65 0 1 1 .92.92l-5.27 5.27a.648.648 0 0 1-.92 0l-5.286-5.286a.65.65 0 1 1 .92-.92l4.826 4.826z"/>
    </g>
</svg>
