<svg width="204" height="176" xmlns="http://www.w3.org/2000/svg" xmlns:xlink="http://www.w3.org/1999/xlink">
    <defs>
        <linearGradient x1="50.007%" y1="106.745%" x2="50.007%" y2="-23.918%" id="b">
            <stop stop-color="#71C7DD" offset="0%"/>
            <stop stop-color="#484A9F" offset="100%"/>
        </linearGradient>
        <linearGradient x1="50.019%" y1="-17.808%" x2="50.019%" y2="68.758%" id="g">
            <stop stop-color="#1D85BA" offset="0%"/>
            <stop stop-color="#FFF" offset="100%"/>
        </linearGradient>
        <linearGradient x1="50.1%" y1="55.925%" x2="50.1%" y2="-83.98%" id="k">
            <stop stop-color="#D7E9ED" offset="0%"/>
            <stop stop-color="#2C87BC" offset="100%"/>
        </linearGradient>
        <linearGradient x1="50.015%" y1="45.733%" x2="50.015%" y2="-68.675%" id="l">
            <stop stop-color="#D7E9ED" offset="0%"/>
            <stop stop-color="#2C87BC" offset="100%"/>
        </linearGradient>
        <linearGradient x1="49.964%" y1="34.583%" x2="49.964%" y2="-51.931%" id="m">
            <stop stop-color="#D7E9ED" offset="0%"/>
            <stop stop-color="#2C87BC" offset="100%"/>
        </linearGradient>
        <linearGradient x1="50.032%" y1="85.475%" x2="50.032%" y2="-128.354%" id="n">
            <stop stop-color="#D7E9ED" offset="0%"/>
            <stop stop-color="#2C87BC" offset="100%"/>
        </linearGradient>
        <linearGradient x1="49.986%" y1="51.783%" x2="49.986%" y2="-77.759%" id="o">
            <stop stop-color="#D7E9ED" offset="0%"/>
            <stop stop-color="#2C87BC" offset="100%"/>
        </linearGradient>
        <linearGradient x1="50.05%" y1="91.041%" x2="50.05%" y2="-136.712%" id="p">
            <stop stop-color="#D7E9ED" offset="0%"/>
            <stop stop-color="#2C87BC" offset="100%"/>
        </linearGradient>
        <linearGradient x1="50.116%" y1="96.687%" x2="50.116%" y2="-162.386%" id="q">
            <stop stop-color="#D7E9ED" offset="0%"/>
            <stop stop-color="#2C87BC" offset="100%"/>
        </linearGradient>
        <linearGradient x1="48.955%" y1="93.209%" x2="48.955%" y2="-139.967%" id="r">
            <stop stop-color="#D7E9ED" offset="0%"/>
            <stop stop-color="#2C87BC" offset="100%"/>
        </linearGradient>
        <linearGradient x1="50.002%" y1="79.779%" x2="50.002%" y2="-31.316%" id="t">
            <stop stop-color="#7DCCBF" offset="0%"/>
            <stop stop-color="#6A81BB" offset="100%"/>
        </linearGradient>
        <linearGradient x1="48.14%" y1="40.191%" x2="53.913%" y2="71.732%" id="y">
            <stop stop-color="#B3C45A" offset="0%"/>
            <stop stop-color="#426926" offset="100%"/>
        </linearGradient>
        <linearGradient x1="49.993%" y1="109.279%" x2="49.993%" y2="21.434%" id="B">
            <stop stop-color="#B1D6E7" offset="0%"/>
            <stop stop-color="#FFF" offset="100%"/>
        </linearGradient>
        <linearGradient x1="49.224%" y1="166.69%" x2="49.224%" y2="-129.981%" id="F">
            <stop stop-color="#D7E9ED" offset="0%"/>
            <stop stop-color="#51A0CA" offset="100%"/>
        </linearGradient>
        <linearGradient x1="49.873%" y1="154.899%" x2="49.873%" y2="-88.277%" id="G">
            <stop stop-color="#D7E9ED" offset="0%"/>
            <stop stop-color="#51A0CA" offset="100%"/>
        </linearGradient>
        <linearGradient x1="49.824%" y1="141.417%" x2="49.824%" y2="-42.039%" id="H">
            <stop stop-color="#D7E9ED" offset="0%"/>
            <stop stop-color="#51A0CA" offset="100%"/>
        </linearGradient>
        <linearGradient x1="49.865%" y1="202.814%" x2="49.865%" y2="-252.605%" id="I">
            <stop stop-color="#D7E9ED" offset="0%"/>
            <stop stop-color="#51A0CA" offset="100%"/>
        </linearGradient>
        <linearGradient x1="49.054%" y1="162.015%" x2="49.054%" y2="-112.683%" id="J">
            <stop stop-color="#D7E9ED" offset="0%"/>
            <stop stop-color="#51A0CA" offset="100%"/>
        </linearGradient>
        <linearGradient x1="49.946%" y1="209.03%" x2="49.946%" y2="-273.92%" id="K">
            <stop stop-color="#D7E9ED" offset="0%"/>
            <stop stop-color="#51A0CA" offset="100%"/>
        </linearGradient>
        <linearGradient x1="49.611%" y1="230.383%" x2="49.611%" y2="-319.02%" id="L">
            <stop stop-color="#D7E9ED" offset="0%"/>
            <stop stop-color="#51A0CA" offset="100%"/>
        </linearGradient>
        <linearGradient x1="50.726%" y1="211.151%" x2="50.726%" y2="-283.307%" id="M">
            <stop stop-color="#D7E9ED" offset="0%"/>
            <stop stop-color="#51A0CA" offset="100%"/>
        </linearGradient>
        <linearGradient x1="50.019%" y1="109.279%" x2="50.019%" y2="21.434%" id="O">
            <stop stop-color="#B1D6E7" offset="0%"/>
            <stop stop-color="#FFF" offset="100%"/>
        </linearGradient>
        <linearGradient x1="50.1%" y1="166.69%" x2="50.1%" y2="-129.981%" id="S">
            <stop stop-color="#D7E9ED" offset="0%"/>
            <stop stop-color="#51A0CA" offset="100%"/>
        </linearGradient>
        <linearGradient x1="50.015%" y1="154.899%" x2="50.015%" y2="-88.277%" id="T">
            <stop stop-color="#D7E9ED" offset="0%"/>
            <stop stop-color="#51A0CA" offset="100%"/>
        </linearGradient>
        <linearGradient x1="49.964%" y1="141.417%" x2="49.964%" y2="-42.039%" id="U">
            <stop stop-color="#D7E9ED" offset="0%"/>
            <stop stop-color="#51A0CA" offset="100%"/>
        </linearGradient>
        <linearGradient x1="50.032%" y1="202.814%" x2="50.032%" y2="-252.605%" id="V">
            <stop stop-color="#D7E9ED" offset="0%"/>
            <stop stop-color="#51A0CA" offset="100%"/>
        </linearGradient>
        <linearGradient x1="49.986%" y1="162.015%" x2="49.986%" y2="-112.683%" id="W">
            <stop stop-color="#D7E9ED" offset="0%"/>
            <stop stop-color="#51A0CA" offset="100%"/>
        </linearGradient>
        <linearGradient x1="50.05%" y1="209.03%" x2="50.05%" y2="-273.92%" id="X">
            <stop stop-color="#D7E9ED" offset="0%"/>
            <stop stop-color="#51A0CA" offset="100%"/>
        </linearGradient>
        <linearGradient x1="50.116%" y1="230.383%" x2="50.116%" y2="-319.02%" id="Y">
            <stop stop-color="#D7E9ED" offset="0%"/>
            <stop stop-color="#51A0CA" offset="100%"/>
        </linearGradient>
        <linearGradient x1="48.955%" y1="211.151%" x2="48.955%" y2="-283.307%" id="Z">
            <stop stop-color="#D7E9ED" offset="0%"/>
            <stop stop-color="#51A0CA" offset="100%"/>
        </linearGradient>
        <linearGradient x1="-.043%" y1="49.99%" x2="99.96%" y2="49.99%" id="af">
            <stop stop-color="#F4DDAF" offset="0%"/>
            <stop stop-color="#F4BD5A" offset="100%"/>
        </linearGradient>
        <linearGradient x1=".003%" y1="49.995%" x2="99.993%" y2="49.995%" id="aA">
            <stop stop-color="#A5A6A5" offset="0%"/>
            <stop stop-color="#929592" offset="100%"/>
        </linearGradient>
        <linearGradient x1=".001%" y1="50%" x2="99.999%" y2="50%" id="aD">
            <stop stop-color="#A5A6A5" offset="0%"/>
            <stop stop-color="#929592" offset="100%"/>
        </linearGradient>
        <linearGradient x1="50.09%" y1="50.367%" x2="49.91%" y2="49.633%" id="aG">
            <stop stop-color="#A5A6A5" offset="0%"/>
            <stop stop-color="#E6E2D8" offset="100%"/>
        </linearGradient>
        <linearGradient x1="50.226%" y1="52.748%" x2="49.765%" y2="47.252%" id="aJ">
            <stop stop-color="#A5A6A5" offset="0%"/>
            <stop stop-color="#E6E2D8" offset="100%"/>
        </linearGradient>
        <linearGradient x1="118.449%" y1="64.107%" x2="17.429%" y2="43.753%" id="aM">
            <stop stop-color="#FCF9ED" offset="0%"/>
            <stop stop-color="#E6E2D8" offset="100%"/>
        </linearGradient>
        <linearGradient x1="49.996%" y1="-17.649%" x2="49.996%" y2="113.248%" id="aP">
            <stop stop-color="#FCF9ED" offset="0%"/>
            <stop stop-color="#ABACA9" offset="100%"/>
        </linearGradient>
        <linearGradient x1="50.001%" y1="-158.075%" x2="50.001%" y2="-25.298%" id="aS">
            <stop stop-color="#FCF9ED" offset="0%"/>
            <stop stop-color="#ABACA9" offset="100%"/>
        </linearGradient>
        <linearGradient x1="50.001%" y1="-203.706%" x2="50.001%" y2="39.217%" id="aV">
            <stop stop-color="#FCF9ED" offset="0%"/>
            <stop stop-color="#ABACA9" offset="100%"/>
        </linearGradient>
        <linearGradient x1="50.001%" y1="-203.706%" x2="50.001%" y2="39.217%" id="aY">
            <stop stop-color="#FCF9ED" offset="0%"/>
            <stop stop-color="#ABACA9" offset="100%"/>
        </linearGradient>
        <linearGradient x1="49.997%" y1="-38.41%" x2="49.997%" y2="102.607%" id="bb">
            <stop stop-color="#FCF9ED" offset="0%"/>
            <stop stop-color="#ABACA9" offset="100%"/>
        </linearGradient>
        <linearGradient x1="50%" y1="-157.926%" x2="50%" y2="-15.368%" id="be">
            <stop stop-color="#FCF9ED" offset="0%"/>
            <stop stop-color="#ABACA9" offset="100%"/>
        </linearGradient>
        <linearGradient x1="50.001%" y1="-157.927%" x2="50.001%" y2="-15.368%" id="bh">
            <stop stop-color="#FCF9ED" offset="0%"/>
            <stop stop-color="#ABACA9" offset="100%"/>
        </linearGradient>
        <linearGradient x1="49.999%" y1="-38.41%" x2="49.999%" y2="102.607%" id="bk">
            <stop stop-color="#FCF9ED" offset="0%"/>
            <stop stop-color="#ABACA9" offset="100%"/>
        </linearGradient>
        <linearGradient x1="50.006%" y1="-17.649%" x2="50.006%" y2="113.248%" id="bn">
            <stop stop-color="#FCF9ED" offset="0%"/>
            <stop stop-color="#ABACA9" offset="100%"/>
        </linearGradient>
        <linearGradient x1="50.001%" y1="-158.075%" x2="50.001%" y2="-25.298%" id="bq">
            <stop stop-color="#FCF9ED" offset="0%"/>
            <stop stop-color="#ABACA9" offset="100%"/>
        </linearGradient>
        <linearGradient x1="50.002%" y1="-203.706%" x2="50.002%" y2="39.217%" id="bt">
            <stop stop-color="#FCF9ED" offset="0%"/>
            <stop stop-color="#ABACA9" offset="100%"/>
        </linearGradient>
        <linearGradient x1="50.001%" y1="-203.706%" x2="50.001%" y2="39.217%" id="bw">
            <stop stop-color="#FCF9ED" offset="0%"/>
            <stop stop-color="#ABACA9" offset="100%"/>
        </linearGradient>
        <linearGradient x1="49.999%" y1="-38.41%" x2="49.999%" y2="102.607%" id="bz">
            <stop stop-color="#FCF9ED" offset="0%"/>
            <stop stop-color="#ABACA9" offset="100%"/>
        </linearGradient>
        <linearGradient x1="50.001%" y1="-157.926%" x2="50.001%" y2="-15.368%" id="bC">
            <stop stop-color="#FCF9ED" offset="0%"/>
            <stop stop-color="#ABACA9" offset="100%"/>
        </linearGradient>
        <linearGradient x1="50.001%" y1="-157.927%" x2="50.001%" y2="-15.368%" id="bF">
            <stop stop-color="#FCF9ED" offset="0%"/>
            <stop stop-color="#ABACA9" offset="100%"/>
        </linearGradient>
        <linearGradient x1="50%" y1="-38.41%" x2="50%" y2="102.607%" id="bI">
            <stop stop-color="#FCF9ED" offset="0%"/>
            <stop stop-color="#ABACA9" offset="100%"/>
        </linearGradient>
        <linearGradient x1="78.739%" y1="67.54%" x2="12.354%" y2="18.8%" id="bL">
            <stop stop-color="#A5A6A5" offset="0%"/>
            <stop stop-color="#E6E2D8" offset="100%"/>
        </linearGradient>
        <path d="M8.612 79.72C3.915 75.525-8.54 58.67 12.1 38.473c6.975-6.827 31.815-18.134 54.52-18.845 22.704-.711 53.451-29.655 85.266-15.005C183.63 19.343 195.73 53.55 180.57 79.72c-15.089 26.171-65.124 46.723-109.11 25.46C27.473 83.916 20.5 90.174 8.612 79.72z" id="a"/>
        <path d="M8.612 79.72C3.915 75.525-8.54 58.67 12.1 38.473c6.975-6.827 31.815-18.134 54.52-18.845 22.704-.711 53.451-29.655 85.266-15.005C183.63 19.343 195.73 53.55 180.57 79.72c-15.089 26.171-65.124 46.723-109.11 25.46C27.473 83.916 20.5 90.174 8.612 79.72z" id="d"/>
        <path d="M8.612 79.72C3.915 75.525-8.54 58.67 12.1 38.473c6.975-6.827 31.815-18.134 54.52-18.845 22.704-.711 53.451-29.655 85.266-15.005C183.63 19.343 195.73 53.55 180.57 79.72c-15.089 26.171-65.124 46.723-109.11 25.46C27.473 83.916 20.5 90.174 8.612 79.72z" id="f"/>
        <path d="M8.612 79.72C3.915 75.525-8.54 58.67 12.1 38.473c6.975-6.827 31.815-18.134 54.52-18.845 22.704-.711 53.451-29.655 85.266-15.005C183.63 19.343 195.73 53.55 180.57 79.72c-15.089 26.171-65.124 46.723-109.11 25.46C27.473 83.916 20.5 90.174 8.612 79.72z" id="i"/>
        <path d="M8.612 79.72C3.915 75.525-8.54 58.67 12.1 38.473c6.975-6.827 31.815-18.134 54.52-18.845 22.704-.711 53.451-29.655 85.266-15.005C183.63 19.343 195.73 53.55 180.57 79.72c-15.089 26.171-65.124 46.723-109.11 25.46C27.473 83.916 20.5 90.174 8.612 79.72z" id="s"/>
        <path d="M8.612 79.72C3.915 75.525-8.54 58.67 12.1 38.473c6.975-6.827 31.815-18.134 54.52-18.845 22.704-.711 53.451-29.655 85.266-15.005C183.63 19.343 195.73 53.55 180.57 79.72c-15.089 26.171-65.124 46.723-109.11 25.46C27.473 83.916 20.5 90.174 8.612 79.72z" id="v"/>
        <path d="M8.612 79.72C3.915 75.525-8.54 58.67 12.1 38.473c6.975-6.827 31.815-18.134 54.52-18.845 22.704-.711 53.451-29.655 85.266-15.005C183.63 19.343 195.73 53.55 180.57 79.72c-15.089 26.171-65.124 46.723-109.11 25.46C27.473 83.916 20.5 90.174 8.612 79.72z" id="x"/>
        <path d="M8.612 79.72C3.915 75.525-8.54 58.67 12.1 38.473c6.975-6.827 31.815-18.134 54.52-18.845 22.704-.711 53.451-29.655 85.266-15.005C183.63 19.343 195.73 53.55 180.57 79.72c-15.089 26.171-65.124 46.723-109.11 25.46C27.473 83.916 20.5 90.174 8.612 79.72z" id="A"/>
        <path d="M8.612 79.72C3.915 75.525-8.54 58.67 12.1 38.473c6.975-6.827 31.815-18.134 54.52-18.845 22.704-.711 53.451-29.655 85.266-15.005C183.63 19.343 195.73 53.55 180.57 79.72c-15.089 26.171-65.124 46.723-109.11 25.46C27.473 83.916 20.5 90.174 8.612 79.72z" id="D"/>
        <path d="M8.612 79.72C3.915 75.525-8.54 58.67 12.1 38.473c6.975-6.827 31.815-18.134 54.52-18.845 22.704-.711 53.451-29.655 85.266-15.005C183.63 19.343 195.73 53.55 180.57 79.72c-15.089 26.171-65.124 46.723-109.11 25.46C27.473 83.916 20.5 90.174 8.612 79.72z" id="N"/>
        <path d="M8.612 79.72C3.915 75.525-8.54 58.67 12.1 38.473c6.975-6.827 31.815-18.134 54.52-18.845 22.704-.711 53.451-29.655 85.266-15.005C183.63 19.343 195.73 53.55 180.57 79.72c-15.089 26.171-65.124 46.723-109.11 25.46C27.473 83.916 20.5 90.174 8.612 79.72z" id="Q"/>
        <path d="M8.612 79.72C3.915 75.525-8.54 58.67 12.1 38.473c6.975-6.827 31.815-18.134 54.52-18.845 22.704-.711 53.451-29.655 85.266-15.005C183.63 19.343 195.73 53.55 180.57 79.72c-15.089 26.171-65.124 46.723-109.11 25.46C27.473 83.916 20.5 90.174 8.612 79.72z" id="aa"/>
        <path d="M8.612 79.72C3.915 75.525-8.54 58.67 12.1 38.473c6.975-6.827 31.815-18.134 54.52-18.845 22.704-.711 53.451-29.655 85.266-15.005C183.63 19.343 195.73 53.55 180.57 79.72c-15.089 26.171-65.124 46.723-109.11 25.46C27.473 83.916 20.5 90.174 8.612 79.72z" id="ac"/>
        <path d="M8.612 79.72C3.915 75.525-8.54 58.67 12.1 38.473c6.975-6.827 31.815-18.134 54.52-18.845 22.704-.711 53.451-29.655 85.266-15.005C183.63 19.343 195.73 53.55 180.57 79.72c-15.089 26.171-65.124 46.723-109.11 25.46C27.473 83.916 20.5 90.174 8.612 79.72z" id="ae"/>
        <path d="M8.612 79.72C3.915 75.525-8.54 58.67 12.1 38.473c6.975-6.827 31.815-18.134 54.52-18.845 22.704-.711 53.451-29.655 85.266-15.005C183.63 19.343 195.73 53.55 180.57 79.72c-15.089 26.171-65.124 46.723-109.11 25.46C27.473 83.916 20.5 90.174 8.612 79.72z" id="ah"/>
        <path d="M8.612 79.72C3.915 75.525-8.54 58.67 12.1 38.473c6.975-6.827 31.815-18.134 54.52-18.845 22.704-.711 53.451-29.655 85.266-15.005C183.63 19.343 195.73 53.55 180.57 79.72c-15.089 26.171-65.124 46.723-109.11 25.46C27.473 83.916 20.5 90.174 8.612 79.72z" id="aj"/>
        <path d="M8.612 79.72C3.915 75.525-8.54 58.67 12.1 38.473c6.975-6.827 31.815-18.134 54.52-18.845 22.704-.711 53.451-29.655 85.266-15.005C183.63 19.343 195.73 53.55 180.57 79.72c-15.089 26.171-65.124 46.723-109.11 25.46C27.473 83.916 20.5 90.174 8.612 79.72z" id="al"/>
        <path d="M8.612 79.72C3.915 75.525-8.54 58.67 12.1 38.473c6.975-6.827 31.815-18.134 54.52-18.845 22.704-.711 53.451-29.655 85.266-15.005C183.63 19.343 195.73 53.55 180.57 79.72c-15.089 26.171-65.124 46.723-109.11 25.46C27.473 83.916 20.5 90.174 8.612 79.72z" id="an"/>
        <path d="M8.612 79.72C3.915 75.525-8.54 58.67 12.1 38.473c6.975-6.827 31.815-18.134 54.52-18.845 22.704-.711 53.451-29.655 85.266-15.005C183.63 19.343 195.73 53.55 180.57 79.72c-15.089 26.171-65.124 46.723-109.11 25.46C27.473 83.916 20.5 90.174 8.612 79.72z" id="ap"/>
        <path d="M8.612 79.72C3.915 75.525-8.54 58.67 12.1 38.473c6.975-6.827 31.815-18.134 54.52-18.845 22.704-.711 53.451-29.655 85.266-15.005C183.63 19.343 195.73 53.55 180.57 79.72c-15.089 26.171-65.124 46.723-109.11 25.46C27.473 83.916 20.5 90.174 8.612 79.72z" id="ar"/>
        <path d="M8.612 79.72C3.915 75.525-8.54 58.67 12.1 38.473c6.975-6.827 31.815-18.134 54.52-18.845 22.704-.711 53.451-29.655 85.266-15.005C183.63 19.343 195.73 53.55 180.57 79.72c-15.089 26.171-65.124 46.723-109.11 25.46C27.473 83.916 20.5 90.174 8.612 79.72z" id="at"/>
        <path id="av" d="M.58.696H16.24v24.976H.58z"/>
        <path d="M2.177 1.225C1.8 2.072.108 14.082.577 14.745c.471.664 2.498 0 2.498 0L5.655.475S5.55.472 5.378.472c-.769 0-2.895.063-3.201.753" id="ax"/>
        <path d="M1.524 1.69c.951.24 6.169.576 6.169.576s.723-.193 1.94-1.688L.431.228S.573 1.451 1.524 1.69" id="az"/>
        <path d="M1.577 1.786c.952.24 6.169.576 6.169.576s.722-.194 1.94-1.69L.483.324s.14 1.222 1.093 1.462" id="aC"/>
        <path d="M.166.327c1.46.005 146.4.663 188.076 14.164.006-.096.006-.192.006-.285-21.765-7.069-71.723-10.539-109.81-12.21C37.152.186.533.048.166.046v.281z" id="aF"/>
        <path d="M.38.457c.232.032 23.668 3.457 51.904 11.409a9.357 9.357 0 0 0-.231-.387C23.8 3.522.65.21.42.174L.38.457z" id="aI"/>
        <path d="M.507 5.715s3.37-3.72 6.72-4.323C11.064.705 66.54-1.61 79.7 5.715c13.16 7.323 2.256 6.01-.659 5.822" id="aL"/>
        <path d="M.197.51.195.51.189.517l2.05 10.078a.705.705 0 0 0 .825.552h.001a.692.692 0 0 1 .27 0h.002a.706.706 0 0 0 .826-.552L6.213.517S6.208.515 6.205.511A13.354 13.354 0 0 0 .196.51" id="aO"/>
        <path d="M3.337.723h-.001a.692.692 0 0 1-.27 0h-.002a.704.704 0 0 0-.826.552L.361 10.51a.707.707 0 0 0 .57.838 13.238 13.238 0 0 0 4.539 0 .707.707 0 0 0 .57-.838L4.164 1.275a.706.706 0 0 0-.69-.565.683.683 0 0 0-.136.013" id="aR"/>
        <path d="M10.362.588 1.026 2.485a.704.704 0 0 0-.553.823l.001.006a.693.693 0 0 1 0 .265v.005a.703.703 0 0 0 .552.823l9.31 1.89a.709.709 0 0 0 .836-.568 13.243 13.243 0 0 0 .028-4.567.71.71 0 0 0-.698-.588.675.675 0 0 0-.14.014" id="aU"/>
        <path d="M.896 1.162a13.093 13.093 0 0 0-.185 2.205c0 .807.072 1.596.211 2.362a.71.71 0 0 0 .838.568l9.307-1.889a.705.705 0 0 0 .552-.825V3.58a.75.75 0 0 1 0-.27.706.706 0 0 0-.552-.828L1.734.588a.708.708 0 0 0-.838.574" id="aX"/>
        <path d="M5.521.626.232 8.604a.706.706 0 0 0 .193.973l.006.005c.074.05.138.113.188.186l.003.006a.708.708 0 0 0 .974.191l7.968-5.274a.708.708 0 0 0 .19-.993A13.26 13.26 0 0 0 6.52.438a.707.707 0 0 0-.998.187" id="ba"/>
        <path d="m8.362.484-7.89 5.22a.706.706 0 0 0-.187.998 13.22 13.22 0 0 0 3.228 3.202c.325.226.775.14.994-.191l5.216-7.868A.703.703 0 0 0 9.53.87a.725.725 0 0 1-.192-.193.708.708 0 0 0-.976-.195" id="bd"/>
        <path d="M.622.675.621.68A.723.723 0 0 1 .43.87L.428.87a.704.704 0 0 0-.195.974L5.45 9.713a.71.71 0 0 0 .995.19 13.248 13.248 0 0 0 3.229-3.198.706.706 0 0 0-.187-.997L1.597.482a.709.709 0 0 0-.975.193" id="bg"/>
        <path d="M3.438.439A13.205 13.205 0 0 0 .204 3.698a.708.708 0 0 0 .192.993l7.967 5.274a.707.707 0 0 0 .974-.194h.001a.707.707 0 0 1 .19-.19l.004-.004a.705.705 0 0 0 .193-.973L4.437.626a.708.708 0 0 0-.591-.317.703.703 0 0 0-.408.13" id="bj"/>
        <path d="M.162.51.159.51.153.517l2.05 10.078a.707.707 0 0 0 .826.552.689.689 0 0 1 .27 0h.002c.38.074.75-.173.827-.552L6.176.517 6.17.511A13.348 13.348 0 0 0 .16.51" id="bm"/>
        <path d="M3.301.723a.692.692 0 0 1-.271 0 .706.706 0 0 0-.828.552L.325 10.51a.707.707 0 0 0 .57.838 13.26 13.26 0 0 0 4.54 0 .707.707 0 0 0 .57-.838L4.127 1.275A.707.707 0 0 0 3.437.71a.683.683 0 0 0-.136.013" id="bp"/>
        <path d="M10.326.588.989 2.485a.705.705 0 0 0-.552.823l.001.006a.693.693 0 0 1 0 .265l-.001.005a.704.704 0 0 0 .552.823l9.31 1.89a.71.71 0 0 0 .838-.568c.14-.766.212-1.555.212-2.362 0-.75-.064-1.489-.185-2.205a.708.708 0 0 0-.698-.588.675.675 0 0 0-.14.014" id="bs"/>
        <path d="M.86 1.162a13.167 13.167 0 0 0-.185 2.205c0 .807.072 1.596.212 2.362a.71.71 0 0 0 .837.568l9.307-1.889a.705.705 0 0 0 .552-.825V3.58a.719.719 0 0 1 0-.27.706.706 0 0 0-.552-.828L1.698.588a.709.709 0 0 0-.838.574" id="bv"/>
        <path d="M5.485.626.197 8.604a.705.705 0 0 0 .192.973l.006.005c.074.05.138.113.189.186l.002.006a.707.707 0 0 0 .973.191l7.97-5.274a.708.708 0 0 0 .19-.993A13.275 13.275 0 0 0 6.484.438a.708.708 0 0 0-.999.187" id="by"/>
        <path d="m8.326.484-7.89 5.22a.705.705 0 0 0-.186.998 13.204 13.204 0 0 0 3.228 3.202c.324.226.775.14.994-.191l5.216-7.868A.704.704 0 0 0 9.493.87a.728.728 0 0 1-.192-.193.704.704 0 0 0-.975-.195" id="bB"/>
        <path d="M.587.675.584.68a.705.705 0 0 1-.191.19V.87a.703.703 0 0 0-.194.974l5.215 7.868c.219.33.669.417.994.19a13.244 13.244 0 0 0 3.231-3.198.706.706 0 0 0-.188-.997L1.561.482a.706.706 0 0 0-.974.193" id="bE"/>
        <path d="M3.403.439A13.202 13.202 0 0 0 .169 3.698a.708.708 0 0 0 .191.993l7.967 5.274a.707.707 0 0 0 .975-.194.697.697 0 0 1 .19-.19l.004-.004a.704.704 0 0 0 .192-.973L4.401.626A.707.707 0 0 0 3.81.309a.703.703 0 0 0-.407.13" id="bH"/>
        <path d="M3.59 4.651c2.513-.285 3.052-.375 3.052-.375s.994-.794 1.158-1.71C7.964 1.65.227.694.227.694s.85 4.244 3.363 3.957" id="bK"/>
        <path id="bN" d="M0 .537h40.371v22.22H0z"/>
        <path d="M24.42 15.33c0 .012-.02.125-.067.331-.18.784-.439 1.549-.785 2.306-1.283 3.03-4.103 7.715-10.267 12.824a.269.269 0 0 1-.167.06.282.282 0 0 1-.166-.06c-6.165-5.116-8.991-9.8-10.281-12.85a11.44 11.44 0 0 1-.778-2.286c-.04-.173-.06-.28-.067-.313 0-.013-.006-.026-.006-.04-.206-1.082-.26-2.199-.153-3.302.552-5.708 5.293-10.166 11.039-10.365 6.524-.226 11.91 5.01 11.91 11.488 0 .731-.073 1.462-.212 2.206z" id="bQ"/>
        <filter x="-51.4%" y="-41.6%" width="202.8%" height="183.1%" filterUnits="objectBoundingBox" id="bP">
            <feOffset in="SourceAlpha" result="shadowOffsetOuter1"/>
            <feGaussianBlur stdDeviation="3.5" in="shadowOffsetOuter1" result="shadowBlurOuter1"/>
            <feColorMatrix values="0 0 0 0 0 0 0 0 0 0 0 0 0 0 0 0 0 0 0.15 0" in="shadowBlurOuter1" result="shadowMatrixOuter1"/>
            <feMerge>
                <feMergeNode in="shadowMatrixOuter1"/>
                <feMergeNode in="SourceGraphic"/>
            </feMerge>
        </filter>
    </defs>
    <g fill="none" fill-rule="evenodd">
        <g opacity=".7">
            <g transform="translate(12.676 2)">
                <mask id="c" fill="#fff">
                    <use xlink:href="#a"/>
                </mask>
                <path fill="url(#b)" fill-rule="nonzero" mask="url(#c)" d="M3.488 66.066h185.338v92.166H3.488z"/>
            </g>
            <g transform="translate(12.676 2)">
                <mask id="e" fill="#fff">
                    <use xlink:href="#d"/>
                </mask>
                <path fill="#65ADCE" fill-rule="nonzero" mask="url(#e)" d="m90.32 104.469 45.837 1.35H94.875l-8.612-1.35z"/>
            </g>
            <g transform="translate(12.676 2)">
                <mask id="h" fill="#fff">
                    <use xlink:href="#f"/>
                </mask>
                <path fill="url(#g)" fill-rule="nonzero" mask="url(#h)" d="M80.427 70.475V85.41h5.836v9.956h6.762v-8.32h5.196v11.876h-1.068v1.99h12.028v-2.061h-1.138V87.472h2.776V84.7h5.124v20.908l5.196 5.12 1.708-1.707h1.708V80.005h5.836v2.276l4.484 4.48h3.56v-6.756h3.7v17.423h5.908V84.841h4.84v-9.53h6.405v10.454h10.89v-15.29z"/>
            </g>
            <g transform="translate(12.676 2)">
                <mask id="j" fill="#fff">
                    <use xlink:href="#i"/>
                </mask>
                <g mask="url(#j)" fill-rule="nonzero">
                    <path fill="url(#k)" d="M7.117.071H9.75v24.89H7.117z" transform="translate(83.274 70.404)"/>
                    <path fill="url(#l)" d="M20.498 30.509V8.676h-5.694V3.485H9.751V.07h15.018v28.375h1.138v2.063z" transform="translate(83.274 70.404)"/>
                    <path fill="url(#m)" d="M37.865 40.323V5.973H32.81v8.321h-2.847V6.97H24.77V.071H41.28v38.545h-1.708z" transform="translate(83.274 70.404)"/>
                    <path fill="url(#n)" d="M51.601 16.357V7.183L48.4 3.91h-2.563V2.276h-4.555V.07h13.88v16.286z" transform="translate(83.274 70.404)"/>
                    <path fill="url(#o)" d="M62.278.071h2.491v26.882h-2.491z" transform="translate(83.274 70.404)"/>
                    <path fill="url(#p)" d="M86.904 15.361H82.42V3.982h-3.345V1.707H64.769V.07h22.135z" transform="translate(83.274 70.404)"/>
                    <path fill="url(#q)" d="M69.609 14.436h-1.922V3.626L65.053.997h4.556z" transform="translate(83.274 70.404)"/>
                    <path fill="url(#r)" d="M.285.071H2.99v14.934H.285z" transform="translate(83.274 70.404)"/>
                </g>
            </g>
            <g transform="translate(12.676 2)">
                <mask id="u" fill="#fff">
                    <use xlink:href="#s"/>
                </mask>
                <path fill="url(#t)" fill-rule="nonzero" mask="url(#u)" d="M-5.694-21.761h194.52v92.166H-5.694z"/>
            </g>
            <g transform="translate(12.676 2)">
                <mask id="w" fill="#fff">
                    <use xlink:href="#v"/>
                </mask>
                <path fill="#FFF" fill-rule="nonzero" mask="url(#w)" d="M206.477 28.02h-49.395l20.64 3.2H87.046l12.385 5.049H-5.694v30.508h198.22z"/>
            </g>
            <g transform="translate(12.676 2)">
                <mask id="z" fill="#fff">
                    <use xlink:href="#x"/>
                </mask>
                <path d="M-5.694 65.355h193.452s8.683 4.196-3.701 5.618c-12.384 1.423-214.164-1.422 4.769 87.259H-5.694V65.355z" fill="url(#y)" fill-rule="nonzero" mask="url(#z)"/>
            </g>
            <g transform="translate(12.676 2)">
                <mask id="C" fill="#fff">
                    <use xlink:href="#A"/>
                </mask>
                <path fill="url(#B)" fill-rule="nonzero" mask="url(#C)" d="M-5.836 69.195V54.332h5.765v-9.956h6.833v8.32h5.195V40.75H10.89v-1.92h12.028v2.062H21.78V52.27h2.776v2.702h5.125V34.064l5.124-5.12 1.78 1.778h1.708v29.015h5.836V57.39l4.413-4.409h3.63v6.756h3.7V42.314h5.908V54.9h4.84v9.459h6.335V53.906h10.96v15.29z"/>
            </g>
            <g transform="translate(12.676 2)">
                <mask id="E" fill="#fff">
                    <use xlink:href="#D"/>
                </mask>
                <g mask="url(#E)" fill-rule="nonzero">
                    <path fill="url(#F)" d="M6.975 15.93h2.633v24.89H6.975z" transform="translate(-2.847 28.446)"/>
                    <path fill="url(#G)" d="M20.356 10.383v21.832H14.59v5.192H9.609v3.342h15.017V12.445h1.14v-2.062z" transform="translate(-2.847 28.446)"/>
                    <path fill="url(#H)" d="M37.651.498v34.349h-5.053v-8.32h-2.776v7.395h-5.196v6.827H41.14V2.276H39.43z" transform="translate(-2.847 28.446)"/>
                    <path fill="url(#I)" d="M51.388 24.535v9.174l-3.203 3.2h-2.491v1.707h-4.555v2.133h13.879V24.535z" transform="translate(-2.847 28.446)"/>
                    <path fill="url(#J)" d="M62.135 13.868h2.491V40.75h-2.491z" transform="translate(-2.847 28.446)"/>
                    <path fill="url(#K)" d="M86.762 25.46h-6.05v11.449h-1.78v2.276H64.626v1.564h22.136z" transform="translate(-2.847 28.446)"/>
                    <path fill="url(#L)" d="M69.466 26.455h-1.922v10.81l-2.633 2.63h4.555z" transform="translate(-2.847 28.446)"/>
                    <path fill="url(#M)" d="M.071 25.886h2.705V40.82H.071z" transform="translate(-2.847 28.446)"/>
                </g>
            </g>
            <g transform="translate(12.676 2)">
                <mask id="P" fill="#fff">
                    <use xlink:href="#N"/>
                </mask>
                <path fill="url(#O)" fill-rule="nonzero" mask="url(#P)" d="M80.427 69.195V54.332h5.836v-9.956h6.762v8.32h5.196V40.75h-1.068v-1.92h12.028v2.062h-1.138V52.27h2.776v2.702h5.124V34.064l5.196-5.12 1.708 1.778h1.708v29.015h5.836V57.39l4.484-4.409h3.56v6.756h3.7V42.314h5.908V54.9h4.84v9.459h6.405V53.906h10.89v15.29z"/>
            </g>
            <g transform="translate(12.676 2)">
                <mask id="R" fill="#fff">
                    <use xlink:href="#Q"/>
                </mask>
                <g mask="url(#R)" fill-rule="nonzero">
                    <path fill="url(#S)" d="M7.117 15.93H9.75v24.89H7.117z" transform="translate(83.274 28.446)"/>
                    <path fill="url(#T)" d="M20.498 10.383v21.832h-5.694v5.192H9.751v3.342h15.018V12.445h1.138v-2.062z" transform="translate(83.274 28.446)"/>
                    <path fill="url(#U)" d="M37.865.498v34.349H32.81v-8.32h-2.847v7.395H24.77v6.827H41.28V2.276h-1.708z" transform="translate(83.274 28.446)"/>
                    <path fill="url(#V)" d="M51.601 24.535v9.174l-3.202 3.2h-2.563v1.707h-4.555v2.133h13.88V24.535z" transform="translate(83.274 28.446)"/>
                    <path fill="url(#W)" d="M62.278 13.868h2.491V40.75h-2.491z" transform="translate(83.274 28.446)"/>
                    <path fill="url(#X)" d="M86.904 25.46H82.42v11.449h-3.345v2.276H64.769v1.564h22.135z" transform="translate(83.274 28.446)"/>
                    <path fill="url(#Y)" d="M69.609 26.455h-1.922v10.81l-2.634 2.63h4.556z" transform="translate(83.274 28.446)"/>
                    <path fill="url(#Z)" d="M.285 25.886H2.99V40.82H.285z" transform="translate(83.274 28.446)"/>
                </g>
            </g>
            <g transform="translate(12.676 2)">
                <mask id="ab" fill="#fff">
                    <use xlink:href="#aa"/>
                </mask>
                <path d="M3.132 68.342s7.687-3.485 9.252-2.418c1.566 1.067 8.755-1.28 13.808-.213 5.054 1.066 8.043 3.556 12.954 1.209 4.91-2.347 10.676-1.494 11.53 0 .854 1.493 2.064.782 7.687 0 5.623-.783 5.267-.427 12.598 1.493 7.33 1.92 12.17 1.92 12.17 1.92h-80v-1.991z" fill="#5C8232" fill-rule="nonzero" mask="url(#ab)"/>
            </g>
            <g transform="translate(12.676 2)">
                <mask id="ad" fill="#fff">
                    <use xlink:href="#ac"/>
                </mask>
                <path d="M-7.473 72.467s1.779-6.4 10.818-3.272c9.11 3.13 11.032 6.97 24.2 6.543 13.167-.498 19.003 5.832 24.341 5.69 5.338-.143 5.623 2.417 5.623 2.417H-9.822l2.349-11.378z" fill="#5C8232" fill-rule="nonzero" mask="url(#ad)"/>
            </g>
            <g transform="translate(12.676 2)">
                <mask id="ag" fill="#fff">
                    <use xlink:href="#ae"/>
                </mask>
                <path d="M152.17 70.262s-77.58 2.205-72.384 25.033c5.908 26.028 78.506 57.888 103.915 69.124h-49.466s-56.726-31.362-65.979-61.23c-9.324-29.869 36.228-32.002 83.915-32.927z" fill="url(#af)" fill-rule="nonzero" mask="url(#ag)"/>
            </g>
            <g transform="translate(12.676 2)">
                <mask id="ai" fill="#fff">
                    <use xlink:href="#ah"/>
                </mask>
                <path d="M66.05 68.84s5.41 1.635 9.11-1.28c3.701-2.916 12.74-2.632 16.797 0 3.986 2.631 8.897 1.138 11.388-.214 2.42-1.35 7.189-.924 13.096.427 5.908 1.351 5.908-.569 11.886-.427 5.908.214 23.915 2.845 23.915 2.845H63.559l2.49-1.351z" fill="#5C8232" fill-rule="nonzero" mask="url(#ai)"/>
            </g>
            <g transform="translate(12.676 2)">
                <mask id="ak" fill="#fff">
                    <use xlink:href="#aj"/>
                </mask>
                <path d="M130.107 70.262s6.761-5.334 10.249-3.911c3.487 1.493 6.69 3.342 9.11 1.778 2.42-1.494 6.192-1.636 7.331-.285 1.139 1.351 5.125.57 7.189.285 5.623-.64 7.829 2.062 7.829 2.062h-41.708v.071z" fill="#5C8232" fill-rule="nonzero" mask="url(#ak)"/>
            </g>
            <g transform="translate(12.676 2)">
                <mask id="am" fill="#fff">
                    <use xlink:href="#al"/>
                </mask>
                <path fill="#63A6CC" fill-rule="nonzero" mask="url(#am)" d="M188.826 96.362h-62.919l56.726 1.066-34.306 1.494 40.499 1.209z"/>
            </g>
            <g transform="translate(12.676 2)">
                <mask id="ao" fill="#fff">
                    <use xlink:href="#an"/>
                </mask>
                <path fill="#65ACCE" fill-rule="nonzero" mask="url(#ao)" d="m132.527 116.63 18.078-1.138 30.605 1.137z"/>
            </g>
            <g transform="translate(12.676 2)">
                <mask id="aq" fill="#fff">
                    <use xlink:href="#ap"/>
                </mask>
                <path fill="#5471B3" fill-rule="nonzero" mask="url(#aq)" d="M167.117 128.506h21.709v1.066z"/>
            </g>
            <g transform="translate(12.676 2)">
                <mask id="as" fill="#fff">
                    <use xlink:href="#ar"/>
                </mask>
                <path fill="#526BB0" fill-rule="nonzero" mask="url(#as)" d="M124.698 77.8h23.345l-30.107.712z"/>
            </g>
            <g transform="translate(12.676 2)">
                <mask id="au" fill="#fff">
                    <use xlink:href="#at"/>
                </mask>
                <path d="M-5.694 117.696s6.406-11.592 15.943-6.045c9.609 5.618 17.794-1.28 24.27 6.899 6.477 8.178 13.31-2.56 24.84 4.053 11.53 6.685 6.05 13.37 14.306 14.579 8.257 1.209 12.171-6.187 20.783 0 8.612 6.187 17.438.284 25.125 6.187 9.608 7.396 9.608 18.063 9.608 18.063H-5.694v-43.736z" fill="#5C8232" fill-rule="nonzero" mask="url(#au)"/>
            </g>
        </g>
        <path fill="#808687" d="M175.515 170.266h16.923v-4.16h-16.923z"/>
        <path fill="#808687" d="M182.686 170.084h2.58V46.29h-2.58z"/>
        <path fill="#555D5B" d="M182.686 74.743h2.6v-8.497h-2.6z"/>
        <path d="M193.666 33.015h-19.379a2.422 2.422 0 0 0-2.423 2.42v30.982a2.421 2.421 0 0 0 2.423 2.42h19.38a2.421 2.421 0 0 0 2.421-2.42V35.436a2.422 2.422 0 0 0-2.422-2.421" fill="#254C8F"/>
        <path d="M193.666 33.5h-19.379c-1.07 0-1.938.867-1.938 1.936v30.981c0 1.07.868 1.937 1.938 1.937h19.38c1.07 0 1.937-.867 1.937-1.937v-30.98c0-1.07-.867-1.938-1.938-1.938" fill="#FFFFFE"/>
        <path d="M193.666 34.225h-19.379c-.669 0-1.211.542-1.211 1.211v30.981c0 .669.542 1.21 1.211 1.21h19.38a1.21 1.21 0 0 0 1.21-1.21v-30.98a1.21 1.21 0 0 0-1.21-1.212" fill="#254C8F"/>
        <path d="M191.358 43.067a7.421 7.421 0 0 0-7.424-7.418 7.421 7.421 0 0 0-7.425 7.418 7.42 7.42 0 0 0 7.425 7.418 7.42 7.42 0 0 0 7.424-7.418zm-.928 0a6.493 6.493 0 0 0-6.496-6.492 6.493 6.493 0 0 0-6.496 6.492 6.493 6.493 0 0 0 6.496 6.49 6.492 6.492 0 0 0 6.496-6.49zm-7.873.588h2.754v-1.467h-2.754V39.92h3.97V38.43h-5.416v9.273h5.646V46.29h-4.2v-2.635zM177.762 54.264c-.467 0-.648-.173-.648-.705v-1.403h1.27c.065 0 .098.038.098.117 0 .09-.012.201-.033.292h-.834v.445h.617c.058 0 .087.034.087.11v.297h-.704v.136c0 .228.06.304.202.304h.602c.058 0 .088.033.088.108v.299h-.745zM179.453 53.779c-.1.124-.193.295-.25.485h-.356c-.08 0-.124-.027-.124-.082 0-.015.007-.033.013-.054.087-.232.253-.47.476-.666l-.449-.593c.123-.165.232-.232.323-.232.05 0 .08.022.114.067l.328.436c.097-.114.181-.3.226-.484h.362c.082 0 .118.033.118.087a.182.182 0 0 1-.01.05c-.072.224-.25.474-.454.666l.256.343c.063.088.105.115.186.115h.055c.018.045.03.1.03.16 0 .096-.105.207-.283.207-.13 0-.233-.07-.347-.222l-.214-.283zM181.292 54.3a.855.855 0 0 1-.877-.885c0-.465.313-.796.802-.796.31 0 .542.136.644.313.024.04.03.07.03.103 0 .045-.03.087-.094.124a.82.82 0 0 1-.31.09c-.038-.172-.132-.257-.28-.257-.187 0-.314.152-.314.413 0 .325.217.52.519.52a.774.774 0 0 0 .371-.09.444.444 0 0 1 .066.2c0 .1-.217.265-.557.265M182.148 53.7v-1.614c.1-.027.208-.042.346-.042.087 0 .13.036.13.105v1.552c0 .15.06.21.166.21.06 0 .126-.012.174-.033.033.045.06.13.06.199 0 .09-.15.207-.386.207-.346 0-.49-.223-.49-.583M184.664 53.577c0 .448-.304.72-.75.72s-.748-.272-.748-.72v-.904c.096-.023.209-.039.344-.039.088 0 .132.036.132.106v.854c0 .2.106.317.272.317.163 0 .274-.117.274-.317v-.938h.368c.076 0 .108.03.108.086v.835zM186.22 52.975c0 .042-.021.075-.07.105a.615.615 0 0 1-.283.081c-.036-.117-.118-.19-.235-.19-.117 0-.175.06-.175.133 0 .099.072.154.25.199.368.093.528.246.528.506 0 .282-.22.49-.634.49-.314 0-.578-.144-.578-.265 0-.062.03-.144.066-.195.132.069.301.109.446.109.151 0 .223-.037.223-.118 0-.073-.04-.115-.193-.151-.38-.087-.584-.27-.584-.568 0-.29.24-.492.608-.492.271 0 .495.1.6.262.019.03.03.061.03.094M186.549 52.676c.135-.026.292-.042.487-.042.118 0 .182.036.182.106v1.048c0 .09.047.132.131.132h.115c.02.048.033.1.033.157 0 .1-.165.207-.42.207-.269 0-.528-.111-.528-.424v-1.184zm-.034-.44c0-.147.152-.231.36-.231.19 0 .368.09.368.241 0 .15-.148.232-.361.232-.19 0-.367-.088-.367-.241zM188.188 54.264h-.35l-.546-1.497a.71.71 0 0 1 .35-.135c.079 0 .112.02.136.09l.334 1.05c.133-.294.266-.762.32-1.116h.359c.09 0 .126.038.111.098a5.839 5.839 0 0 1-.524 1.416c-.036.07-.078.094-.19.094M190.262 53.474c0-.307-.157-.482-.365-.482-.196 0-.34.145-.34.452 0 .308.156.482.364.482.197 0 .34-.144.34-.452m.48-.014c0 .535-.392.84-.832.84-.44 0-.832-.305-.832-.84 0-.537.392-.841.832-.841.44 0 .832.304.832.84M177.633 56.371v.716a.522.522 0 0 0 .374.133c.329 0 .57-.286.57-.688 0-.355-.164-.567-.461-.567-.197 0-.385.128-.483.406zm-.487-.74c.106-.028.22-.043.348-.043.095 0 .139.037.139.11v.209a.71.71 0 0 1 .607-.337c.466 0 .828.362.828.947 0 .674-.454 1.094-.948 1.094a.696.696 0 0 1-.487-.18v.914h-.362c-.088 0-.125-.032-.125-.098v-2.615zM180.583 56.96v-.216a1.24 1.24 0 0 0-.344-.043c-.246 0-.384.101-.384.273 0 .172.136.257.307.257a.462.462 0 0 0 .421-.272m-.995-.896a.366.366 0 0 1-.06-.193c0-.128.305-.3.7-.3.538 0 .842.264.842.786v.677c0 .136.048.179.131.179h.085a.564.564 0 0 1 .026.164c0 .1-.125.216-.319.216a.383.383 0 0 1-.373-.288.674.674 0 0 1-.582.307c-.399 0-.67-.26-.67-.622 0-.399.307-.636.776-.636.158 0 .34.036.44.087v-.12c0-.235-.15-.37-.49-.37-.173 0-.349.037-.506.113M183.076 55.775c0 .099-.117.216-.227.282a.51.51 0 0 0-.304-.092c-.219 0-.37.14-.428.395v1.207h-.362c-.088 0-.124-.03-.124-.095v-1.84c.105-.029.219-.044.346-.044.096 0 .14.037.14.11v.194a.643.643 0 0 1 .556-.315c.191 0 .403.048.403.198M184.409 56.96v-.216a1.227 1.227 0 0 0-.344-.043c-.246 0-.385.101-.385.273 0 .172.136.257.307.257a.461.461 0 0 0 .422-.272m-.996-.896a.365.365 0 0 1-.059-.193c0-.128.304-.3.7-.3.537 0 .841.264.841.786v.677c0 .136.048.179.132.179h.085a.59.59 0 0 1 .025.164c0 .1-.124.216-.318.216a.383.383 0 0 1-.373-.288.672.672 0 0 1-.583.307c-.399 0-.67-.26-.67-.622 0-.399.308-.636.776-.636.158 0 .34.036.44.087v-.12c0-.235-.15-.37-.49-.37a1.16 1.16 0 0 0-.506.113M187.32 56.887v-.881h-.224c-.07 0-.106-.04-.106-.128 0-.089.01-.187.03-.265h.3v-.54c.105-.03.218-.045.346-.045.096 0 .143.037.143.11v.475h.535c.066 0 .098.037.098.125v.268h-.633v.906c0 .22.121.304.3.304a.74.74 0 0 0 .278-.052.354.354 0 0 1 .067.198c0 .11-.18.249-.48.249-.39 0-.655-.253-.655-.724M190.57 56.737c0 .544-.36.874-.886.874-.531 0-.89-.297-.89-.874v-1.105c.106-.029.22-.044.348-.044.095 0 .139.037.139.11v1.064c0 .278.169.447.403.447.23 0 .399-.169.399-.447v-1.148h.362c.088 0 .124.033.124.098v1.025zM186.894 62.139c-.302 0-.506-.142-.506-.513v-1.53h1.069v-.449c0-.149-.057-.21-.167-.21h-.902v-.802c0-.124-.08-.185-.24-.185-.217 0-.408.024-.587.073v3.061c0 .795.445 1.221 1.105 1.221.507 0 .809-.234.809-.42 0-.11-.05-.259-.111-.333a1.25 1.25 0 0 1-.47.087M185.16 59.62c-.033-.141-.082-.198-.228-.198-.213 0-.486.14-.607.245.047.128.156.652.156 1.157 0 .787-.346 1.244-.733 1.244-.3 0-.452-.237-.452-.837v-1.576c-.008-.155-.116-.232-.322-.232h-.188c-.205 0-.312.077-.321.232v1.702c0 .351-.281.71-.697.71-.281 0-.392-.243-.433-.489a3.64 3.64 0 0 1-.016-.353V59.598c0-.125-.074-.189-.238-.189-.22 0-.414.026-.596.076v.165l-.001.005v1.534c0 1.066.43 1.599 1.29 1.599.456 0 .795-.128 1.002-.38.205.24.522.38.978.38.592 0 1.031-.309 1.31-.925.147-.345.221-.639.221-1.097 0-.348-.03-.75-.125-1.147M179.114 61.707a.776.776 0 0 1-.71.456c-.29 0-.52-.141-.52-.43 0-.292.236-.464.65-.464.178 0 .45.024.58.074v.364zm1.042.426c-.141 0-.221-.074-.221-.303V60.69c0-.883-.513-1.327-1.42-1.327-.667 0-1.18.29-1.18.506 0 .106.038.24.1.327.265-.129.561-.19.852-.19.574 0 .827.227.827.622v.204c-.168-.087-.476-.148-.741-.148-.791 0-1.31.4-1.31 1.073 0 .611.458 1.049 1.13 1.049.427 0 .778-.197.983-.518.105.34.37.487.629.487.327 0 .538-.198.538-.364a.99.99 0 0 0-.044-.277h-.143zM189.164 62.139c-.462 0-.862-.388-.862-1.09 0-.696.363-1.016.813-1.016.462 0 .856.388.856 1.09 0 .696-.356 1.016-.807 1.016m-.024-2.771c-.888 0-1.664.615-1.664 1.718 0 1.102.776 1.717 1.664 1.717.887 0 1.663-.615 1.663-1.717 0-1.103-.776-1.718-1.663-1.718" fill="#FFFFFE"/>
        <g>
            <g transform="translate(54.669 53.815)">
                <mask id="aw" fill="#fff">
                    <use xlink:href="#av"/>
                </mask>
                <path d="M6.572.724S2.617.591 1.355 3.831c-1.262 3.239-.31 5.723.05 6.902.94 3.081 1.018 4.2.562 6.06-.402 1.648-.774 2.499-1.24 4.04-.465 1.54.312 1.37.38 1.483.067.112 15.134 3.356 15.134 3.356s-.479-3.854-1.476-5.373c-.731-1.114-1.828-1.492-1.002-4.795.826-3.303 1.35-4.836.888-7.232-.537-2.775-.875-4.509-3.486-6.329A7.02 7.02 0 0 0 6.572.724" fill="#474E4F" mask="url(#aw)"/>
            </g>
            <path d="M56.789 95.831a21.333 21.333 0 0 1-1.654 7.122s-3.232 1.335-4.793-.689c-.615-.796-1.15-3.475-1.378-6.892-.348-5.26 1.203-12.778 3.172-17.361 0 0 5.201 8.003 4.653 17.82" fill="#404E62"/>
            <path d="M56.789 95.831a21.333 21.333 0 0 1-1.654 7.122s-3.232 1.335-4.793-.689c-.615-.796-1.15-3.475-1.378-6.892l7.825.459z" fill="#F0E4C9"/>
            <path d="M84.879 74.462s.601-1.465.823-1.8c.222-.335-.47-1.06-.906-.189a96.809 96.809 0 0 0-.702 1.429l.785.56z" fill="#E2AE93"/>
            <path d="m84.272 75.841 2.038-6.314a.731.731 0 0 0-.554-.94l-3.068-.606a.731.731 0 0 0-.852.547l-1.55 6.483a.731.731 0 0 0 .588.89l2.58.436a.73.73 0 0 0 .818-.496" fill="#5A6261"/>
            <path d="M85.105 75.418s.258-.546-.639-1.462c-1.19-1.216-2.86-2.621-3.255-2.561-.568.087-.457.536.346 1.17.8.635 1.066.841 1.066.841s-1.721-.823-2.2-.756c-.478.066-.681.55-.419.738.264.189.935.49.935.49s-.767-.248-.954.027c-.139.205-.284.517.384.912 0 0-.685.36-.082.973.602.612.68.984.586 1.783-.093.798.414 2.056.414 2.056l2.324-.26s.427-2.083.73-2.57c.302-.486.764-1.381.764-1.381" fill="#E2AE93"/>
            <path d="M70.454 88.682c1.064 1.592 2.456 3.276 3.578 3.26.724-.01 9.835-11.725 9.832-12.313-.004-.664-3.353-1.58-3.353-1.58s-1.599 2.767-3.066 3.935c-1.468 1.167-3.257 3.659-3.625 3.916-.368.258-1.702-2.605-1.702-2.605-.44-1.38-.983-3.82-2.267-6.08-1.283-2.262-4.162-3.244-4.162-3.244-5.61 2.517 3.127 11.941 3.127 11.941s1.13 2.041 1.638 2.77" fill="#0070A2"/>
            <path d="M64.37 71.701s4.409 3.175 5.878 10.747c0 0-4.138-8.097-5.487-9.54 0 0-.57-.543-.39-1.207M71.235 84.386s-.058 17.568 0 21.62-5.139-9.735-5.139-9.735 2.772-8.596 5.139-11.885M48.125 126.592s12.585-1.373 20.278 3.04c7.694 4.413-7.192-13.065-7.192-13.065s-12.913 5.08-13.086 10.025" fill="#0070A2"/>
            <path d="M75.172 164.881s.666 1.771 1.592 2.191c.926.421 3.023 2.366 3.865 2.506.84.14 2.862.298 2.973 1.363.113 1.066-.105 2.033-4.173 1.472-4.068-.56-7.912-2.44-7.912-2.44s-.82-4.117.502-6.151c1.322-2.033 3.153 1.06 3.153 1.06" fill="#E5D7CF"/>
            <path d="m75.172 164.881-.76-2.54h-2.907v2.708s4.398 1.65 3.667-.168" fill="#E2AE93"/>
            <path d="M49.669 160.096s.287 1.836.737 2.393c.452.555 1.104 3.198 2.025 4.042.92.844 3.178 2.745 2.486 3.695-.69.95-5.52-.27-7.246-3.209-1.726-2.939-2.316-3.272-2.097-4.07.22-.798 1.857-3.87 1.818-4.242-.038-.373 2.277 1.391 2.277 1.391" fill="#E5D7CF"/>
            <path d="M50.374 158.776c-.028 0-.583.833-.705 1.32-.122.487-1.19.68-2.047-.377 0 0-.267-.382-.23-1.014.038-.63.76-2.121.76-2.121l2.222 2.192z" fill="#E2AE93"/>
            <path d="M62.402 117.028c.152.732 1.124 3.797 2.21 7.204l.948 2.965c.686 2.15 1.338 4.207 1.785 5.689.244.806.427 1.442.521 1.83.627 2.558-.077 6.574-.305 9.929-.228 3.355 3.392 19.863 3.392 19.863.854.398 4.643-.655 4.643-.655-.627-1.195-1.468-21.744-1.127-23.052.341-1.308.569-4.948.227-6.37-.07-.292-.104-.677-.111-1.141-.03-1.795.341-4.761.567-8.016.285-4.094-1.309-14.275-1.537-15.184a9.58 9.58 0 0 0-.096-.347c-.42-1.427-1.77-5.48-1.77-5.48-2.737-.815-4.8-.961-6.338-.648-2.037.414-3.158 1.636-3.718 3.187-1.339 3.701.512 9.276.71 10.226" fill="#354353"/>
            <path d="m46.843 158.257 3.738 1.587c.47-2.275 10.91-18.077 11.597-19.84.687-1.762 1.419-5.175 1.419-6.426 0-.224.016-.6.048-1.09.122-1.896.47-5.473.968-8.256.092-.52.19-1.011.294-1.46.55-2.4.647-10.604.653-15.428.003-2.146-.012-3.624-.012-3.624l-.137-.105c-1.038-.785-7.696-5.57-10.017-1.097-.613 1.182-1.013 2.45-1.257 3.773-.744 4.053-1.298 9.242-.697 13.4.514 3.56 1.628 7.585 2.386 11.25.414 2 .78 4.16.315 4.969-1.31 2.274-2.59 4.2-5.237 12.227-.86 2.61-4.061 10.12-4.061 10.12" fill="#354353"/>
            <path d="M56.457 95.504c-.608 2.426-3.697 14.545-3.621 15.265.028.271 3.418.838 6.532 1.385 5.18.91 11.867-1.03 14.15-2.41v-.003c-.048-.178-3.109-11.596-3.335-12.912-.227-1.328.277-6.303.391-7.705.043-.522.265-1.265.525-2.065v-.001c.442-1.357.992-2.879.962-3.763-.022-.672-.19-1.3-.461-1.935l-.001-.001c-.309-.72-.753-1.45-1.276-2.263a60.348 60.348 0 0 0-.946-1.428c-1.044-1.53-2.087-2.92-2.598-3.398a8.418 8.418 0 0 0-1.046-.834l-.003-.001a5.519 5.519 0 0 0-.968-.528h-.001c-.07-.028-.107-.04-.107-.04l-4.516-.72s-.483.174-1.162.405c-.834.284-1.966.653-2.87.89h-.002a12.1 12.1 0 0 1-.4.1s-.772.288-1.586 1.205c-.777.875-1.597 2.31-1.62 5.223-.02 2.568 2.934 8.709 3.39 10.604.455 1.896 1.176 2.503.569 4.93" fill="#F0E4C9"/>
            <path d="m65.73 73.434 2.617 4.122 2.416 3.804c-.006-.02-.167-.596-.44-2.265a78.18 78.18 0 0 1-.167-1.07 2.863 2.863 0 0 0-.076-.352c-1.034-2.382-4.23-4.177-4.348-4.237-.002 0-.002-.002-.002-.002" fill="#E5D7CF"/>
            <path d="M59.151 72.64s.129-5.344-.327-6.204c-.455-.858 5.515 3.577 5.515 3.577s-.02.21-.03.36a5.738 5.738 0 0 0 .035 1.08l.018.174c.072.693.259 1.444.558 2.067.657 1.373-5.769-1.055-5.769-1.055" fill="#E2AE93"/>
            <path d="M70.069 77.645s.14.289.254 1.45l-.946-1.427s-1.69-2.422-2.27-3.051c-.579-.63-1.375-1.18-1.375-1.18s3.326 1.595 4.337 4.208" fill="#0070A2"/>
            <path d="M64.653 72.867s3.028 4.652 2.003 5.059c-1.025.406-6.573-.543-8.931-4.961 0 0 3.526-1.807 6.928-.098" fill="#E2AE93"/>
            <path d="M70.568 89.2c.007-.063.01-.1.01-.106l-.004.03a.976.976 0 0 0-.006.076" fill="#3B5B6F"/>
            <path d="M57.49 80.999s-3.858-1.371-5.058-1.464c0 0 .899-6.863 4.883-6.173 3.982.69.175 7.637.175 7.637" fill="#E5D7CF"/>
            <path d="M64.416 72.028s-.234.883-5.249-.656l-.236 1.137s-.663.1-2.473.838c0 0 9.044 8.516 10.41 5.04 1.366-3.476-2.107-5.48-2.107-5.48l-.345-.879z" fill="#F0E4C9"/>
            <path d="m64.76 72.907 6.84 8.452c-.31-.72-.754-1.45-1.277-2.263a60.348 60.348 0 0 0-.946-1.428c-1.044-1.53-2.087-2.92-2.598-3.398a8.238 8.238 0 0 0-1.047-.834l-.003-.001c-.452-.302-.8-.46-.967-.528h-.001z" fill="#0070A2"/>
            <path d="M70.579 89.094c.442-1.357 1.626-4.476 1.539-5.799-.044-.67-.246-1.3-.518-1.935v-.001c-.31-.72-.753-1.526-1.277-2.339-.305-.475-.855-1.276-1.175-1.746-1.045-1.53-1.858-2.54-2.37-3.02a8.75 8.75 0 0 0-1.048-.858c-.002-.001 0 0 0 0-.453-.301-.8-.421-.968-.489h-.002s7.206 6.499 5.819 16.187" fill="#0070A2"/>
            <path d="M55.069 101.78s.493.762.798.913c.306.15.655.865.655.865l-1.954 1.433s-.714-1.687-1.608-2.216c-.896-.529 2.109-.995 2.109-.995" fill="#E2AE93"/>
            <path d="M52.11 77.42s1.6-4.59 4.914-3.154c3.186 1.38-1.11 6.98-1.493 7.666-.383.687-3.986 6.207-4.35 6.951-1.147 2.354-.762 3.52-.372 4.648 1.309 3.785 3.865 7.324 4.487 7.934.622.61-1.92 2.803-2.924 2.115-1.338-.917-3.734-5.684-4.392-6.769-.806-1.327-2.839-3.717-1.398-7.869.97-2.796 5.529-11.522 5.529-11.522" fill="#0070A2"/>
            <path d="m57.032 102.154-4.196 3.366s3.291 4.941 4.869 2.865c1.579-2.077-.673-6.23-.673-6.23" fill="#D4C8C2"/>
            <path d="M65.769 83.152c-.692-7.386-6.601-11.85-6.601-11.85l-.23 1.097c-6.08 1.716-6.224 3.066-6.506 7.136-.109 1.563.329 3.646.893 5.889.23.91.48 1.846.723 2.784.718 2.774 1.373 5.565 1.245 7.75-.28 4.747-12.97 25.628-12.97 25.628 0 4.412 10.997 10.729 10.997 10.729-.514-5.818 13.437-43.303 12.449-49.163" fill="#0070A2"/>
            <path d="M54.047 88.208v-.001c1.895-2.222 3.01-8.72 3.01-8.72-1.128 3.172-3.732 5.936-3.732 5.936.229.91.48 1.847.722 2.785" fill="#185C7D"/>
            <path d="m64.613 124.232.948 2.966c1.523-5.878 1.786-12.428 1.786-12.428-.461 3.653-2.734 9.462-2.734 9.462" fill="#1E2730"/>
            <path d="m53.325 93.214-.197-.321.197.32zm.197.321-.394-.642c.057-.036 4.245-2.67 5.039-7.409.577-3.44-.822-7.2-3.99-11.063l.672-.46c3.316 4.042 4.678 7.99 4.06 11.657-.857 5.087-5.202 7.803-5.387 7.917z" fill="#404E62"/>
            <path d="M54.176 74.42s.203-.293.673-.459c0 0-.087.444-.673.46" fill="#404E62"/>
            <path d="M64.325 56.612s4.363 2.846 2.945 9.725c-1.418 6.88-6.57 3.097-7.129 2.708-.56-.39-2.289-4.696-2.356-6.574-.064-1.769-.987-8.86 6.54-5.859" fill="#E3AF93"/>
            <path d="M64.025 57.993c-.455-.135-1.99 2.831-2.817 3.563-.827.732-2.347 2.568-2.496 4.582-.149 2.012-1.848-4.399-1.26-6.778.588-2.38 1.373-5.867 6.69-3.1 5.317 2.766 3.942 7.713 3.942 7.713s-1.76-5.302-4.059-5.98" fill="#474E4F"/>
            <path d="M60.341 62.741c-.14-.813-1.939-1.502-1.912-.279.026 1.223 1.019 2.635 1.58 2.546.561-.09.462-1.515.332-2.267" fill="#E3AF93"/>
            <path d="M64.344 71.453h-.009c-3.158-.038-4.194-2.41-4.194-2.41 2.188 1.65 3.94 1.372 4.17 1.325-.003.029-.004.06-.005.083-.012.5-.007.575.038 1.002" fill="#A48571"/>
        </g>
        <path fill="#BDBDBD" d="M2 170.444h199.288V174H2z"/>
        <g>
            <path d="M6.604 120.521s-4.389 2.484-4.247 3.54c.14 1.059.92 4.214 1.447 4.854.526.642 6.518-.908 7.646-2.739 1.128-1.832 4.865-7.75.635-7.115-4.23.634-5.481 1.46-5.481 1.46" fill="#BD505B"/>
            <path d="M199.503 149.176c-.187.432-.254.727-.248.94.012.522.437.581.637 1.03.283.633-1.316 4.545-1.785 4.825-.4.24-7.024.818-9.02.987l-.568.048s-1.553.02-4.356.053c-5.781.067-16.88.196-30.66.354-1.547.018-3.129.037-4.74.054a67080.224 67080.224 0 0 1-93.476 1.015c-17.919.172-30.647.27-31.83.214-.316-.014-.66-.033-1.023-.058-4.647-.307-12.84-1.27-14.015-1.729-1.27-.491-3.314-5.868-3.172-6.573.14-.704.492-.986.492-.986-3.1-9.58-3.383-18.948-3.383-18.948.212-1.69 5.852-3.17 7.191-4.086 1.339-.916 2.397-5.564 2.327-5.846-.07-.282-4.16.352-4.724.352-.564 0-1.27-1.197-1.34-1.972-.07-.776 23.76-23.832 24.605-24.49.845-.658 17.201-4.32 35.624-5.636 18.425-1.314 46.537 2.868 53.015 5.353 11.75 4.508 28.48 18.033 28.48 18.033 30.27 6.762 47.706 11.6 48.693 12.445.578.493 1.17 1.229 1.598 1.914.084.131.161.262.23.385.187.342.323.651.38.894.188.8-15.696-3.193-16.825-3.193-1.127 0 .657 2.584 1.41 3.473.751.894 17.247 4.323 18.33 6.29.203.371.288 1.077.285 1.989 0 .093 0 .19-.005.284-.08 4.008-1.622 11.41-2.127 12.585" fill="#FFFFFE"/>
            <path d="M199.503 149.176c-.187.432-.254.727-.248.94.012.522.437.581.637 1.03.283.633-1.316 4.545-1.785 4.825-.4.24-7.024.818-9.02.987l-.568.048s-1.553.02-4.356.053c-5.781.067-16.88.196-30.66.354-1.547.018-3.129.037-4.74.054a67080.224 67080.224 0 0 1-93.476 1.015c-17.919.172-30.647.27-31.83.214-.316-.014-.66-.033-1.023-.058-4.647-.307-12.84-1.27-14.015-1.729-1.27-.491-3.314-5.868-3.172-6.573.14-.704.492-.986.492-.986-3.1-9.58-3.383-18.948-3.383-18.948.212-1.69 5.852-3.17 7.191-4.086 1.339-.916 2.397-5.564 2.327-5.846-.07-.282-4.16.352-4.724.352-.564 0-1.27-1.197-1.34-1.972-.07-.776 23.76-23.832 24.605-24.49.845-.658 17.201-4.32 35.624-5.636 18.425-1.314 46.537 2.868 53.015 5.353 11.75 4.508 28.48 18.033 28.48 18.033 30.27 6.762 47.706 11.6 48.693 12.445.578.493 1.17 1.229 1.598 1.914.084.131.161.262.23.385.187.342.323.651.38.894.188.8-15.696-3.193-16.825-3.193-1.127 0 .657 2.584 1.41 3.473.751.894 17.247 4.323 18.33 6.29.203.371.288 1.077.285 1.989 0 .093 0 .19-.005.284-.08 4.008-1.622 11.41-2.127 12.585z" stroke="#CDD0D0"/>
            <path d="M197.735 127.833s2.047 2.258 2.314 5.57c0 0-16.795-3.635-17.97-5.28-1.174-1.642-3.242-4.291-.798-4.54 2.444-.25 16.454 4.25 16.454 4.25" fill="#EAEBEA"/>
            <path d="M30.838 94.36s-15.187 1.173-16.27 2.23c-1.086 1.058-.362 1.691 0 1.902.36.212 8.525 3.093 8.525 3.093l7.745-7.226z" fill="#00A3DA"/>
            <g transform="translate(191.324 137.746)">
                <mask id="ay" fill="#fff">
                    <use xlink:href="#ax"/>
                </mask>
                <path d="M2.177 1.225C1.8 2.072.108 14.082.577 14.745c.471.664 2.498 0 2.498 0L5.655.475S5.55.472 5.378.472c-.769 0-2.895.063-3.201.753" mask="url(#ay)"/>
            </g>
            <g transform="translate(83.139 118.545)">
                <mask id="aB" fill="#fff">
                    <use xlink:href="#az"/>
                </mask>
                <path d="M1.524 1.69c.951.24 6.169.576 6.169.576s.723-.193 1.94-1.688L.431.228S.573 1.451 1.524 1.69" fill="url(#aA)" mask="url(#aB)"/>
            </g>
            <g transform="translate(33.317 116.411)">
                <mask id="aE" fill="#fff">
                    <use xlink:href="#aC"/>
                </mask>
                <path d="M1.577 1.786c.952.24 6.169.576 6.169.576s.722-.194 1.94-1.69L.483.324s.14 1.222 1.093 1.462" fill="url(#aD)" mask="url(#aE)"/>
            </g>
            <path d="M146.172 115.304s3.15 2.397 2.867 3.49c-.281 1.092-.47 1.432-.47 1.432s-.187.585-6.11.585c-5.921 0-114.3-3.951-116.134-4.666-1.832-.713-2.302-4.118-2.302-4.118l122.15 3.277z" fill="#F7F7F7"/>
            <path d="M198.107 155.97c-.471.283-9.587 1.036-9.587 1.036s-1.555.02-4.358.053l.737-2.871s5.922.515 8.507.233c2.586-.281 2.773-2.206 3.243-3.192.471-.986 2.606-1.112 2.606-1.112.011.522.437.58.638 1.03.282.632-1.318 4.544-1.786 4.824M62.918 152.492c0 2.057-.303 4.045-.864 5.922l-6.768.068c-17.917.172-30.646.27-31.828.214-.316-.014-.66-.033-1.024-.058a20.666 20.666 0 0 1-.928-6.146c0-11.429 9.27-20.69 20.704-20.69 11.438 0 20.708 9.261 20.708 20.69" fill="#67727C"/>
            <path d="M189.571 152.492c0 1.532-.166 3.029-.485 4.466l-.566.048s-1.555.02-4.357.053c-5.781.067-16.88.196-30.66.354-1.547.018-3.129.037-4.74.054a20.725 20.725 0 0 1-.603-4.975c0-11.429 9.27-20.69 20.707-20.69 11.435 0 20.704 9.261 20.704 20.69M25.322 159.247s-17.842-1.115-18.407-1.96c-.564-.847-3.894-6.469-1.336-8.447 2.558-1.98 12.227-2.14 19.472-7.929l.271 18.336z" fill="#67727C"/>
            <path d="M148.16 152.492s.128 2.612-2.974 2.2c-3.102-.412-83.752-1.906-83.752-1.906L60.4 158.43l91.014-.806-3.253-5.133zM146.172 115.304c.295 2.637-6.563 1.927-8.515 1.844-8.428-.358-27.675-1.216-47.627-2.1l-.022-.002c-.023-.001-40.473-1.797-49.98-2.21-.235-.01-15.962-.58-16.007-.81-.1-.527 9.59-8.95 9.997-9.3a147.644 147.644 0 0 1 5-4.095c3.31-2.594 6.275-4.6 7.752-4.89 2.487-.487 13.136-1.915 27.726-2.053 1.274-.014 2.58-.017 3.913-.003 11.086.074 24.066.935 37.309 3.443 8.928 1.693 30.223 18.131 30.454 20.176" fill="#67727C"/>
            <g transform="translate(13.388 122.1)">
                <mask id="aH" fill="#fff">
                    <use xlink:href="#aF"/>
                </mask>
                <path d="M.166.327c1.46.005 146.4.663 188.076 14.164.006-.096.006-.192.006-.285-21.765-7.069-71.723-10.539-109.81-12.21C37.152.186.533.048.166.046v.281z" fill="url(#aG)" mask="url(#aH)"/>
            </g>
            <g transform="translate(145.772 114.99)">
                <mask id="aK" fill="#fff">
                    <use xlink:href="#aI"/>
                </mask>
                <path d="M.38.457c.232.032 23.668 3.457 51.904 11.409a9.357 9.357 0 0 0-.231-.387C23.8 3.522.65.21.42.174L.38.457z" fill="url(#aJ)" mask="url(#aK)"/>
            </g>
            <path d="m34.479 133.292-.26.108c-4.577-10.065-6.007-16.964-6.399-20.983-.225-2.318-.107-3.682-.05-4.145l.324-.298c-.051.338-.217 1.8.044 4.44.404 4.08 1.84 10.974 6.34 20.878" fill="#A6A8A4"/>
            <path d="M141.968 117.319c-1.602-.041-16.92-.718-35.763-1.552l-10.571-.47c-1.855-.081-3.726-.164-5.604-.25l-.022-.001s-5.169-15.333-3.006-17.117c2.16-1.784 30.046 1.206 30.046 1.206 6.001 1.26 21.136 13.462 24.92 18.184M79.247 114.57l-3.339-.15c-17.413-.775-33.515-1.484-41.362-1.82-.691-.028-1.317-.054-1.873-.075v-.003c-.561-1.466 11.207-12.278 14.45-13.924 3.243-1.648 27.19-1.235 27.19-1.235s6.553 15.296 4.934 17.207" fill="#B3B8B9"/>
            <path d="M82.507 114.714v.002l-1.805-.081-2.907-.13-.313-.014-1.574-.07c-2.349-12.697-1.413-22.734-1.413-22.734.257-.002.517-.005.779-.005.093-.002.188-.002.281-.002a159.56 159.56 0 0 1 2.854.005c.619 8.625 4.045 22.806 4.098 23.029" fill="#505D62"/>
            <path d="m91.607 158.154-.316.005c-7.741-14.797-11.739-30.97-13.81-43.668-2.046-12.59-2.196-21.766-2.207-22.81l.282-.001c.011 1.028.178 10.222 2.239 22.825 2.078 12.707 6.088 28.883 13.812 43.65M134.98 157.768l-.319.004c4.329-15.722 4.388-31.04 3.776-40.59-.332-5.196-.862-8.687-1.011-9.603.081.06.163.128.245.19.13.754.685 4.191 1.04 9.42.643 9.445.634 24.731-3.73 40.58" fill="#A6A8A4"/>
            <path d="M86.54 114.893s-3.674-11.717-2.97-13.309c.705-1.589 5.97-1.308 7.85 2.45 1.878 3.757 5.836 11.336 5.836 11.336l-10.716-.477zM40.028 112.836c-2.106-.092-3.95-.172-5.482-.236-.691-.028-1.317-.054-1.873-.075-1.188-.048-2.061-.085-2.58-.105a116.614 116.614 0 0 1-1.34-5.052 219.09 219.09 0 0 1 5.265-4.64 5.803 5.803 0 0 1 1.965 2.22 722.17 722.17 0 0 0 4.045 7.888" fill="#5B676E"/>
            <g transform="translate(42.57 93.654)">
                <mask id="aN" fill="#fff">
                    <use xlink:href="#aL"/>
                </mask>
                <path d="M.507 5.715s3.37-3.72 6.72-4.323C11.064.705 66.54-1.61 79.7 5.715c13.16 7.323 2.256 6.01-.659 5.822C76.128 11.35-2.31 8.618.507 5.715" fill-opacity=".3" fill="url(#aM)" mask="url(#aN)"/>
            </g>
            <path d="M60.4 152.491c0 10.037-8.143 18.174-18.189 18.174s-18.188-8.137-18.188-18.174c0-10.037 8.142-18.174 18.188-18.174S60.4 142.454 60.4 152.49" fill="#495458"/>
            <g transform="translate(39.01 139.168)">
                <mask id="aQ" fill="#fff">
                    <use xlink:href="#aO"/>
                </mask>
                <path d="M.197.51.195.51.189.517l2.05 10.078a.705.705 0 0 0 .825.552h.001a.692.692 0 0 1 .27 0h.002a.706.706 0 0 0 .826-.552L6.213.517S6.208.515 6.205.511A13.354 13.354 0 0 0 .196.51" fill="url(#aP)" mask="url(#aQ)"/>
            </g>
            <g transform="translate(39.01 154.103)">
                <mask id="aT" fill="#fff">
                    <use xlink:href="#aR"/>
                </mask>
                <path d="M3.337.723h-.001a.692.692 0 0 1-.27 0h-.002a.704.704 0 0 0-.826.552L.361 10.51a.707.707 0 0 0 .57.838 13.238 13.238 0 0 0 4.539 0 .707.707 0 0 0 .57-.838L4.164 1.275a.706.706 0 0 0-.69-.565.683.683 0 0 0-.136.013" fill="url(#aS)" mask="url(#aT)"/>
            </g>
            <g transform="translate(43.993 149.125)">
                <mask id="aW" fill="#fff">
                    <use xlink:href="#aU"/>
                </mask>
                <path d="M10.362.588 1.026 2.485a.704.704 0 0 0-.553.823l.001.006a.693.693 0 0 1 0 .265v.005a.703.703 0 0 0 .552.823l9.31 1.89a.709.709 0 0 0 .836-.568 13.243 13.243 0 0 0 .028-4.567.71.71 0 0 0-.698-.588.675.675 0 0 0-.14.014" fill="url(#aV)" mask="url(#aW)"/>
            </g>
            <g transform="translate(28.335 149.125)">
                <mask id="aZ" fill="#fff">
                    <use xlink:href="#aX"/>
                </mask>
                <path d="M.896 1.162a13.093 13.093 0 0 0-.185 2.205c0 .807.072 1.596.211 2.362a.71.71 0 0 0 .838.568l9.307-1.889a.705.705 0 0 0 .552-.825V3.58a.75.75 0 0 1 0-.27.706.706 0 0 0-.552-.828L1.734.588a.708.708 0 0 0-.838.574" fill="url(#aY)" mask="url(#aZ)"/>
            </g>
            <g transform="translate(43.281 141.302)">
                <mask id="bc" fill="#fff">
                    <use xlink:href="#ba"/>
                </mask>
                <path d="M5.521.626.232 8.604a.706.706 0 0 0 .193.973l.006.005c.074.05.138.113.188.186l.003.006a.708.708 0 0 0 .974.191l7.968-5.274a.708.708 0 0 0 .19-.993A13.26 13.26 0 0 0 6.52.438a.707.707 0 0 0-.998.187" fill="url(#bb)" mask="url(#bc)"/>
            </g>
            <g transform="translate(31.181 153.391)">
                <mask id="bf" fill="#fff">
                    <use xlink:href="#bd"/>
                </mask>
                <path d="m8.362.484-7.89 5.22a.706.706 0 0 0-.187.998 13.22 13.22 0 0 0 3.228 3.202c.325.226.775.14.994-.191l5.216-7.868A.703.703 0 0 0 9.53.87a.725.725 0 0 1-.192-.193.708.708 0 0 0-.976-.195" fill="url(#be)" mask="url(#bf)"/>
            </g>
            <g transform="translate(43.281 153.391)">
                <mask id="bi" fill="#fff">
                    <use xlink:href="#bg"/>
                </mask>
                <path d="M.622.675.621.68A.723.723 0 0 1 .43.87L.428.87a.704.704 0 0 0-.195.974L5.45 9.713a.71.71 0 0 0 .995.19 13.248 13.248 0 0 0 3.229-3.198.706.706 0 0 0-.187-.997L1.597.482a.709.709 0 0 0-.975.193" fill="url(#bh)" mask="url(#bi)"/>
            </g>
            <g transform="translate(31.181 141.302)">
                <mask id="bl" fill="#fff">
                    <use xlink:href="#bj"/>
                </mask>
                <path d="M3.438.439A13.205 13.205 0 0 0 .204 3.698a.708.708 0 0 0 .192.993l7.967 5.274a.707.707 0 0 0 .974-.194h.001a.707.707 0 0 1 .19-.19l.004-.004a.705.705 0 0 0 .193-.973L4.437.626a.708.708 0 0 0-.591-.317.703.703 0 0 0-.408.13" fill="url(#bk)" mask="url(#bl)"/>
            </g>
            <g>
                <path d="M45.158 152.491a2.946 2.946 0 0 1-2.947 2.944 2.946 2.946 0 0 1-2.946-2.944 2.945 2.945 0 0 1 2.946-2.943 2.945 2.945 0 0 1 2.947 2.943" fill="#AAABA9"/>
                <path d="M42.211 139.476c-7.181 0-13.025 5.839-13.025 13.015s5.844 13.014 13.025 13.014c7.182 0 13.026-5.838 13.026-13.014 0-7.176-5.844-13.015-13.026-13.015m0 26.31c-7.336 0-13.307-5.964-13.307-13.295 0-7.333 5.97-13.296 13.307-13.296 7.338 0 13.307 5.963 13.307 13.296 0 7.33-5.97 13.295-13.307 13.295" fill="#AAABA9"/>
                <path d="M187.054 152.491c0 10.037-8.143 18.174-18.188 18.174-10.045 0-18.189-8.137-18.189-18.174 0-10.037 8.144-18.174 18.189-18.174s18.188 8.137 18.188 18.174" fill="#495458"/>
            </g>
            <g transform="translate(165.701 139.168)">
                <mask id="bo" fill="#fff">
                    <use xlink:href="#bm"/>
                </mask>
                <path d="M.162.51.159.51.153.517l2.05 10.078a.707.707 0 0 0 .826.552.689.689 0 0 1 .27 0h.002c.38.074.75-.173.827-.552L6.176.517 6.17.511A13.348 13.348 0 0 0 .16.51" fill="url(#bn)" mask="url(#bo)"/>
            </g>
            <g transform="translate(165.701 154.103)">
                <mask id="br" fill="#fff">
                    <use xlink:href="#bp"/>
                </mask>
                <path d="M3.301.723a.692.692 0 0 1-.271 0 .706.706 0 0 0-.828.552L.325 10.51a.707.707 0 0 0 .57.838 13.26 13.26 0 0 0 4.54 0 .707.707 0 0 0 .57-.838L4.127 1.275A.707.707 0 0 0 3.437.71a.683.683 0 0 0-.136.013" fill="url(#bq)" mask="url(#br)"/>
            </g>
            <g transform="translate(170.683 149.125)">
                <mask id="bu" fill="#fff">
                    <use xlink:href="#bs"/>
                </mask>
                <path d="M10.326.588.989 2.485a.705.705 0 0 0-.552.823l.001.006a.693.693 0 0 1 0 .265l-.001.005a.704.704 0 0 0 .552.823l9.31 1.89a.71.71 0 0 0 .838-.568c.14-.766.212-1.555.212-2.362 0-.75-.064-1.489-.185-2.205a.708.708 0 0 0-.698-.588.675.675 0 0 0-.14.014" fill="url(#bt)" mask="url(#bu)"/>
            </g>
            <g transform="translate(155.025 149.125)">
                <mask id="bx" fill="#fff">
                    <use xlink:href="#bv"/>
                </mask>
                <path d="M.86 1.162a13.167 13.167 0 0 0-.185 2.205c0 .807.072 1.596.212 2.362a.71.71 0 0 0 .837.568l9.307-1.889a.705.705 0 0 0 .552-.825V3.58a.719.719 0 0 1 0-.27.706.706 0 0 0-.552-.828L1.698.588a.709.709 0 0 0-.838.574" fill="url(#bw)" mask="url(#bx)"/>
            </g>
            <g transform="translate(169.972 141.302)">
                <mask id="bA" fill="#fff">
                    <use xlink:href="#by"/>
                </mask>
                <path d="M5.485.626.197 8.604a.705.705 0 0 0 .192.973l.006.005c.074.05.138.113.189.186l.002.006a.707.707 0 0 0 .973.191l7.97-5.274a.708.708 0 0 0 .19-.993A13.275 13.275 0 0 0 6.484.438a.708.708 0 0 0-.999.187" fill="url(#bz)" mask="url(#bA)"/>
            </g>
            <g transform="translate(157.872 153.391)">
                <mask id="bD" fill="#fff">
                    <use xlink:href="#bB"/>
                </mask>
                <path d="m8.326.484-7.89 5.22a.705.705 0 0 0-.186.998 13.204 13.204 0 0 0 3.228 3.202c.324.226.775.14.994-.191l5.216-7.868A.704.704 0 0 0 9.493.87a.728.728 0 0 1-.192-.193.704.704 0 0 0-.975-.195" fill="url(#bC)" mask="url(#bD)"/>
            </g>
            <g transform="translate(169.972 153.391)">
                <mask id="bG" fill="#fff">
                    <use xlink:href="#bE"/>
                </mask>
                <path d="M.587.675.584.68a.705.705 0 0 1-.191.19V.87a.703.703 0 0 0-.194.974l5.215 7.868c.219.33.669.417.994.19a13.244 13.244 0 0 0 3.231-3.198.706.706 0 0 0-.188-.997L1.561.482a.706.706 0 0 0-.974.193" fill="url(#bF)" mask="url(#bG)"/>
            </g>
            <g transform="translate(157.872 141.302)">
                <mask id="bJ" fill="#fff">
                    <use xlink:href="#bH"/>
                </mask>
                <path d="M3.403.439A13.202 13.202 0 0 0 .169 3.698a.708.708 0 0 0 .191.993l7.967 5.274a.707.707 0 0 0 .975-.194.697.697 0 0 1 .19-.19l.004-.004a.704.704 0 0 0 .192-.973L4.401.626A.707.707 0 0 0 3.81.309a.703.703 0 0 0-.407.13" fill="url(#bI)" mask="url(#bJ)"/>
            </g>
            <g fill="#AAABA9">
                <path d="M171.812 152.491a2.946 2.946 0 0 1-5.892 0 2.945 2.945 0 0 1 2.946-2.943 2.945 2.945 0 0 1 2.946 2.943"/>
                <path d="M168.866 139.476c-7.182 0-13.025 5.839-13.025 13.015s5.843 13.014 13.025 13.014 13.025-5.838 13.025-13.014c0-7.176-5.843-13.015-13.025-13.015m0 26.31c-7.338 0-13.307-5.964-13.307-13.295 0-7.333 5.97-13.296 13.307-13.296 7.337 0 13.307 5.963 13.307 13.296 0 7.33-5.97 13.295-13.307 13.295"/>
            </g>
            <g>
                <path d="M144.33 115.21c-1.541-.517-5.538-1.315-6.2-2.16-.661-.846-6.396-4.321-8.933-2.63-2.54 1.691-1.128 6.95 1.785 7.608 2.914.657 12.69-.706 12.69-.706s2.2-1.596.658-2.112z" fill="#00A3DA"/>
                <path d="M44.285 152.491a2.073 2.073 0 0 1-4.147 0 2.073 2.073 0 0 1 4.147 0M170.939 152.491a2.072 2.072 0 1 1-4.145-.001 2.072 2.072 0 0 1 4.145.001" fill="#495458"/>
                <path d="M120.623 144.203c-.654 0-1.094-.31-1.094-1.115v-3.332h2.31v-.98c0-.322-.121-.457-.361-.457h-1.95v-1.746c0-.27-.173-.404-.52-.404-.467 0-.88.055-1.269.162v6.663c0 1.733.962 2.66 2.39 2.66 1.095 0 1.75-.511 1.75-.914 0-.242-.107-.564-.24-.726-.268.121-.668.189-1.016.189" fill="#00A3DA"/>
                <path d="M109.537 144.048c-.609 0-.848-.53-.937-1.065.173 1.905.95 2.632.95 2.632.985 0 1.716-.276 2.167-.827-.474-.554-.675-1.352-.675-2.287 0 .763-.607 1.547-1.505 1.547" fill="#3166A2"/>
                <path d="M108.6 142.983a8.38 8.38 0 0 1-.034-.772v-1.768h.001v-1.773c0-.273-.163-.41-.516-.41-.474 0-.896.055-1.29.164V142.133c0 2.321.929 3.483 2.788 3.483 0 0-.776-.728-.949-2.633" fill="#00A3DA"/>
                <path d="M116.38 138.287c-.462 0-1.051.304-1.315.533.104.28.338 1.42.338 2.518 0 1.714-.749 2.71-1.584 2.71-.651 0-.977-.516-.977-1.823 0 2.543.99 3.39.99 3.39 1.281 0 2.23-.67 2.83-2.013.322-.752.482-1.392.482-2.389 0-.756-.069-1.633-.271-2.496-.072-.306-.178-.43-.493-.43" fill="#3166A2"/>
                <path d="M112.842 142.225v-3.432c-.018-.336-.25-.505-.698-.505h-.404c-.443 0-.676.169-.698.505v3.708c0 .934.201 1.733.674 2.287.445.52 1.13.827 2.116.827 0 0-.99-.847-.99-3.39M103.797 143.262c-.28.645-.921.994-1.535.994-.628 0-1.122-.309-1.122-.94s.507-1.007 1.402-1.007c.388 0 .975.054 1.255.16v.793zm2.256.928c-.307 0-.48-.162-.48-.659v-2.485c0-1.921-1.108-2.889-3.07-2.889-1.443 0-2.552.632-2.552 1.102 0 .228.08.524.215.712a4.203 4.203 0 0 1 1.842-.416c1.242 0 1.789.497 1.789 1.357v.443c-.36-.188-1.028-.323-1.602-.323-1.708 0-2.83.874-2.83 2.338 0 1.33.987 2.284 2.443 2.284.921 0 1.681-.431 2.123-1.129.227.74.8 1.061 1.361 1.061.708 0 1.162-.43 1.162-.792 0-.228-.04-.417-.093-.604h-.308zM125.532 144.202c-1 0-1.866-.845-1.866-2.373 0-1.515.786-2.212 1.759-2.212 1 0 1.853.844 1.853 2.373 0 1.515-.773 2.212-1.746 2.212m-.054-6.033c-1.919 0-3.598 1.34-3.598 3.74 0 2.4 1.68 3.741 3.598 3.741 1.92 0 3.598-1.34 3.598-3.74 0-2.4-1.678-3.741-3.598-3.741" fill="#00A3DA"/>
            </g>
            <g transform="translate(138.655 112.856)">
                <mask id="bM" fill="#fff">
                    <use xlink:href="#bK"/>
                </mask>
                <path d="M3.59 4.651c2.513-.285 3.052-.375 3.052-.375s.994-.794 1.158-1.71C7.964 1.65.227.694.227.694s.85 4.244 3.363 3.957" fill="url(#bL)" mask="url(#bM)"/>
            </g>
        </g>
        <g>
            <g transform="translate(74.598 43.07)">
                <mask id="bO" fill="#fff">
                    <use xlink:href="#bN"/>
                </mask>
                <path d="M36.606 17.466H15.061l-4.471 5.29-.47-5.29H3.765A3.775 3.775 0 0 1 0 13.704V4.3A3.775 3.775 0 0 1 3.766.537h32.84a3.775 3.775 0 0 1 3.765 3.762v9.405a3.775 3.775 0 0 1-3.765 3.762" fill="#1A1919" opacity=".3" mask="url(#bO)"/>
            </g>
            <path d="M109.78 59.366H89.659l-4.472 5.29-.47-5.29h-6.354a3.775 3.775 0 0 1-3.765-3.762v-9.406a3.775 3.775 0 0 1 3.765-3.762h31.417a3.775 3.775 0 0 1 3.765 3.762v9.406a3.775 3.775 0 0 1-3.765 3.762" fill="#00A3DA"/>
            <path d="M89.615 52.205c0-1.288-.743-2.072-1.65-2.072-.809 0-1.568.588-1.568 1.926 0 1.289.751 2.072 1.658 2.072.808 0 1.56-.587 1.56-1.926m-1.61 2.881c-1.518 0-2.768-1.036-2.768-2.954 0-1.918 1.25-2.954 2.768-2.954 1.52 0 2.77 1.036 2.77 2.954 0 1.918-1.25 2.954-2.77 2.954M94.54 51.92c.433.84.906 1.534 1.322 1.967.156.163.311.261.523.261h.148c.048.122.073.294.073.449 0 .228-.302.489-.744.489-.4 0-.718-.22-1.044-.612-.368-.448-.776-1.117-1.144-1.885-.212.147-.44.294-.645.416v1.983h-.866c-.195 0-.277-.073-.277-.22v-5.45c.237-.066.498-.108.825-.108.22 0 .318.082.318.246v2.309c.816-.587 1.707-1.493 2.385-2.562.636.204.825.375.825.628a.577.577 0 0 1-.083.285c-.375.604-.971 1.257-1.616 1.804M105.67 48.92a.674.674 0 0 0-.464.207c-1.308 1.31-2.5 2.598-3.764 3.883l-1.548-1.235a.676.676 0 0 0-.845 1.053v.001l2.026 1.619a.675.675 0 0 0 .899-.05c1.454-1.457 2.76-2.89 4.186-4.318a.674.674 0 0 0-.49-1.16" fill="#FFFFFE"/>
        </g>
        <g>
            <g filter="url(#bP)" transform="translate(49.687 15.412)">
                <path d="M13.128 0c-.153 0-.313 0-.466.007C6.105.233.685 5.322.06 11.84c-.12 1.262-.06 2.531.173 3.74 0 0 .02.153.093.44.2.896.499 1.767.878 2.577 1.35 3.196 4.31 8.12 10.733 13.45a1.895 1.895 0 0 0 2.408 0c6.417-5.323 9.376-10.254 10.72-13.423.385-.83.685-1.708.884-2.598.04-.16.067-.293.087-.419.16-.817.239-1.654.239-2.491C26.262 5.887 20.37 0 13.128 0z" fill="#48A1D5" fill-rule="nonzero"/>
                <mask id="bR" fill="#fff">
                    <use xlink:href="#bQ"/>
                </mask>
                <use fill="#48A1D5" fill-rule="nonzero" xlink:href="#bQ"/>
                <g mask="url(#bR)" fill="#FFF" fill-rule="nonzero">
                    <path d="M-4.982 0h35.587v35.558H-4.982z"/>
                </g>
                <path d="M12.204 18.591c-.848 0-1.252-.274-1.252-1.841V13.9h5.036v-.471c0-.235-.049-.473-.41-.473h-4.626v-4.9h5.855l.024-.09c.027-.097.073-.292.073-.505 0-.212-.128-.35-.325-.35H9.964v9.761c0 1.867.65 2.664 2.172 2.664h4.903v-.472c0-.233-.049-.473-.41-.473h-4.425z" stroke="#48A1D5" stroke-width=".5" fill="#48A1D5" mask="url(#bR)"/>
            </g>
        </g>
    </g>
</svg>
