<svg width="204" height="176" xmlns="http://www.w3.org/2000/svg" xmlns:xlink="http://www.w3.org/1999/xlink">
    <defs>
        <path d="M191.168 56.208H13.431c-.3-.292-.596-.587-.888-.882a54.279 54.279 0 0 1-5.19-6.093 4.766 4.766 0 0 1-.177-.248c-1.731-2.41-3.183-4.893-4.314-7.416-1.069-2.386-1.858-4.81-2.323-7.24-1.1-5.66-.48-11.364 2.26-16.733v5.074h9.96V10.59h7.86v5.081h4.09l3.538-3.53h4.026V.421h11.255V17.81h11.504v4.188h4.46v-6.322h17v6.995h6.504v-9.628h9.918v14.367h.58V8.051h8.738v4.99h7.41v9.629h9.962V10.59h7.855v5.081h4.098l3.537-3.53h4.023V.421h11.25V17.81h11.512v4.188h4.46v-6.322h8.952v6.995l15.796.252-1.248-9.88h1.33v43.166z" id="a"/>
        <path d="M28.73 3.857c3.233 0 5.854 2.096 5.854 4.682H17.65l.001.02H.305c0-1.525 1.303-2.76 2.91-2.76.38 0 .744.068 1.078.194.434-1.704 2.053-2.97 3.983-2.97 1.58 0 2.949.849 3.633 2.092a4.303 4.303 0 0 1 2.058-.518c.544 0 1.063.099 1.539.279.62-2.434 2.932-4.242 5.689-4.242 2.48 0 4.599 1.463 5.452 3.528" id="d"/>
        <path d="M188.988 24.376s-.486 11.897-41.435 5.704c-44.984-6.804-72.845 12.455-106.575 2.058-6.965-2.15-13.475-5.219-19.217-8.935a69.302 69.302 0 0 1-8.35-6.322 62.885 62.885 0 0 1-3.047-2.893 54.279 54.279 0 0 1-5.19-6.093 4.766 4.766 0 0 1-.177-.248C3.265 5.237 1.814 2.754.682.23h188.306" id="g"/>
        <path id="j" d="M.192.209h178.625v21.235H.192z"/>
        <path d="M175.91 6.523H8.682A69.302 69.302 0 0 1 .333.2H175.91v6.322z" id="l"/>
        <path id="o" d="M.088.642h183.815v2.126H.088z"/>
        <path id="q" d="M0 140.98h196.254V0H0z"/>
        <path d="M2.15 1.21C1.778 2.044.107 13.9.571 14.553c.465.654 2.468 0 2.468 0L5.587.469S5.484.466 5.313.466c-.759 0-2.86.062-3.163.743" id="r"/>
        <path d="M1.506 1.668c.94.237 6.094.569 6.094.569s.715-.19 1.918-1.666L.426.225s.14 1.207 1.08 1.443" id="t"/>
        <path d="M1.558 1.763c.94.236 6.095.568 6.095.568s.713-.19 1.916-1.668L.48.32s.138 1.206 1.08 1.443" id="w"/>
        <path d="M.164.323c1.443.005 144.645.654 185.821 13.98.006-.095.006-.19.006-.282C164.487 7.044 115.128 3.62 77.498 1.971 36.707.183.527.047.164.044v.278z" id="z"/>
        <path d="M.376.45C.605.483 23.76 3.864 51.657 11.712a9.233 9.233 0 0 0-.228-.38C23.515 3.476.643.205.415.171l-.04.279z" id="C"/>
        <path id="F" d="M0 0h15.64v20.931H0z"/>
        <path d="M.5 5.64S3.83 1.97 7.142 1.375C10.93.696 65.743-1.59 78.744 5.641c13.003 7.228 2.23 5.932-.65 5.746" id="H"/>
        <path d="M.195.503C.193.503.193.505.193.505L.187.51l2.025 9.947c.076.374.44.618.815.545h.002a.685.685 0 0 1 .267 0c.377.073.74-.17.817-.545L6.138.51 6.132.505A13.207 13.207 0 0 0 .195.503" id="K"/>
        <path d="M3.297.714h-.001a.685.685 0 0 1-.267 0h-.002a.695.695 0 0 0-.815.545L.357 10.374a.698.698 0 0 0 .563.826 13.092 13.092 0 0 0 4.484 0 .698.698 0 0 0 .564-.826L4.113 1.259A.697.697 0 0 0 3.431.7a.676.676 0 0 0-.134.013" id="N"/>
        <path d="M10.237.58 1.013 2.452a.695.695 0 0 0-.545.813v.006a.683.683 0 0 1 0 .262v.005a.694.694 0 0 0 .545.812l9.199 1.865a.7.7 0 0 0 .826-.56 13.058 13.058 0 0 0 .027-4.508.701.701 0 0 0-.69-.58.668.668 0 0 0-.138.013" id="Q"/>
        <path d="M.885 1.147a12.91 12.91 0 0 0-.182 2.177c0 .796.07 1.575.208 2.33.07.385.445.638.828.56l9.195-1.863a.696.696 0 0 0 .545-.815v-.001a.74.74 0 0 1 0-.267.697.697 0 0 0-.545-.817L1.713.581a.7.7 0 0 0-.828.566" id="T"/>
        <path d="M5.455.618.229 8.492a.696.696 0 0 0 .19.96l.006.006a.673.673 0 0 1 .187.184l.003.005a.7.7 0 0 0 .962.189L9.45 4.631a.699.699 0 0 0 .188-.981A13.094 13.094 0 0 0 6.44.433a.699.699 0 0 0-.986.185" id="W"/>
        <path d="M8.261.477.466 5.631a.696.696 0 0 0-.185.984 13.054 13.054 0 0 0 3.19 3.16.7.7 0 0 0 .982-.188L9.607 1.82A.693.693 0 0 0 9.415.86a.716.716 0 0 1-.19-.19.7.7 0 0 0-.964-.192" id="Z"/>
        <path d="M.615.666.613.671a.714.714 0 0 1-.188.187L.423.86a.694.694 0 0 0-.192.96l5.153 7.767a.701.701 0 0 0 .984.188 13.083 13.083 0 0 0 3.19-3.157.696.696 0 0 0-.185-.984L1.578.476a.7.7 0 0 0-.963.19" id="ac"/>
        <path d="M3.397.433A13.04 13.04 0 0 0 .202 3.65a.698.698 0 0 0 .189.98l7.872 5.205c.319.21.748.125.962-.191h.001a.698.698 0 0 1 .187-.188l.004-.003a.695.695 0 0 0 .191-.96L4.384.617a.7.7 0 0 0-.585-.313c-.139 0-.28.042-.402.128" id="af"/>
        <path d="M.16.503C.158.503.158.505.158.505A.066.066 0 0 1 .15.51l2.025 9.947c.076.374.44.618.817.545a.681.681 0 0 1 .267 0h.001c.377.073.741-.17.818-.545L6.102.51 6.097.505A13.2 13.2 0 0 0 .16.503" id="ai"/>
        <path d="M3.261.714a.685.685 0 0 1-.267 0h-.001a.697.697 0 0 0-.817.545L.32 10.374a.698.698 0 0 0 .563.826 13.115 13.115 0 0 0 4.486 0 .698.698 0 0 0 .562-.826L4.08 1.259A.698.698 0 0 0 3.396.7a.676.676 0 0 0-.135.013" id="al"/>
        <path d="M10.202.58.977 2.452a.696.696 0 0 0-.545.813l.001.006a.683.683 0 0 1 0 .262l-.001.005a.695.695 0 0 0 .545.812l9.2 1.865a.702.702 0 0 0 .827-.56c.137-.756.209-1.535.209-2.331 0-.742-.063-1.47-.183-2.177a.7.7 0 0 0-.69-.58.668.668 0 0 0-.138.013" id="ao"/>
        <path d="M.85 1.147C.73 1.854.666 2.582.666 3.324c0 .796.07 1.575.21 2.33a.7.7 0 0 0 .826.56l9.195-1.863a.696.696 0 0 0 .546-.815v-.001a.709.709 0 0 1 0-.267.697.697 0 0 0-.545-.817L1.678.581a.7.7 0 0 0-.828.566" id="ar"/>
        <path d="M5.419.618.195 8.492a.695.695 0 0 0 .19.96l.005.006a.693.693 0 0 1 .187.184l.002.005a.7.7 0 0 0 .962.189l7.873-5.205a.698.698 0 0 0 .19-.981A13.109 13.109 0 0 0 6.405.433a.7.7 0 0 0-.987.185" id="au"/>
        <path d="M8.226.477.431 5.631a.695.695 0 0 0-.184.984 13.04 13.04 0 0 0 3.189 3.16.7.7 0 0 0 .982-.188L9.571 1.82A.694.694 0 0 0 9.38.86a.719.719 0 0 1-.19-.19.696.696 0 0 0-.963-.192" id="ax"/>
        <path d="M.58.666.577.671a.696.696 0 0 1-.189.187V.86a.694.694 0 0 0-.192.96L5.35 9.588a.7.7 0 0 0 .982.188 13.08 13.08 0 0 0 3.193-3.157.696.696 0 0 0-.186-.984L1.542.476a.698.698 0 0 0-.962.19" id="aA"/>
        <path d="M3.362.433A13.037 13.037 0 0 0 .167 3.65a.698.698 0 0 0 .189.98l7.872 5.205a.7.7 0 0 0 .962-.191h.001a.688.688 0 0 1 .187-.188l.004-.003a.694.694 0 0 0 .19-.96L4.348.617a.699.699 0 0 0-.584-.313c-.139 0-.28.042-.402.128" id="aD"/>
        <path d="M3.323 3.905c2.483-.28 3.015-.37 3.015-.37s.982-.783 1.144-1.688C7.645.943 0 0 0 0s.84 4.188 3.323 3.905" id="aG"/>
        <linearGradient x1="50%" y1="-1.853%" x2="50%" y2="61.481%" id="b">
            <stop stop-color="#07DBF9" offset="0%"/>
            <stop stop-color="#5B6469" offset="100%"/>
        </linearGradient>
        <linearGradient x1=".001%" y1="49.998%" x2="100%" y2="49.998%" id="e">
            <stop stop-color="#ABD7DE" offset="0%"/>
            <stop stop-color="#F4F4F5" offset="100%"/>
        </linearGradient>
        <linearGradient x1="50%" y1="69.399%" x2="50%" y2="-19.707%" id="h">
            <stop stop-color="#B3BE77" offset="0%"/>
            <stop stop-color="#6BA056" offset="100%"/>
        </linearGradient>
        <linearGradient x1="50%" y1="62.517%" x2="50%" y2="-57.287%" id="m">
            <stop stop-color="#F2DBB7" offset="0%"/>
            <stop stop-color="#EDBF77" offset="100%"/>
        </linearGradient>
        <linearGradient x1=".003%" y1="49.995%" x2="99.993%" y2="49.995%" id="u">
            <stop stop-color="#A5A6A5" offset="0%"/>
            <stop stop-color="#929592" offset="100%"/>
        </linearGradient>
        <linearGradient x1=".001%" y1="50%" x2="99.999%" y2="50%" id="x">
            <stop stop-color="#A5A6A5" offset="0%"/>
            <stop stop-color="#929592" offset="100%"/>
        </linearGradient>
        <linearGradient x1="50.09%" y1="50.366%" x2="49.91%" y2="49.634%" id="A">
            <stop stop-color="#A5A6A5" offset="0%"/>
            <stop stop-color="#E6E2D8" offset="100%"/>
        </linearGradient>
        <linearGradient x1="50.226%" y1="52.743%" x2="49.765%" y2="47.258%" id="D">
            <stop stop-color="#A5A6A5" offset="0%"/>
            <stop stop-color="#E6E2D8" offset="100%"/>
        </linearGradient>
        <linearGradient x1="118.449%" y1="64.079%" x2="17.429%" y2="43.766%" id="I">
            <stop stop-color="#FCF9ED" offset="0%"/>
            <stop stop-color="#E6E2D8" offset="100%"/>
        </linearGradient>
        <linearGradient x1="49.996%" y1="-17.649%" x2="49.996%" y2="113.248%" id="L">
            <stop stop-color="#FCF9ED" offset="0%"/>
            <stop stop-color="#ABACA9" offset="100%"/>
        </linearGradient>
        <linearGradient x1="50.001%" y1="-158.075%" x2="50.001%" y2="-25.298%" id="O">
            <stop stop-color="#FCF9ED" offset="0%"/>
            <stop stop-color="#ABACA9" offset="100%"/>
        </linearGradient>
        <linearGradient x1="50.001%" y1="-203.706%" x2="50.001%" y2="39.217%" id="R">
            <stop stop-color="#FCF9ED" offset="0%"/>
            <stop stop-color="#ABACA9" offset="100%"/>
        </linearGradient>
        <linearGradient x1="50.001%" y1="-203.706%" x2="50.001%" y2="39.217%" id="U">
            <stop stop-color="#FCF9ED" offset="0%"/>
            <stop stop-color="#ABACA9" offset="100%"/>
        </linearGradient>
        <linearGradient x1="49.997%" y1="-38.41%" x2="49.997%" y2="102.607%" id="X">
            <stop stop-color="#FCF9ED" offset="0%"/>
            <stop stop-color="#ABACA9" offset="100%"/>
        </linearGradient>
        <linearGradient x1="50%" y1="-157.926%" x2="50%" y2="-15.368%" id="aa">
            <stop stop-color="#FCF9ED" offset="0%"/>
            <stop stop-color="#ABACA9" offset="100%"/>
        </linearGradient>
        <linearGradient x1="50.001%" y1="-157.927%" x2="50.001%" y2="-15.368%" id="ad">
            <stop stop-color="#FCF9ED" offset="0%"/>
            <stop stop-color="#ABACA9" offset="100%"/>
        </linearGradient>
        <linearGradient x1="49.999%" y1="-38.41%" x2="49.999%" y2="102.607%" id="ag">
            <stop stop-color="#FCF9ED" offset="0%"/>
            <stop stop-color="#ABACA9" offset="100%"/>
        </linearGradient>
        <linearGradient x1="50.006%" y1="-17.649%" x2="50.006%" y2="113.248%" id="aj">
            <stop stop-color="#FCF9ED" offset="0%"/>
            <stop stop-color="#ABACA9" offset="100%"/>
        </linearGradient>
        <linearGradient x1="50.001%" y1="-158.075%" x2="50.001%" y2="-25.298%" id="am">
            <stop stop-color="#FCF9ED" offset="0%"/>
            <stop stop-color="#ABACA9" offset="100%"/>
        </linearGradient>
        <linearGradient x1="50.002%" y1="-203.706%" x2="50.002%" y2="39.217%" id="ap">
            <stop stop-color="#FCF9ED" offset="0%"/>
            <stop stop-color="#ABACA9" offset="100%"/>
        </linearGradient>
        <linearGradient x1="50.001%" y1="-203.706%" x2="50.001%" y2="39.217%" id="as">
            <stop stop-color="#FCF9ED" offset="0%"/>
            <stop stop-color="#ABACA9" offset="100%"/>
        </linearGradient>
        <linearGradient x1="49.999%" y1="-38.41%" x2="49.999%" y2="102.607%" id="av">
            <stop stop-color="#FCF9ED" offset="0%"/>
            <stop stop-color="#ABACA9" offset="100%"/>
        </linearGradient>
        <linearGradient x1="50.001%" y1="-157.926%" x2="50.001%" y2="-15.368%" id="ay">
            <stop stop-color="#FCF9ED" offset="0%"/>
            <stop stop-color="#ABACA9" offset="100%"/>
        </linearGradient>
        <linearGradient x1="50.001%" y1="-157.927%" x2="50.001%" y2="-15.368%" id="aB">
            <stop stop-color="#FCF9ED" offset="0%"/>
            <stop stop-color="#ABACA9" offset="100%"/>
        </linearGradient>
        <linearGradient x1="50%" y1="-38.41%" x2="50%" y2="102.607%" id="aE">
            <stop stop-color="#FCF9ED" offset="0%"/>
            <stop stop-color="#ABACA9" offset="100%"/>
        </linearGradient>
        <linearGradient x1="78.739%" y1="67.504%" x2="12.354%" y2="18.864%" id="aH">
            <stop stop-color="#A5A6A5" offset="0%"/>
            <stop stop-color="#E6E2D8" offset="100%"/>
        </linearGradient>
    </defs>
    <g fill="none" fill-rule="evenodd">
        <g opacity=".4">
            <g transform="translate(7.086 61.028)">
                <mask id="c" fill="#fff">
                    <use xlink:href="#a"/>
                </mask>
                <path d="M191.168 56.208H13.431c-.3-.292-.596-.587-.888-.882a54.279 54.279 0 0 1-5.19-6.093 4.766 4.766 0 0 1-.177-.248c-1.731-2.41-3.183-4.893-4.314-7.416-1.069-2.386-1.858-4.81-2.323-7.24-1.1-5.66-.48-11.364 2.26-16.733v5.074h9.96V10.59h7.86v5.081h4.09l3.538-3.53h4.026V.421h11.255V17.81h11.504v4.188h4.46v-6.322h17v6.995h6.504v-9.628h9.918v14.367h.58V8.051h8.738v4.99h7.41v9.629h9.962V10.59h7.855v5.081h4.098l3.537-3.53h4.023V.421h11.25V17.81h11.512v4.188h4.46v-6.322h8.952v6.995l15.796.252.081 33.286z" fill-opacity=".2" fill="url(#b)" mask="url(#c)"/>
            </g>
            <path d="M63.102 47.812c-.498 0-.974.073-1.412.206-.578-1.399-2.014-2.39-3.694-2.39-1.047 0-2 .385-2.709 1.015-1.108-.646-2.471-1.027-3.947-1.027-.842 0-1.647.124-2.389.35-.978-2.369-3.408-4.046-6.251-4.046-3.16 0-5.811 2.073-6.523 4.863a5.003 5.003 0 0 0-1.764-.319c-2.631 0-4.764 2.024-4.764 4.52h37.419c0-1.752-1.776-3.172-3.966-3.172" fill="#D1E2E7"/>
            <g transform="translate(124.79 52.326)">
                <mask id="f" fill="#fff">
                    <use xlink:href="#d"/>
                </mask>
                <path d="M28.73 3.857a7.15 7.15 0 0 0-2.083.305C25.794 2.097 23.674.634 21.195.634c-2.757 0-5.068 1.808-5.69 4.242a4.344 4.344 0 0 0-1.538-.279c-.75 0-1.451.189-2.058.518-.684-1.243-2.053-2.092-3.633-2.092-1.93 0-3.549 1.266-3.983 2.97a3.042 3.042 0 0 0-1.078-.195c-1.607 0-2.91 1.236-2.91 2.76h17.346v-.02h16.933c0-2.585-2.62-4.681-5.853-4.681" fill="url(#e)" mask="url(#f)"/>
            </g>
            <g transform="translate(9.266 102.366)">
                <mask id="i" fill="#fff">
                    <use xlink:href="#g"/>
                </mask>
                <path d="M147.553 30.08c-44.984-6.804-72.845 12.455-106.575 2.058-6.965-2.15-13.475-5.219-19.217-8.935a69.302 69.302 0 0 1-8.35-6.322 62.885 62.885 0 0 1-3.047-2.893 54.279 54.279 0 0 1-5.19-6.093 4.766 4.766 0 0 1-.177-.248C3.265 5.237 1.814 2.754.682.23h188.306v24.145s-.486 11.897-41.435 5.704" fill="url(#h)" mask="url(#i)"/>
            </g>
            <g transform="translate(19.438 116.146)">
                <mask id="k" fill="#fff">
                    <use xlink:href="#j"/>
                </mask>
                <path d="M137.381 16.3C92.487 8.93 64.535 28.755 30.806 18.36c-6.964-2.15-13.475-5.22-19.217-8.936a69.244 69.244 0 0 1-8.35-6.322A62.188 62.188 0 0 1 .193.209h178.625v10.388s-.52 12.422-41.436 5.703" fill="#A5B170" mask="url(#k)"/>
            </g>
            <g transform="translate(22.344 119.047)">
                <mask id="n" fill="#fff">
                    <use xlink:href="#l"/>
                </mask>
                <path d="M175.91.2v6.323H8.682A69.302 69.302 0 0 1 .333.2H175.91z" fill="url(#m)" mask="url(#n)"/>
            </g>
            <g transform="translate(14.352 109.619)">
                <mask id="p" fill="#fff">
                    <use xlink:href="#o"/>
                </mask>
                <path d="M183.903.642v2.126H1.724A47.4 47.4 0 0 1 .088.642h183.815z" fill="#B9C57B" mask="url(#p)"/>
            </g>
            <path d="M35.372 102.597H9.947c-1.068-2.386-1.857-4.81-2.323-7.239 3.787 2.011 2.264 4.464 2.185 4.586.167-.086 4.106-2.189 7.095.003 0 0 2.374-4.754 5.773-2.924.257.138.521.311.79.531 0 0 1.597-.853 3.13-.81 1.188.027 2.335.594 2.67 2.506 0 0 3.967-2.101 4.733 1.599 0 0 1.372.661 1.372 1.748M105.615 102.598s-.696-3.456 2.514-2.9c0 0 1.015-4.007 4.652-2.512 3.638 1.495 2.247 3.555 2.247 3.555s2.835-1.57 4.974 0c0 0 1.925-3.857 4.6-1.677 0 0 3.53-1.885 4.065 1.189 0 0 2.781-1.475 3.316 1.12 0 0 .963.462.963 1.225h-27.331z" fill="#678C50"/>
            <path d="M100.025 102.598s-.433-2.152 1.565-1.806c0 0 .633-2.494 2.898-1.563 2.264.93 1.399 2.213 1.399 2.213s1.764-.978 3.096 0c0 0 1.2-2.401 2.864-1.044 0 0 2.198-1.174 2.531.74 0 0 1.732-.918 2.065.697 0 0 .6.288.6.763h-17.018zM120.505 102.598s-.866-4.303 3.13-3.612c0 0 1.266-4.988 5.795-3.127 4.529 1.861 2.798 4.426 2.798 4.426s3.53-1.955 6.193 0c0 0 2.398-4.802 5.728-2.088 0 0 4.396-2.347 5.061 1.48 0 0 3.464-1.835 4.13 1.395 0 0 1.199.576 1.199 1.526h-34.034z" fill="#678C50"/>
            <path d="M139.416 102.598s-.696-3.456 2.513-2.9c0 0 1.017-4.007 4.654-2.512 3.637 1.495 2.247 3.555 2.247 3.555s2.834-1.57 4.974 0c0 0 1.924-3.857 4.6-1.677 0 0 3.53-1.885 4.064 1.189 0 0 2.781-1.475 3.316 1.12 0 0 .963.462.963 1.225h-27.331z" fill="#678C50"/>
            <path d="M147.463 102.598s-.695-3.456 2.514-2.9c0 0 1.016-4.007 4.653-2.512 3.637 1.495 2.246 3.555 2.246 3.555s2.835-1.57 4.974 0c0 0 1.926-3.857 4.6-1.677 0 0 3.53-1.885 4.065 1.189 0 0 2.782-1.475 3.316 1.12 0 0 .963.462.963 1.225h-27.331z" fill="#678C50"/>
            <path d="M169.229 102.598s-.348-1.728 1.257-1.45c0 0 .507-2.003 2.326-1.256 1.819.747 1.123 1.777 1.123 1.777s1.418-.785 2.487 0c0 0 .963-1.927 2.3-.838 0 0 1.765-.942 2.033.595 0 0 1.39-.737 1.657.56 0 0 .482.23.482.612h-13.665z" fill="#678C50"/>
        </g>
        <path fill="#BDBDBD" d="M2.999 170.453H202V174H2.999z"/>
        <path d="M8.658 120.666s-4.336 2.452-4.196 3.495c.139 1.044.91 4.158 1.43 4.79.52.633 6.44-.896 7.554-2.704 1.115-1.808 4.807-7.648.628-7.022-4.18.626-5.416 1.44-5.416 1.44" fill="#BD505B"/>
        <path d="M199.245 148.949c-.184.426-.251.717-.245.928.012.515.432.573.63 1.017.279.624-1.301 4.485-1.764 4.761-.396.237-6.94.808-8.912.974l-.561.048s-1.535.02-4.304.052c-5.712.066-16.678.194-30.293.35-1.528.017-3.09.036-4.682.053a66343.19 66343.19 0 0 1-92.357 1.001c-17.703.17-30.28.268-31.447.211a39.86 39.86 0 0 1-1.011-.056c-4.592-.304-12.686-1.255-13.847-1.707-1.254-.485-3.275-5.791-3.135-6.488.139-.694.487-.972.487-.972-3.064-9.457-3.342-18.703-3.342-18.703.209-1.668 5.78-3.128 7.104-4.032 1.323-.905 2.369-5.492 2.299-5.77-.07-.279-4.11.347-4.667.347-.557 0-1.254-1.182-1.324-1.947-.07-.765 23.474-23.522 24.31-24.172.835-.648 16.995-4.263 35.197-5.562 18.205-1.297 45.979 2.831 52.38 5.284 11.609 4.449 28.139 17.798 28.139 17.798 29.905 6.675 47.133 11.449 48.108 12.284.571.486 1.156 1.212 1.579 1.888.084.13.16.259.228.38.185.338.318.643.374.883.187.79-15.507-3.151-16.622-3.151-1.114 0 .649 2.55 1.393 3.428.742.882 17.04 4.266 18.11 6.207.2.367.285 1.063.282 1.964 0 .092 0 .186-.006.28-.078 3.956-1.602 11.262-2.101 12.422" fill="#FFFFFE"/>
        <path d="M199.245 148.949c-.184.426-.251.717-.245.928.012.515.432.573.63 1.017.279.624-1.301 4.485-1.764 4.761-.396.237-6.94.808-8.912.974l-.561.048s-1.535.02-4.304.052c-5.712.066-16.678.194-30.293.35-1.528.017-3.09.036-4.682.053a66343.19 66343.19 0 0 1-92.357 1.001c-17.703.17-30.28.268-31.447.211a39.86 39.86 0 0 1-1.011-.056c-4.592-.304-12.686-1.255-13.847-1.707-1.254-.485-3.275-5.791-3.135-6.488.139-.694.487-.972.487-.972-3.064-9.457-3.342-18.703-3.342-18.703.209-1.668 5.78-3.128 7.104-4.032 1.323-.905 2.369-5.492 2.299-5.77-.07-.279-4.11.347-4.667.347-.557 0-1.254-1.182-1.324-1.947-.07-.765 23.474-23.522 24.31-24.172.835-.648 16.995-4.263 35.197-5.562 18.205-1.297 45.979 2.831 52.38 5.284 11.609 4.449 28.139 17.798 28.139 17.798 29.905 6.675 47.133 11.449 48.108 12.284.571.486 1.156 1.212 1.579 1.888.084.13.16.259.228.38.185.338.318.643.374.883.187.79-15.507-3.151-16.622-3.151-1.114 0 .649 2.55 1.393 3.428.742.882 17.04 4.266 18.11 6.207.2.367.285 1.063.282 1.964 0 .092 0 .186-.006.28-.078 3.956-1.602 11.262-2.101 12.422z" stroke="#CDD0D0"/>
        <path d="M197.498 127.882s2.023 2.23 2.286 5.5c0 0-16.593-3.59-17.754-5.213-1.16-1.62-3.204-4.235-.789-4.482 2.415-.245 16.257 4.195 16.257 4.195" fill="#EAEBEA"/>
        <path d="M32.602 94.844s-15.005 1.159-16.076 2.201c-1.072 1.045-.357 1.67 0 1.878.357.21 8.424 3.052 8.424 3.052l7.652-7.131z" fill="#00A3DA"/>
        <g transform="translate(191.164 137.667)">
            <mask id="s" fill="#fff">
                <use xlink:href="#r"/>
            </mask>
            <path d="M2.15 1.21C1.778 2.044.107 13.9.571 14.553c.465.654 2.468 0 2.468 0L5.587.469S5.484.466 5.313.466c-.759 0-2.86.062-3.163.743" mask="url(#s)"/>
        </g>
        <g transform="translate(84.276 118.715)">
            <mask id="v" fill="#fff">
                <use xlink:href="#t"/>
            </mask>
            <path d="M1.506 1.668c.94.237 6.094.569 6.094.569s.715-.19 1.918-1.666L.426.225s.14 1.207 1.08 1.443" fill="url(#u)" mask="url(#v)"/>
        </g>
        <g transform="translate(35.051 116.61)">
            <mask id="y" fill="#fff">
                <use xlink:href="#w"/>
            </mask>
            <path d="M1.558 1.763c.94.236 6.095.568 6.095.568s.713-.19 1.916-1.668L.48.32s.138 1.206 1.08 1.443" fill="url(#x)" mask="url(#y)"/>
        </g>
        <path d="M146.554 115.517s3.11 2.365 2.832 3.444c-.278 1.078-.464 1.414-.464 1.414s-.185.577-6.037.577c-5.85 0-112.93-3.9-114.742-4.605-1.81-.704-2.274-4.065-2.274-4.065l120.685 3.235z" fill="#F7F7F7"/>
        <path d="M197.866 155.655c-.466.279-9.472 1.021-9.472 1.021s-1.536.02-4.306.053l.728-2.834s5.851.509 8.405.23c2.556-.277 2.74-2.177 3.205-3.15.465-.973 2.574-1.098 2.574-1.098.011.515.432.573.63 1.017.279.624-1.301 4.485-1.764 4.761M64.297 152.222c0 2.03-.299 3.991-.853 5.845l-6.687.066c-17.703.17-30.279.268-31.447.211a39.86 39.86 0 0 1-1.011-.056 20.378 20.378 0 0 1-.917-6.066c0-11.28 9.159-20.421 20.456-20.421 11.301 0 20.459 9.14 20.459 20.42" fill="#67727C"/>
        <path d="M189.432 152.222c0 1.512-.164 2.99-.479 4.407l-.56.048s-1.535.02-4.304.052c-5.712.066-16.679.194-30.293.35-1.528.017-3.091.036-4.682.053a20.436 20.436 0 0 1-.596-4.91c0-11.28 9.159-20.421 20.459-20.421 11.297 0 20.455 9.14 20.455 20.42M27.152 158.889s-17.628-1.1-18.187-1.935c-.557-.836-3.847-6.384-1.32-8.337 2.528-1.954 12.082-2.111 19.239-7.826l.268 18.098z" fill="#67727C"/>
        <path d="M148.518 152.222s.126 2.577-2.94 2.17c-3.064-.406-82.747-1.88-82.747-1.88l-1.022 5.571 89.924-.796-3.215-5.065zM146.554 115.517c.291 2.602-6.484 1.901-8.413 1.82-8.328-.354-27.344-1.2-47.057-2.073l-.021-.003c-.024 0-39.988-1.773-49.381-2.18-.232-.01-15.771-.573-15.816-.8-.099-.52 9.475-8.833 9.878-9.178a145.844 145.844 0 0 1 4.94-4.043c3.27-2.56 6.2-4.54 7.66-4.826 2.456-.48 12.977-1.89 27.392-2.027a177.31 177.31 0 0 1 3.867-.002c10.953.072 23.777.922 36.861 3.398 8.822 1.67 29.861 17.895 30.09 19.914" fill="#67727C"/>
        <g transform="translate(15.361 122.225)">
            <mask id="B" fill="#fff">
                <use xlink:href="#z"/>
            </mask>
            <path d="M.164.323c1.443.005 144.645.654 185.821 13.98.006-.095.006-.19.006-.282C164.487 7.044 115.128 3.62 77.498 1.971 36.707.183.527.047.164.044v.278z" fill="url(#A)" mask="url(#B)"/>
        </g>
        <g transform="translate(146.158 115.206)">
            <mask id="E" fill="#fff">
                <use xlink:href="#C"/>
            </mask>
            <path d="M.376.45C.605.483 23.76 3.864 51.657 11.712a9.233 9.233 0 0 0-.228-.38C23.515 3.476.643.205.415.171l-.04.279z" fill="url(#D)" mask="url(#E)"/>
        </g>
        <path d="m36.199 133.271-.257.107c-4.521-9.935-5.935-16.744-6.322-20.71-.223-2.288-.106-3.635-.05-4.092l.32-.294c-.05.333-.213 1.776.045 4.382.398 4.027 1.817 10.832 6.264 20.607" fill="#A6A8A4"/>
        <path d="M142.4 117.505c-1.583-.04-16.717-.708-35.334-1.532l-10.445-.464c-1.833-.08-3.68-.161-5.537-.245l-.021-.002s-5.107-15.134-2.97-16.895c2.134-1.76 29.685 1.19 29.685 1.19 5.93 1.244 20.883 13.288 24.622 17.948" fill="#B3B8B9"/>
        <g transform="translate(93.117 94.673)">
            <mask id="G" fill="#fff">
                <use xlink:href="#F"/>
            </mask>
            <path d="M5.984.028S2.034-.105.774 3.127c-1.26 3.231-.309 5.709.05 6.885.94 3.074 1.017 4.19.562 6.045-.403 1.644-.774 2.493-1.238 4.03-.465 1.538.31 1.367.378 1.48.067.111 15.113 3.348 15.113 3.348s-.478-3.845-1.474-5.36c-.73-1.111-1.826-1.489-1-4.783.825-3.296 1.348-4.825.886-7.214-.536-2.77-.874-4.499-3.481-6.314A7.016 7.016 0 0 0 5.984.028" fill="#474E4F" mask="url(#G)"/>
        </g>
        <path d="M127.53 114.004s.52-.307.29-1.565c-.307-1.67-.903-3.761-1.264-3.932-.52-.245-.677.189-.368 1.16.309.972.413 1.29.413 1.29s-.965-1.64-1.398-1.851c-.433-.212-.873.075-.76.377.113.303.5.926.5.926s-.496-.632-.805-.509c-.229.091-.524.269-.192.968 0 0-.768-.084-.611.759.156.842.012 1.193-.511 1.801-.523.608-.806 1.931-.806 1.931l2.068 1.081s1.519-1.485 2.04-1.72c.523-.232 1.405-.716 1.405-.716M97.014 112.757s.129-5.33-.326-6.188c-.455-.856 5.506 3.568 5.506 3.568s-.02.21-.029.36a5.718 5.718 0 0 0 .035 1.077c.005.05.01.109.018.173.071.691.258 1.44.556 2.062.656 1.37-5.76-1.052-5.76-1.052" fill="#E2AE93"/>
        <path d="M102.18 96.769s4.357 2.84 2.942 9.701c-1.417 6.863-6.56 3.09-7.119 2.7-.56-.389-2.286-4.683-2.353-6.557-.064-1.764-.986-8.837 6.53-5.844" fill="#E3AF93"/>
        <path d="M101.881 98.146c-.454-.134-1.988 2.825-2.813 3.555-.826.73-2.344 2.562-2.492 4.57-.149 2.008-1.846-4.387-1.259-6.76.588-2.374 1.371-5.854 6.68-3.093 5.31 2.76 3.938 7.694 3.938 7.694s-1.758-5.289-4.054-5.966" fill="#474E4F"/>
        <path d="M98.202 102.883c-.14-.811-1.936-1.498-1.91-.278.027 1.22 1.018 2.628 1.58 2.539.56-.089.46-1.511.33-2.26" fill="#E3AF93"/>
        <path d="M102.2 111.573h-.01c-3.153-.037-4.187-2.403-4.187-2.403 2.184 1.646 3.933 1.368 4.163 1.322l-.005.082c-.01.5-.006.574.039 1" fill="#A48571"/>
        <path d="m80.43 114.792-3.298-.147c-17.204-.765-33.113-1.466-40.867-1.797-.683-.028-1.3-.054-1.85-.075v-.002c-.555-1.447 11.072-12.12 14.276-13.743 3.204-1.627 26.864-1.219 26.864-1.219s6.475 15.097 4.875 16.983" fill="#B3B8B9"/>
        <path d="M83.652 114.934v.002l-1.784-.08-2.872-.128-.31-.014-1.554-.07c-2.321-12.531-1.396-22.437-1.396-22.437.253-.002.51-.005.769-.005.092-.003.186-.003.278-.003.926-.006 1.865-.006 2.82.006.611 8.512 3.996 22.51 4.049 22.73" fill="#505D62"/>
        <path d="m92.642 157.81-.312.004c-7.648-14.604-11.598-30.567-13.643-43.1-2.023-12.425-2.17-21.483-2.182-22.513.092-.002.187-.002.279-.002.01 1.015.175 10.09 2.212 22.529 2.053 12.542 6.015 28.508 13.646 43.082M135.496 157.43l-.315.003c4.276-15.518 4.335-30.636 3.73-40.063-.328-5.128-.851-8.574-.999-9.478.08.06.161.126.242.187.128.745.677 4.137 1.027 9.298.636 9.322.628 24.41-3.685 40.052" fill="#A6A8A4"/>
        <path d="M87.636 115.11s-3.63-11.564-2.934-13.135c.696-1.568 5.899-1.29 7.755 2.418 1.857 3.708 5.767 11.189 5.767 11.189l-10.588-.471zM41.681 113.081c-2.08-.091-3.902-.17-5.416-.233l-1.85-.074c-1.174-.048-2.036-.085-2.548-.104a115.005 115.005 0 0 1-1.324-4.987c1.54-1.401 3.34-2.994 5.201-4.58a5.73 5.73 0 0 1 1.942 2.192 712.518 712.518 0 0 0 3.995 7.786" fill="#5B676E"/>
        <g transform="translate(44.193 94.148)">
            <mask id="J" fill="#fff">
                <use xlink:href="#H"/>
            </mask>
            <path d="M.5 5.64S3.83 1.97 7.142 1.375C10.93.696 65.743-1.59 78.744 5.641c13.003 7.228 2.23 5.932-.65 5.746C75.216 11.202-2.283 8.507.5 5.641" fill-opacity=".3" fill="url(#I)" mask="url(#J)"/>
        </g>
        <path d="M61.81 152.22c0 9.907-8.046 17.938-17.971 17.938s-17.97-8.03-17.97-17.937c0-9.907 8.045-17.939 17.97-17.939 9.925 0 17.97 8.032 17.97 17.939" fill="#495458"/>
        <g transform="translate(40.677 139.07)">
            <mask id="M" fill="#fff">
                <use xlink:href="#K"/>
            </mask>
            <path d="M.195.503C.193.503.193.505.193.505L.187.51l2.025 9.947c.076.374.44.618.815.545h.002a.685.685 0 0 1 .267 0c.377.073.74-.17.817-.545L6.138.51 6.132.505A13.207 13.207 0 0 0 .195.503" fill="url(#L)" mask="url(#M)"/>
        </g>
        <g transform="translate(40.677 153.811)">
            <mask id="P" fill="#fff">
                <use xlink:href="#N"/>
            </mask>
            <path d="M3.297.714h-.001a.685.685 0 0 1-.267 0h-.002a.695.695 0 0 0-.815.545L.357 10.374a.698.698 0 0 0 .563.826 13.092 13.092 0 0 0 4.484 0 .698.698 0 0 0 .564-.826L4.113 1.259A.697.697 0 0 0 3.431.7a.676.676 0 0 0-.134.013" fill="url(#O)" mask="url(#P)"/>
        </g>
        <g transform="translate(45.6 148.898)">
            <mask id="S" fill="#fff">
                <use xlink:href="#Q"/>
            </mask>
            <path d="M10.237.58 1.013 2.452a.695.695 0 0 0-.545.813v.006a.683.683 0 0 1 0 .262v.005a.694.694 0 0 0 .545.812l9.199 1.865a.7.7 0 0 0 .826-.56 13.058 13.058 0 0 0 .027-4.508.701.701 0 0 0-.69-.58.668.668 0 0 0-.138.013" fill="url(#R)" mask="url(#S)"/>
        </g>
        <g transform="translate(30.128 148.898)">
            <mask id="V" fill="#fff">
                <use xlink:href="#T"/>
            </mask>
            <path d="M.885 1.147a12.91 12.91 0 0 0-.182 2.177c0 .796.07 1.575.208 2.33.07.385.445.638.828.56l9.195-1.863a.696.696 0 0 0 .545-.815v-.001a.74.74 0 0 1 0-.267.697.697 0 0 0-.545-.817L1.713.581a.7.7 0 0 0-.828.566" fill="url(#U)" mask="url(#V)"/>
        </g>
        <g transform="translate(44.896 141.177)">
            <mask id="Y" fill="#fff">
                <use xlink:href="#W"/>
            </mask>
            <path d="M5.455.618.229 8.492a.696.696 0 0 0 .19.96l.006.006a.673.673 0 0 1 .187.184l.003.005a.7.7 0 0 0 .962.189L9.45 4.631a.699.699 0 0 0 .188-.981A13.094 13.094 0 0 0 6.44.433a.699.699 0 0 0-.986.185" fill="url(#X)" mask="url(#Y)"/>
        </g>
        <g transform="translate(32.941 153.11)">
            <mask id="ab" fill="#fff">
                <use xlink:href="#Z"/>
            </mask>
            <path d="M8.261.477.466 5.631a.696.696 0 0 0-.185.984 13.054 13.054 0 0 0 3.19 3.16.7.7 0 0 0 .982-.188L9.607 1.82A.693.693 0 0 0 9.415.86a.716.716 0 0 1-.19-.19.7.7 0 0 0-.964-.192" fill="url(#aa)" mask="url(#ab)"/>
        </g>
        <g transform="translate(44.896 153.11)">
            <mask id="ae" fill="#fff">
                <use xlink:href="#ac"/>
            </mask>
            <path d="M.615.666.613.671a.714.714 0 0 1-.188.187L.423.86a.694.694 0 0 0-.192.96l5.153 7.767a.701.701 0 0 0 .984.188 13.083 13.083 0 0 0 3.19-3.157.696.696 0 0 0-.185-.984L1.578.476a.7.7 0 0 0-.963.19" fill="url(#ad)" mask="url(#ae)"/>
        </g>
        <g transform="translate(32.941 141.177)">
            <mask id="ah" fill="#fff">
                <use xlink:href="#af"/>
            </mask>
            <path d="M3.397.433A13.04 13.04 0 0 0 .202 3.65a.698.698 0 0 0 .189.98l7.872 5.205c.319.21.748.125.962-.191h.001a.698.698 0 0 1 .187-.188l.004-.003a.695.695 0 0 0 .191-.96L4.384.617a.7.7 0 0 0-.585-.313c-.139 0-.28.042-.402.128" fill="url(#ag)" mask="url(#ah)"/>
        </g>
        <g>
            <path d="M46.75 152.22a2.909 2.909 0 0 1-2.911 2.906 2.909 2.909 0 0 1-2.911-2.905 2.908 2.908 0 0 1 2.91-2.906c1.608 0 2.912 1.301 2.912 2.906" fill="#AAABA9"/>
            <path d="M43.839 139.375c-7.096 0-12.869 5.763-12.869 12.846 0 7.082 5.773 12.845 12.869 12.845s12.87-5.763 12.87-12.845c0-7.083-5.774-12.846-12.87-12.846m0 25.968c-7.249 0-13.147-5.887-13.147-13.122 0-7.238 5.898-13.123 13.147-13.123 7.25 0 13.147 5.885 13.147 13.123 0 7.235-5.898 13.122-13.147 13.122" fill="#AAABA9"/>
            <path d="M186.946 152.22c0 9.907-8.046 17.938-17.97 17.938-9.925 0-17.971-8.03-17.971-17.937 0-9.907 8.046-17.939 17.97-17.939 9.925 0 17.97 8.032 17.97 17.939" fill="#495458"/>
        </g>
        <g transform="translate(165.848 139.07)">
            <mask id="ak" fill="#fff">
                <use xlink:href="#ai"/>
            </mask>
            <path d="M.16.503C.158.503.158.505.158.505A.066.066 0 0 1 .15.51l2.025 9.947c.076.374.44.618.817.545a.681.681 0 0 1 .267 0h.001c.377.073.741-.17.818-.545L6.102.51 6.097.505A13.2 13.2 0 0 0 .16.503" fill="url(#aj)" mask="url(#ak)"/>
        </g>
        <g transform="translate(165.848 153.811)">
            <mask id="an" fill="#fff">
                <use xlink:href="#al"/>
            </mask>
            <path d="M3.261.714a.685.685 0 0 1-.267 0h-.001a.697.697 0 0 0-.817.545L.32 10.374a.698.698 0 0 0 .563.826 13.115 13.115 0 0 0 4.486 0 .698.698 0 0 0 .562-.826L4.08 1.259A.698.698 0 0 0 3.396.7a.676.676 0 0 0-.135.013" fill="url(#am)" mask="url(#an)"/>
        </g>
        <g transform="translate(170.77 148.898)">
            <mask id="aq" fill="#fff">
                <use xlink:href="#ao"/>
            </mask>
            <path d="M10.202.58.977 2.452a.696.696 0 0 0-.545.813l.001.006a.683.683 0 0 1 0 .262l-.001.005a.695.695 0 0 0 .545.812l9.2 1.865a.702.702 0 0 0 .827-.56c.137-.756.209-1.535.209-2.331 0-.742-.063-1.47-.183-2.177a.7.7 0 0 0-.69-.58.668.668 0 0 0-.138.013" fill="url(#ap)" mask="url(#aq)"/>
        </g>
        <g transform="translate(155.3 148.898)">
            <mask id="at" fill="#fff">
                <use xlink:href="#ar"/>
            </mask>
            <path d="M.85 1.147C.73 1.854.666 2.582.666 3.324c0 .796.07 1.575.21 2.33a.7.7 0 0 0 .826.56l9.195-1.863a.696.696 0 0 0 .546-.815v-.001a.709.709 0 0 1 0-.267.697.697 0 0 0-.545-.817L1.678.581a.7.7 0 0 0-.828.566" fill="url(#as)" mask="url(#at)"/>
        </g>
        <g transform="translate(170.068 141.177)">
            <mask id="aw" fill="#fff">
                <use xlink:href="#au"/>
            </mask>
            <path d="M5.419.618.195 8.492a.695.695 0 0 0 .19.96l.005.006a.693.693 0 0 1 .187.184l.002.005a.7.7 0 0 0 .962.189l7.873-5.205a.698.698 0 0 0 .19-.981A13.109 13.109 0 0 0 6.405.433a.7.7 0 0 0-.987.185" fill="url(#av)" mask="url(#aw)"/>
        </g>
        <g transform="translate(158.113 153.11)">
            <mask id="az" fill="#fff">
                <use xlink:href="#ax"/>
            </mask>
            <path d="M8.226.477.431 5.631a.695.695 0 0 0-.184.984 13.04 13.04 0 0 0 3.189 3.16.7.7 0 0 0 .982-.188L9.571 1.82A.694.694 0 0 0 9.38.86a.719.719 0 0 1-.19-.19.696.696 0 0 0-.963-.192" fill="url(#ay)" mask="url(#az)"/>
        </g>
        <g transform="translate(170.068 153.11)">
            <mask id="aC" fill="#fff">
                <use xlink:href="#aA"/>
            </mask>
            <path d="M.58.666.577.671a.696.696 0 0 1-.189.187V.86a.694.694 0 0 0-.192.96L5.35 9.588a.7.7 0 0 0 .982.188 13.08 13.08 0 0 0 3.193-3.157.696.696 0 0 0-.186-.984L1.542.476a.698.698 0 0 0-.962.19" fill="url(#aB)" mask="url(#aC)"/>
        </g>
        <g transform="translate(158.113 141.177)">
            <mask id="aF" fill="#fff">
                <use xlink:href="#aD"/>
            </mask>
            <path d="M3.362.433A13.037 13.037 0 0 0 .167 3.65a.698.698 0 0 0 .189.98l7.872 5.205a.7.7 0 0 0 .962-.191h.001a.688.688 0 0 1 .187-.188l.004-.003a.694.694 0 0 0 .19-.96L4.348.617a.699.699 0 0 0-.584-.313c-.139 0-.28.042-.402.128" fill="url(#aE)" mask="url(#aF)"/>
        </g>
        <g fill="#AAABA9">
            <path d="M171.886 152.22a2.909 2.909 0 0 1-2.91 2.906 2.909 2.909 0 0 1-2.912-2.905 2.908 2.908 0 0 1 2.912-2.906c1.606 0 2.91 1.3 2.91 2.906"/>
            <path d="M168.975 139.375c-7.096 0-12.869 5.763-12.869 12.846 0 7.082 5.773 12.845 12.87 12.845 7.095 0 12.868-5.763 12.868-12.845 0-7.083-5.773-12.846-12.869-12.846m0 25.968c-7.25 0-13.147-5.887-13.147-13.122 0-7.238 5.898-13.123 13.147-13.123 7.25 0 13.147 5.885 13.147 13.123 0 7.235-5.897 13.122-13.147 13.122"/>
        </g>
        <g>
            <path d="M144.733 115.424c-1.522-.51-5.471-1.298-6.125-2.133-.654-.834-6.32-4.264-8.826-2.594-2.509 1.668-1.115 6.859 1.764 7.508s12.537-.697 12.537-.697 2.174-1.575.65-2.084z" fill="#00A3DA"/>
            <path d="M45.888 152.22a2.047 2.047 0 0 1-2.05 2.045 2.047 2.047 0 0 1-2.047-2.044 2.048 2.048 0 0 1 4.097 0M171.024 152.22a2.046 2.046 0 0 1-2.049 2.045 2.047 2.047 0 0 1-2.048-2.044c0-1.13.917-2.046 2.048-2.046 1.132 0 2.049.916 2.049 2.046" fill="#495458"/>
            <path d="M121.31 144.04c-.645 0-1.08-.305-1.08-1.1v-3.29h2.282v-.966c0-.318-.12-.451-.357-.451h-1.926v-1.724c0-.265-.171-.398-.514-.398-.461 0-.87.053-1.254.16V142.846c0 1.71.95 2.625 2.362 2.625 1.081 0 1.728-.504 1.728-.902 0-.239-.105-.557-.237-.716-.264.12-.66.186-1.003.186" fill="#00A3DA"/>
            <path d="M110.357 143.887c-.6 0-.837-.524-.925-1.051.17 1.88.938 2.598.938 2.598.974 0 1.696-.273 2.141-.816-.468-.548-.666-1.335-.666-2.258 0 .754-.6 1.527-1.488 1.527" fill="#3166A2"/>
            <path d="M109.432 142.836a8.263 8.263 0 0 1-.034-.762v-1.745h.001v-1.75c0-.269-.16-.404-.51-.404-.468 0-.885.054-1.274.162v.353l-.001.01v3.297c0 2.291.918 3.437 2.756 3.437 0 0-.767-.718-.938-2.598" fill="#00A3DA"/>
            <path d="M117.119 138.201c-.457 0-1.04.3-1.3.526.103.276.335 1.402.335 2.485 0 1.693-.74 2.675-1.566 2.675-.643 0-.965-.509-.965-1.799 0 2.51.979 3.346.979 3.346 1.265 0 2.203-.662 2.795-1.987.318-.742.477-1.374.477-2.358 0-.746-.068-1.612-.269-2.463-.07-.302-.176-.425-.486-.425" fill="#3166A2"/>
            <path d="M113.623 142.088v-3.387c-.018-.332-.247-.499-.69-.499h-.399c-.437 0-.668.167-.69.499v3.66c0 .921.2 1.71.667 2.257.44.514 1.116.816 2.09.816 0 0-.978-.836-.978-3.346M104.686 143.112c-.276.636-.91.98-1.517.98-.62 0-1.108-.305-1.108-.927 0-.623.502-.994 1.386-.994.383 0 .963.053 1.24.159v.782zm2.23.915c-.304 0-.475-.16-.475-.65v-2.453c0-1.896-1.095-2.85-3.034-2.85-1.425 0-2.52.623-2.52 1.086 0 .226.08.518.212.703.566-.278 1.2-.41 1.82-.41 1.227 0 1.767.49 1.767 1.339v.437c-.356-.185-1.015-.319-1.583-.319-1.687 0-2.796.863-2.796 2.308 0 1.312.976 2.254 2.414 2.254.91 0 1.662-.425 2.097-1.114.225.73.792 1.047 1.346 1.047.699 0 1.147-.424 1.147-.782 0-.225-.039-.41-.092-.596h-.304zM126.16 144.04c-.987 0-1.843-.835-1.843-2.343 0-1.495.777-2.184 1.738-2.184.988 0 1.83.834 1.83 2.343 0 1.495-.763 2.183-1.725 2.183m-.052-5.955c-1.896 0-3.555 1.323-3.555 3.692 0 2.37 1.659 3.692 3.555 3.692 1.896 0 3.554-1.323 3.554-3.692s-1.658-3.692-3.554-3.692" fill="#00A3DA"/>
        </g>
        <g transform="translate(139.35 113.785)">
            <mask id="aI" fill="#fff">
                <use xlink:href="#aG"/>
            </mask>
            <path d="M3.323 3.905c2.483-.28 3.015-.37 3.015-.37s.982-.783 1.144-1.688C7.645.943 0 0 0 0s.84 4.188 3.323 3.905" fill="url(#aH)" mask="url(#aI)"/>
        </g>
    </g>
</svg>
