<svg width="204" height="176" xmlns="http://www.w3.org/2000/svg" xmlns:xlink="http://www.w3.org/1999/xlink">
    <defs>
        <path d="M191.444 56.13H13.45a59.83 59.83 0 0 1-.888-.88 54.255 54.255 0 0 1-5.198-6.085 4.76 4.76 0 0 1-.177-.248c-1.734-2.406-3.188-4.886-4.32-7.406-1.071-2.382-1.861-4.804-2.327-7.23-1.102-5.652-.482-11.348 2.263-16.71v5.068h9.975V10.575h7.872v5.075h4.095l3.542-3.526h4.033V.42h11.27v17.363h11.52v4.182h4.468v-6.313h17.025v6.986h6.512v-9.615h9.933V27.37h.58V8.04h8.752v4.984h7.42v9.615h9.977V10.575h7.866v5.075h4.104l3.542-3.526h4.028V.42h11.268v17.363h11.527v4.182h4.467v-6.313h8.965v6.986l15.818.252-1.25-9.867h1.332V56.13z" id="a"/>
        <path d="M15.614.675v46.794H7.187c-1.734-2.406-3.188-4.887-4.32-7.406-1.071-2.382-1.861-4.804-2.327-7.23-1.102-5.652-.482-11.348 2.263-16.71 1.469-2.869 3.55-5.644 6.299-8.27" id="e"/>
        <path id="h" d="M.62 40.225V.61l16.154 3.61v36.004z"/>
        <path d="M28.772 3.851c3.237 0 5.862 2.094 5.862 4.676H17.676v.02H.307C.306 7.024 1.61 5.79 3.22 5.79c.38 0 .745.069 1.079.195.435-1.702 2.056-2.966 3.989-2.966 1.582 0 2.953.848 3.638 2.089a4.32 4.32 0 0 1 2.06-.517c.546 0 1.065.098 1.542.278.622-2.43 2.937-4.236 5.697-4.236 2.484 0 4.606 1.46 5.46 3.523" id="l"/>
        <path d="M189.26 24.343s-.487 11.88-41.494 5.695c-45.049-6.794-72.95 12.438-106.73 2.056-6.974-2.147-13.494-5.212-19.244-8.923a69.383 69.383 0 0 1-8.361-6.313 62.906 62.906 0 0 1-3.052-2.89A54.255 54.255 0 0 1 5.18 7.885a4.76 4.76 0 0 1-.177-.248C3.27 5.23 1.816 2.75.684.23H189.26" id="o"/>
        <path id="r" d="M.192.209h178.882v21.206H.192z"/>
        <path d="M176.164 6.514H8.695A69.383 69.383 0 0 1 .334.2h175.83v6.313z" id="t"/>
        <path id="w" d="M.088.642h184.08v2.122H.088z"/>
        <path id="y" d="M0 140.784h196.537V0H0z"/>
        <path d="M2.154 1.208C1.78 2.042.107 13.88.572 14.533c.465.654 2.471 0 2.471 0L5.595.468S5.492.465 5.321.465c-.76 0-2.864.062-3.167.743" id="z"/>
        <path d="M1.508 1.666c.941.236 6.103.568 6.103.568s.716-.19 1.92-1.664L.428.225s.14 1.205 1.08 1.441" id="B"/>
        <path d="M1.56 1.76c.942.236 6.104.568 6.104.568s.714-.19 1.92-1.666L.478.32s.14 1.204 1.082 1.44" id="E"/>
        <path d="M.164.322c1.445.005 144.854.654 186.09 13.961.005-.094.005-.19.005-.28C164.724 7.034 115.294 3.614 77.61 1.967 36.76.184.528.048.165.045v.277z" id="H"/>
        <path d="M.376.45c.23.032 23.418 3.408 51.356 11.245a9.215 9.215 0 0 0-.23-.38C23.55 3.472.645.205.416.172L.376.45z" id="K"/>
        <path d="M.501 5.633s3.334-3.667 6.65-4.26c3.795-.678 58.686-2.961 71.707 4.26 13.02 7.218 2.232 5.924-.652 5.738" id="N"/>
        <path d="M.195.502C.193.502.193.504.193.504L.187.51l2.028 9.933c.076.373.44.617.817.544h.001a.688.688 0 0 1 .268 0c.377.073.741-.17.818-.544L6.146.51 6.141.504A13.261 13.261 0 0 0 .195.502" id="Q"/>
        <path d="M3.301.713a.688.688 0 0 1-.268 0h-.001a.696.696 0 0 0-.817.544L.357 10.359a.697.697 0 0 0 .564.826 13.147 13.147 0 0 0 4.49 0h.001a.697.697 0 0 0 .565-.826L4.119 1.257A.698.698 0 0 0 3.436.7.678.678 0 0 0 3.3.713" id="T"/>
        <path d="M10.252.58 1.015 2.45a.694.694 0 0 0-.547.81l.001.006a.68.68 0 0 1 0 .262v.005a.693.693 0 0 0 .546.81l9.212 1.863a.7.7 0 0 0 .827-.56 13.004 13.004 0 0 0 .027-4.501.702.702 0 0 0-.69-.58.67.67 0 0 0-.139.015" id="W"/>
        <path d="M.887 1.145A12.856 12.856 0 0 0 .704 3.32c0 .795.07 1.573.209 2.328.07.384.445.636.829.56l9.208-1.862a.695.695 0 0 0 .546-.814V3.53a.736.736 0 0 1 0-.266v-.001a.696.696 0 0 0-.546-.815L1.715.58a.7.7 0 0 0-.829.566" id="Z"/>
        <path d="M5.463.617.23 8.48a.694.694 0 0 0 .19.959l.006.005a.673.673 0 0 1 .187.183l.002.006a.703.703 0 0 0 .964.188l7.884-5.198a.697.697 0 0 0 .188-.98A13.094 13.094 0 0 0 6.45.433a.7.7 0 0 0-.987.184" id="ac"/>
        <path d="M8.273.477.467 5.623a.694.694 0 0 0-.185.983A13.055 13.055 0 0 0 3.476 9.76a.703.703 0 0 0 .984-.187l5.16-7.756a.691.691 0 0 0-.192-.96.716.716 0 0 1-.19-.19.703.703 0 0 0-.965-.192" id="af"/>
        <path d="M.615.665V.67a.714.714 0 0 1-.19.187L.424.86a.692.692 0 0 0-.193.96l5.161 7.755a.703.703 0 0 0 .985.187A13.084 13.084 0 0 0 9.572 6.61a.694.694 0 0 0-.185-.983L1.58.476a.702.702 0 0 0-.965.19" id="ai"/>
        <path d="M3.402.432a13.04 13.04 0 0 0-3.2 3.213.696.696 0 0 0 .19.98l7.883 5.197c.32.21.749.124.964-.192a.698.698 0 0 1 .188-.187l.004-.003a.693.693 0 0 0 .19-.96L4.392.618a.701.701 0 0 0-.586-.312c-.14 0-.28.041-.403.127" id="al"/>
        <path d="M.16.502C.158.502.158.504.158.504A.066.066 0 0 1 .15.51l2.028 9.933a.7.7 0 0 0 .818.544.684.684 0 0 1 .268 0h.001a.7.7 0 0 0 .819-.544L6.11.51 6.106.504A13.255 13.255 0 0 0 .16.502" id="ao"/>
        <path d="M3.266.713a.688.688 0 0 1-.268 0 .698.698 0 0 0-.82.544L.323 10.359a.697.697 0 0 0 .563.826 13.17 13.17 0 0 0 4.492 0 .697.697 0 0 0 .564-.826L4.085 1.257A.699.699 0 0 0 3.4.7a.678.678 0 0 0-.135.013" id="ar"/>
        <path d="M10.217.58.979 2.45a.695.695 0 0 0-.547.81l.002.006a.68.68 0 0 1 0 .262l-.002.005a.694.694 0 0 0 .547.81l9.212 1.863a.703.703 0 0 0 .829-.56 13 13 0 0 0 .209-2.327c0-.74-.063-1.468-.183-2.174a.7.7 0 0 0-.69-.58.67.67 0 0 0-.14.015" id="au"/>
        <path d="M.85 1.145A12.93 12.93 0 0 0 .669 3.32c0 .795.07 1.573.21 2.328.07.384.444.636.828.56l9.208-1.862a.695.695 0 0 0 .547-.814V3.53a.706.706 0 0 1 0-.266v-.001a.696.696 0 0 0-.546-.815L1.68.58a.7.7 0 0 0-.83.566" id="ax"/>
        <path d="M5.427.617.195 8.48a.693.693 0 0 0 .19.959l.006.005a.693.693 0 0 1 .186.183l.003.006a.702.702 0 0 0 .963.188l7.884-5.198a.696.696 0 0 0 .19-.98A13.109 13.109 0 0 0 6.415.433a.701.701 0 0 0-.988.184" id="aA"/>
        <path d="M8.238.477.432 5.623a.693.693 0 0 0-.185.983A13.04 13.04 0 0 0 3.441 9.76a.703.703 0 0 0 .984-.187l5.16-7.756a.692.692 0 0 0-.192-.96.72.72 0 0 1-.19-.19.699.699 0 0 0-.965-.192" id="aD"/>
        <path d="M.581.665.578.67a.696.696 0 0 1-.19.187V.86a.692.692 0 0 0-.192.96l5.161 7.755a.702.702 0 0 0 .983.187A13.08 13.08 0 0 0 9.537 6.61a.694.694 0 0 0-.186-.983L1.544.476a.7.7 0 0 0-.963.19" id="aG"/>
        <path d="M3.367.432a13.037 13.037 0 0 0-3.2 3.213.696.696 0 0 0 .19.98l7.882 5.197c.319.21.75.124.965-.192a.688.688 0 0 1 .188-.187l.004-.003a.692.692 0 0 0 .19-.96L4.354.618A.7.7 0 0 0 3.77.305c-.14 0-.28.041-.403.127" id="aJ"/>
        <path d="M3.552 4.584c2.487-.28 3.02-.37 3.02-.37s.983-.782 1.146-1.685C7.88 1.626.225.684.225.684s.84 4.183 3.327 3.9" id="aM"/>
        <path id="aP" d="M.574.686H16.07v24.618H.574z"/>
        <path d="M62.726 20.187H4.829C2.173 20.187 0 18.024 0 15.381V5.59C0 2.947 2.173.784 4.83.784h57.896c2.656 0 4.829 2.163 4.829 4.807v9.79c0 2.643-2.173 4.806-4.83 4.806" id="aS"/>
        <path id="aT" d="M0 20.364h67.554V.96H0z"/>
        <path d="M62.726 19.486H4.829C2.173 19.486 0 17.323 0 14.68V4.89C0 2.246 2.173.083 4.83.083h57.896c2.656 0 4.829 2.163 4.829 4.807v9.79c0 2.643-2.173 4.806-4.83 4.806" id="aW"/>
        <path id="aX" d="M0 19.663h67.554V.26H0z"/>
        <path d="M24.853 15.244c0 .014-.021.132-.07.348a12.47 12.47 0 0 1-.825 2.413c-1.348 3.171-4.31 8.074-10.788 13.422a.283.283 0 0 1-.174.063.297.297 0 0 1-.175-.063C6.344 26.072 3.375 21.17 2.02 17.977a11.941 11.941 0 0 1-.817-2.392c-.042-.181-.063-.292-.07-.327 0-.014-.007-.028-.007-.042a12.192 12.192 0 0 1-.161-3.456C1.544 5.786 6.526 1.12 12.563.91c6.854-.236 12.513 5.244 12.513 12.025 0 .765-.076 1.53-.223 2.309z" id="ba"/>
        <path d="M20.63 13.364c.35.347.87 1.458.87 3.087 0 1.516-.545 2.234-.877 2.584v.687c0 .615-.468 1.078-1.09 1.078h-.795c-.539 0-1.096-.408-1.096-1.092v-.261h-6.576v.261c0 .684-.557 1.092-1.096 1.092h-.796c-.621 0-1.089-.463-1.089-1.078v-.687c-.332-.35-.876-1.068-.876-2.584 0-1.63.52-2.74.87-3.087l.642.637c-.1.098-.605.923-.605 2.45 0 1.341.473 1.812.728 2.066l.148.147v1.058c0 .049 0 .175.182.175h.796c.002 0 .19-.006.19-.189v-1.163h8.389v1.163c0 .183.187.189.189.189h.796c.156 0 .178-.093.182-.15v-1.083l.148-.147c.254-.253.728-.725.728-2.066 0-1.526-.505-2.352-.605-2.45l.642-.637zm-2.683.607c.785 0 1.425.636 1.425 1.418 0 .782-.64 1.419-1.425 1.419a1.424 1.424 0 0 1-1.426-1.419c0-.782.64-1.418 1.426-1.418zm-7.185 0c.787 0 1.425.636 1.425 1.418 0 .782-.638 1.419-1.425 1.419a1.424 1.424 0 0 1-1.426-1.419c0-.782.64-1.418 1.426-1.418zm7.185.722c-.387 0-.7.312-.7.696a.699.699 0 0 0 1.399 0 .699.699 0 0 0-.7-.696zm-7.185 0a.7.7 0 0 0-.7.696.7.7 0 0 0 1.4 0 .699.699 0 0 0-.7-.696zm6.459-6.282c1 0 1.719.721 2.031 1.34.039.074.164.344.8 1.775.212-.174.497-.369.834-.369h.342a.79.79 0 0 1 .79.787v.662c0 .4-.27.815-.724.815h-.488v-.904h.304l.001-.456h-.225c-.083.008-.284.18-.37.254-.164.142-.307.264-.518.264-.3 0-.547-.17-.677-.468-.658-1.48-.84-1.88-.878-1.955-.197-.388-.635-.841-1.222-.841h-5.734c-.588 0-1.024.453-1.22.84-.055.108-.384.84-.88 1.956-.13.296-.377.468-.677.468-.211 0-.354-.122-.519-.264-.086-.074-.286-.246-.37-.254h-.224v.456h.305v.904h-.487c-.454 0-.725-.414-.725-.815v-.662c0-.435.354-.787.79-.787h.343c.336 0 .62.195.833.369.344-.776.727-1.63.8-1.776.312-.618 1.031-1.339 2.031-1.339h5.734z" id="bb"/>
        <linearGradient x1="50%" y1="-1.853%" x2="50%" y2="62.16%" id="b">
            <stop stop-color="#3AD3E9" offset="0%"/>
            <stop stop-color="#838789" offset="100%"/>
        </linearGradient>
        <linearGradient x1="49.999%" y1="100.122%" x2="49.999%" y2="-14.879%" id="d">
            <stop stop-color="#D3C77C" offset=".699%"/>
            <stop stop-color="#529498" offset="100%"/>
        </linearGradient>
        <linearGradient x1="50%" y1="75.938%" x2="50%" y2="-20.162%" id="f">
            <stop stop-color="#A5C0B0" offset="0%"/>
            <stop stop-color="#986752" offset="100%"/>
        </linearGradient>
        <linearGradient x1="49.999%" y1="67.595%" x2="49.999%" y2="-61.54%" id="i">
            <stop stop-color="#D3C77C" offset="0%"/>
            <stop stop-color="#78D4EB" offset="100%"/>
        </linearGradient>
        <linearGradient x1="49.999%" y1="51.829%" x2="49.999%" y2="-80.168%" id="k">
            <stop stop-color="#D3C77C" offset="0%"/>
            <stop stop-color="#986752" offset="100%"/>
        </linearGradient>
        <linearGradient x1=".001%" y1="49.998%" x2="100%" y2="49.998%" id="m">
            <stop stop-color="#ABD7DE" offset="0%"/>
            <stop stop-color="#F4F4F5" offset="100%"/>
        </linearGradient>
        <linearGradient x1="50%" y1="69.399%" x2="50%" y2="-19.707%" id="p">
            <stop stop-color="#B3BE77" offset="0%"/>
            <stop stop-color="#6BA056" offset="100%"/>
        </linearGradient>
        <linearGradient x1="50%" y1="62.517%" x2="50%" y2="-57.287%" id="u">
            <stop stop-color="#F2DBB7" offset="0%"/>
            <stop stop-color="#EDBF77" offset="100%"/>
        </linearGradient>
        <linearGradient x1=".003%" y1="49.995%" x2="99.993%" y2="49.995%" id="C">
            <stop stop-color="#A5A6A5" offset="0%"/>
            <stop stop-color="#929592" offset="100%"/>
        </linearGradient>
        <linearGradient x1=".001%" y1="50%" x2="99.999%" y2="50%" id="F">
            <stop stop-color="#A5A6A5" offset="0%"/>
            <stop stop-color="#929592" offset="100%"/>
        </linearGradient>
        <linearGradient x1="50.09%" y1="50.364%" x2="49.91%" y2="49.636%" id="I">
            <stop stop-color="#A5A6A5" offset="0%"/>
            <stop stop-color="#E6E2D8" offset="100%"/>
        </linearGradient>
        <linearGradient x1="50.226%" y1="52.727%" x2="49.765%" y2="47.273%" id="L">
            <stop stop-color="#A5A6A5" offset="0%"/>
            <stop stop-color="#E6E2D8" offset="100%"/>
        </linearGradient>
        <linearGradient x1="118.449%" y1="63.999%" x2="17.429%" y2="43.801%" id="O">
            <stop stop-color="#FCF9ED" offset="0%"/>
            <stop stop-color="#E6E2D8" offset="100%"/>
        </linearGradient>
        <linearGradient x1="49.996%" y1="-17.649%" x2="49.996%" y2="113.248%" id="R">
            <stop stop-color="#FCF9ED" offset="0%"/>
            <stop stop-color="#ABACA9" offset="100%"/>
        </linearGradient>
        <linearGradient x1="50.001%" y1="-158.075%" x2="50.001%" y2="-25.298%" id="U">
            <stop stop-color="#FCF9ED" offset="0%"/>
            <stop stop-color="#ABACA9" offset="100%"/>
        </linearGradient>
        <linearGradient x1="50.001%" y1="-203.706%" x2="50.001%" y2="39.217%" id="X">
            <stop stop-color="#FCF9ED" offset="0%"/>
            <stop stop-color="#ABACA9" offset="100%"/>
        </linearGradient>
        <linearGradient x1="50.001%" y1="-203.706%" x2="50.001%" y2="39.217%" id="aa">
            <stop stop-color="#FCF9ED" offset="0%"/>
            <stop stop-color="#ABACA9" offset="100%"/>
        </linearGradient>
        <linearGradient x1="49.997%" y1="-38.41%" x2="49.997%" y2="102.607%" id="ad">
            <stop stop-color="#FCF9ED" offset="0%"/>
            <stop stop-color="#ABACA9" offset="100%"/>
        </linearGradient>
        <linearGradient x1="50%" y1="-157.926%" x2="50%" y2="-15.368%" id="ag">
            <stop stop-color="#FCF9ED" offset="0%"/>
            <stop stop-color="#ABACA9" offset="100%"/>
        </linearGradient>
        <linearGradient x1="50.001%" y1="-157.927%" x2="50.001%" y2="-15.368%" id="aj">
            <stop stop-color="#FCF9ED" offset="0%"/>
            <stop stop-color="#ABACA9" offset="100%"/>
        </linearGradient>
        <linearGradient x1="49.999%" y1="-38.41%" x2="49.999%" y2="102.607%" id="am">
            <stop stop-color="#FCF9ED" offset="0%"/>
            <stop stop-color="#ABACA9" offset="100%"/>
        </linearGradient>
        <linearGradient x1="50.006%" y1="-17.649%" x2="50.006%" y2="113.248%" id="ap">
            <stop stop-color="#FCF9ED" offset="0%"/>
            <stop stop-color="#ABACA9" offset="100%"/>
        </linearGradient>
        <linearGradient x1="50.001%" y1="-158.075%" x2="50.001%" y2="-25.298%" id="as">
            <stop stop-color="#FCF9ED" offset="0%"/>
            <stop stop-color="#ABACA9" offset="100%"/>
        </linearGradient>
        <linearGradient x1="50.002%" y1="-203.706%" x2="50.002%" y2="39.217%" id="av">
            <stop stop-color="#FCF9ED" offset="0%"/>
            <stop stop-color="#ABACA9" offset="100%"/>
        </linearGradient>
        <linearGradient x1="50.001%" y1="-203.706%" x2="50.001%" y2="39.217%" id="ay">
            <stop stop-color="#FCF9ED" offset="0%"/>
            <stop stop-color="#ABACA9" offset="100%"/>
        </linearGradient>
        <linearGradient x1="49.999%" y1="-38.41%" x2="49.999%" y2="102.607%" id="aB">
            <stop stop-color="#FCF9ED" offset="0%"/>
            <stop stop-color="#ABACA9" offset="100%"/>
        </linearGradient>
        <linearGradient x1="50.001%" y1="-157.926%" x2="50.001%" y2="-15.368%" id="aE">
            <stop stop-color="#FCF9ED" offset="0%"/>
            <stop stop-color="#ABACA9" offset="100%"/>
        </linearGradient>
        <linearGradient x1="50.001%" y1="-157.927%" x2="50.001%" y2="-15.368%" id="aH">
            <stop stop-color="#FCF9ED" offset="0%"/>
            <stop stop-color="#ABACA9" offset="100%"/>
        </linearGradient>
        <linearGradient x1="50%" y1="-38.41%" x2="50%" y2="102.607%" id="aK">
            <stop stop-color="#FCF9ED" offset="0%"/>
            <stop stop-color="#ABACA9" offset="100%"/>
        </linearGradient>
        <linearGradient x1="78.739%" y1="67.405%" x2="12.354%" y2="19.039%" id="aN">
            <stop stop-color="#A5A6A5" offset="0%"/>
            <stop stop-color="#E6E2D8" offset="100%"/>
        </linearGradient>
        <filter x="-9.6%" y="-28.3%" width="119.2%" height="167%" filterUnits="objectBoundingBox" id="aR">
            <feOffset dy="1" in="SourceAlpha" result="shadowOffsetOuter1"/>
            <feGaussianBlur stdDeviation="2" in="shadowOffsetOuter1" result="shadowBlurOuter1"/>
            <feColorMatrix values="0 0 0 0 0 0 0 0 0 0 0 0 0 0 0 0 0 0 0.15 0" in="shadowBlurOuter1"/>
        </filter>
        <filter x="-9.6%" y="-28.3%" width="119.2%" height="167%" filterUnits="objectBoundingBox" id="aV">
            <feOffset dy="1" in="SourceAlpha" result="shadowOffsetOuter1"/>
            <feGaussianBlur stdDeviation="2" in="shadowOffsetOuter1" result="shadowBlurOuter1"/>
            <feColorMatrix values="0 0 0 0 0 0 0 0 0 0 0 0 0 0 0 0 0 0 0.15 0" in="shadowBlurOuter1"/>
        </filter>
        <filter x="-51.9%" y="-42.2%" width="203.9%" height="184.3%" filterUnits="objectBoundingBox" id="aZ">
            <feOffset in="SourceAlpha" result="shadowOffsetOuter1"/>
            <feGaussianBlur stdDeviation="3.5" in="shadowOffsetOuter1" result="shadowBlurOuter1"/>
            <feColorMatrix values="0 0 0 0 0 0 0 0 0 0 0 0 0 0 0 0 0 0 0.15 0" in="shadowBlurOuter1" result="shadowMatrixOuter1"/>
            <feMerge>
                <feMergeNode in="shadowMatrixOuter1"/>
                <feMergeNode in="SourceGraphic"/>
            </feMerge>
        </filter>
    </defs>
    <g fill="none" fill-rule="evenodd">
        <g opacity=".698">
            <g transform="translate(7.093 60.947)">
                <mask id="c" fill="#fff">
                    <use xlink:href="#a"/>
                </mask>
                <path d="M191.444 56.13H13.45a59.83 59.83 0 0 1-.888-.88 54.255 54.255 0 0 1-5.198-6.085 4.76 4.76 0 0 1-.177-.248c-1.734-2.406-3.188-4.886-4.32-7.406-1.071-2.382-1.861-4.804-2.327-7.23-1.102-5.652-.482-11.348 2.263-16.71v5.068h9.975V10.575h7.872v5.075h4.095l3.542-3.526h4.033V.42h11.27v17.363h11.52v4.182h4.468v-6.313h17.025v6.986h6.512v-9.615h9.933V27.37h.58V8.04h8.752v4.984h7.42v9.615h9.977V10.575h7.866v5.075h4.104l3.542-3.526h4.028V.42h11.268v17.363h11.527v4.182h4.467v-6.313h8.965v6.986l15.818.252.082 33.24z" fill-opacity=".2" fill="url(#b)" mask="url(#c)"/>
            </g>
            <path fill="url(#d)" d="M144.343 107.862h35.346V54.511h-35.346z" transform="translate(2 2)"/>
            <g transform="translate(7.093 62.395)">
                <mask id="g" fill="#fff">
                    <use xlink:href="#e"/>
                </mask>
                <path d="M15.614.675v46.794H7.187c-1.734-2.406-3.188-4.887-4.32-7.406-1.071-2.382-1.861-4.804-2.327-7.23-1.102-5.652-.482-11.348 2.263-16.71 1.469-2.869 3.55-5.644 6.299-8.27 2.563-2.445 4.7-4.84 6.512-7.178" fill="url(#f)" mask="url(#g)"/>
            </g>
            <g transform="translate(26.011 69.638)">
                <mask id="j" fill="#fff">
                    <use xlink:href="#h"/>
                </mask>
                <path fill="url(#i)" mask="url(#j)" d="M.62 40.225h16.154V4.22L.621.611z"/>
            </g>
            <path fill="url(#k)" d="M119.608 107.862h21.84V74.897h-21.84z" transform="translate(2 2)"/>
            <path d="M63.19 47.748c-.498 0-.975.074-1.414.207-.579-1.397-2.017-2.387-3.699-2.387a4.08 4.08 0 0 0-2.713 1.014c-1.11-.646-2.475-1.027-3.953-1.027-.843 0-1.649.124-2.392.35-.98-2.365-3.413-4.04-6.26-4.04-3.165 0-5.82 2.07-6.533 4.856a5.023 5.023 0 0 0-1.766-.318c-2.635 0-4.771 2.02-4.771 4.513H67.16c0-1.749-1.778-3.168-3.97-3.168" fill="#D1E2E7"/>
            <g transform="translate(124.967 52.256)">
                <mask id="n" fill="#fff">
                    <use xlink:href="#l"/>
                </mask>
                <path d="M28.772 3.851a7.18 7.18 0 0 0-2.087.305C25.831 2.094 23.71.633 21.225.633c-2.76 0-5.075 1.805-5.697 4.236a4.362 4.362 0 0 0-1.541-.278 4.32 4.32 0 0 0-2.06.517c-.686-1.241-2.057-2.09-3.64-2.09-1.932 0-3.553 1.265-3.988 2.967a3.054 3.054 0 0 0-1.08-.195C1.61 5.79.307 7.024.307 8.547h17.371l-.001-.02h16.958c0-2.582-2.625-4.676-5.862-4.676" fill="url(#m)" mask="url(#n)"/>
            </g>
            <g transform="translate(9.276 102.228)">
                <mask id="q" fill="#fff">
                    <use xlink:href="#o"/>
                </mask>
                <path d="M147.766 30.038c-45.049-6.794-72.95 12.438-106.73 2.056-6.974-2.147-13.494-5.212-19.244-8.923a69.383 69.383 0 0 1-8.361-6.313 62.906 62.906 0 0 1-3.052-2.89A54.255 54.255 0 0 1 5.18 7.885a4.76 4.76 0 0 1-.177-.248C3.27 5.23 1.816 2.75.684.23H189.26v24.113s-.488 11.88-41.495 5.695" fill="url(#p)" mask="url(#q)"/>
            </g>
            <g transform="translate(19.463 115.988)">
                <mask id="s" fill="#fff">
                    <use xlink:href="#r"/>
                </mask>
                <path d="M137.58 16.278C92.62 8.917 64.627 28.716 30.85 18.334c-6.974-2.147-13.494-5.212-19.244-8.923a69.326 69.326 0 0 1-8.361-6.313A62.208 62.208 0 0 1 .192.208h178.882v10.374s-.52 12.405-41.495 5.696" fill="#A5B170" mask="url(#s)"/>
            </g>
            <g transform="translate(22.373 118.885)">
                <mask id="v" fill="#fff">
                    <use xlink:href="#t"/>
                </mask>
                <path d="M176.164.2v6.314H8.695A69.383 69.383 0 0 1 .334.2h175.83z" fill="url(#u)" mask="url(#v)"/>
            </g>
            <g transform="translate(14.37 109.47)">
                <mask id="x" fill="#fff">
                    <use xlink:href="#w"/>
                </mask>
                <path d="M184.168.642v2.122H1.727A47.35 47.35 0 0 1 .088.642h184.08z" fill="#B9C57B" mask="url(#x)"/>
            </g>
            <path d="M35.42 102.458H9.96c-1.07-2.382-1.86-4.804-2.326-7.229 3.791 2.008 2.267 4.458 2.188 4.58.166-.087 4.111-2.186 7.105.003 0 0 2.377-4.748 5.781-2.92.257.138.522.31.79.53 0 0 1.6-.852 3.136-.81 1.189.028 2.338.594 2.674 2.504 0 0 3.972-2.099 4.739 1.596 0 0 1.374.66 1.374 1.746M105.764 102.46s-.696-3.452 2.517-2.898c0 0 1.018-4 4.66-2.508 3.643 1.494 2.25 3.55 2.25 3.55s2.839-1.568 4.981 0c0 0 1.928-3.851 4.607-1.674 0 0 3.535-1.882 4.07 1.187 0 0 2.786-1.472 3.321 1.118 0 0 .965.462.965 1.224h-27.371z" fill="#678C50"/>
            <path d="M100.167 102.46s-.434-2.15 1.567-1.804c0 0 .634-2.491 2.902-1.562 2.267.93 1.4 2.21 1.4 2.21s1.768-.976 3.101 0c0 0 1.201-2.397 2.869-1.042 0 0 2.2-1.172 2.534.739 0 0 1.735-.917 2.068.696 0 0 .6.288.6.762h-17.041zM120.676 102.46s-.867-4.298 3.135-3.608c0 0 1.267-4.981 5.802-3.123 4.536 1.859 2.802 4.42 2.802 4.42s3.535-1.953 6.202 0c0 0 2.402-4.795 5.737-2.085 0 0 4.402-2.344 5.068 1.478 0 0 3.469-1.832 4.136 1.393 0 0 1.2.575 1.2 1.524h-34.082z" fill="#678C50"/>
            <path d="M139.614 102.46s-.697-3.452 2.517-2.898c0 0 1.018-4 4.66-2.508 3.643 1.494 2.25 3.55 2.25 3.55s2.839-1.568 4.981 0c0 0 1.928-3.851 4.607-1.674 0 0 3.535-1.882 4.07 1.187 0 0 2.786-1.472 3.321 1.118 0 0 .964.462.964 1.224h-27.37z" fill="#678C50"/>
            <path d="M147.673 102.46s-.697-3.452 2.517-2.898c0 0 1.017-4 4.66-2.508 3.642 1.494 2.25 3.55 2.25 3.55s2.839-1.568 4.98 0c0 0 1.929-3.851 4.607-1.674 0 0 3.536-1.882 4.071 1.187 0 0 2.786-1.472 3.32 1.118 0 0 .965.462.965 1.224h-27.37z" fill="#678C50"/>
            <path d="M169.47 102.46s-.349-1.727 1.258-1.45c0 0 .509-2 2.33-1.253 1.821.746 1.125 1.774 1.125 1.774s1.42-.783 2.49 0c0 0 .965-1.925 2.304-.837 0 0 1.767-.94 2.035.594 0 0 1.392-.736 1.66.56 0 0 .483.23.483.611H169.47z" fill="#678C50"/>
        </g>
        <path fill="#BDBDBD" d="M2 170.453h199.288V174H2z"/>
        <path d="M8.668 120.516s-4.343 2.448-4.202 3.49c.138 1.043.91 4.152 1.432 4.783.52.633 6.45-.894 7.565-2.7 1.116-1.805 4.813-7.638.629-7.012-4.186.625-5.424 1.439-5.424 1.439" fill="#BD505B"/>
        <path d="M199.53 148.76c-.185.425-.252.716-.246.926.011.515.433.573.63 1.016.28.623-1.302 4.479-1.766 4.755-.396.236-6.95.806-8.925.972l-.561.048s-1.538.02-4.31.052c-5.72.066-16.703.194-30.337.349-1.53.018-3.096.037-4.69.053a66626.557 66626.557 0 0 1-92.489 1c-17.729.17-30.323.267-31.493.211a40.028 40.028 0 0 1-1.012-.056c-4.598-.303-12.705-1.253-13.867-1.704-1.256-.485-3.28-5.784-3.139-6.48.139-.693.487-.97.487-.97-3.068-9.444-3.347-18.677-3.347-18.677.21-1.667 5.79-3.125 7.115-4.027 1.325-.903 2.372-5.485 2.302-5.763-.07-.277-4.116.348-4.674.348-.558 0-1.255-1.18-1.325-1.945-.07-.764 23.508-23.49 24.344-24.138.837-.648 17.02-4.258 35.248-5.554 18.231-1.296 46.045 2.826 52.455 5.276 11.626 4.443 28.18 17.773 28.18 17.773 29.949 6.666 47.201 11.434 48.178 12.267.572.486 1.157 1.211 1.58 1.886.085.13.16.258.23.38.184.337.318.642.374.881.187.789-15.53-3.147-16.646-3.147-1.116 0 .65 2.547 1.395 3.423.743.882 17.065 4.26 18.136 6.2.2.366.285 1.06.282 1.96 0 .092 0 .187-.005.28-.079 3.95-1.605 11.247-2.105 12.404" fill="#FFFFFE"/>
        <path d="M199.53 148.76c-.185.425-.252.716-.246.926.011.515.433.573.63 1.016.28.623-1.302 4.479-1.766 4.755-.396.236-6.95.806-8.925.972l-.561.048s-1.538.02-4.31.052c-5.72.066-16.703.194-30.337.349-1.53.018-3.096.037-4.69.053a66626.557 66626.557 0 0 1-92.489 1c-17.729.17-30.323.267-31.493.211a40.028 40.028 0 0 1-1.012-.056c-4.598-.303-12.705-1.253-13.867-1.704-1.256-.485-3.28-5.784-3.139-6.48.139-.693.487-.97.487-.97-3.068-9.444-3.347-18.677-3.347-18.677.21-1.667 5.79-3.125 7.115-4.027 1.325-.903 2.372-5.485 2.302-5.763-.07-.277-4.116.348-4.674.348-.558 0-1.255-1.18-1.325-1.945-.07-.764 23.508-23.49 24.344-24.138.837-.648 17.02-4.258 35.248-5.554 18.231-1.296 46.045 2.826 52.455 5.276 11.626 4.443 28.18 17.773 28.18 17.773 29.949 6.666 47.201 11.434 48.178 12.267.572.486 1.157 1.211 1.58 1.886.085.13.16.258.23.38.184.337.318.642.374.881.187.789-15.53-3.147-16.646-3.147-1.116 0 .65 2.547 1.395 3.423.743.882 17.065 4.26 18.136 6.2.2.366.285 1.06.282 1.96 0 .092 0 .187-.005.28-.079 3.95-1.605 11.247-2.105 12.404z" stroke="#CDD0D0"/>
        <path d="M197.78 127.722s2.025 2.226 2.29 5.492c0 0-16.618-3.584-17.78-5.206-1.162-1.617-3.209-4.229-.79-4.475 2.418-.245 16.28 4.19 16.28 4.19" fill="#EAEBEA"/>
        <path d="M32.646 94.73s-15.026 1.157-16.099 2.198c-1.074 1.043-.358 1.667 0 1.875.357.21 8.436 3.048 8.436 3.048l7.663-7.121z" fill="#00A3DA"/>
        <g transform="translate(191.437 137.494)">
            <mask id="A" fill="#fff">
                <use xlink:href="#z"/>
            </mask>
            <path d="M2.154 1.208C1.78 2.042.107 13.88.572 14.533c.465.654 2.471 0 2.471 0L5.595.468S5.492.465 5.321.465c-.76 0-2.864.062-3.167.743" mask="url(#A)"/>
        </g>
        <g transform="translate(84.394 118.568)">
            <mask id="D" fill="#fff">
                <use xlink:href="#B"/>
            </mask>
            <path d="M1.508 1.666c.941.236 6.103.568 6.103.568s.716-.19 1.92-1.664L.428.225s.14 1.205 1.08 1.441" fill="url(#C)" mask="url(#D)"/>
        </g>
        <g transform="translate(35.099 116.465)">
            <mask id="G" fill="#fff">
                <use xlink:href="#E"/>
            </mask>
            <path d="M1.56 1.76c.942.236 6.104.568 6.104.568s.714-.19 1.92-1.666L.478.32s.14 1.204 1.082 1.44" fill="url(#F)" mask="url(#G)"/>
        </g>
        <path d="M146.762 115.374s3.116 2.362 2.837 3.44c-.28 1.076-.465 1.411-.465 1.411s-.186.576-6.046.576c-5.859 0-113.093-3.894-114.908-4.598-1.811-.703-2.277-4.06-2.277-4.06l120.86 3.231z" fill="#F7F7F7"/>
        <path d="M198.148 155.457c-.466.278-9.486 1.02-9.486 1.02s-1.538.02-4.311.052l.729-2.83s5.859.508 8.417.23c2.559-.277 2.743-2.174 3.209-3.146.466-.972 2.578-1.096 2.578-1.096.011.514.432.572.631 1.015.279.623-1.304 4.479-1.767 4.755M64.387 152.028c0 2.027-.3 3.986-.855 5.837l-6.696.066c-17.728.17-30.323.267-31.492.211a40.029 40.029 0 0 1-1.013-.056 20.297 20.297 0 0 1-.918-6.058c0-11.265 9.172-20.393 20.485-20.393 11.318 0 20.489 9.128 20.489 20.393" fill="#67727C"/>
        <path d="M189.702 152.028c0 1.51-.164 2.985-.48 4.401l-.56.048s-1.538.02-4.311.052c-5.72.066-16.702.194-30.337.349-1.53.018-3.095.037-4.688.053a20.354 20.354 0 0 1-.597-4.903c0-11.265 9.172-20.393 20.488-20.393 11.314 0 20.485 9.128 20.485 20.393M27.189 158.686s-17.654-1.1-18.214-1.932c-.557-.835-3.852-6.376-1.321-8.326 2.531-1.951 12.098-2.108 19.266-7.815l.269 18.073z" fill="#67727C"/>
        <path d="M148.73 152.028s.125 2.574-2.944 2.168c-3.07-.406-82.867-1.879-82.867-1.879l-1.023 5.565 90.052-.795-3.219-5.059zM146.762 115.374c.292 2.598-6.493 1.899-8.425 1.818-8.34-.354-27.383-1.199-47.124-2.071l-.022-.002c-.023 0-40.046-1.77-49.452-2.177-.232-.01-15.794-.573-15.838-.8-.1-.519 9.488-8.82 9.891-9.165a145.972 145.972 0 0 1 4.948-4.037c3.275-2.557 6.208-4.533 7.67-4.82 2.46-.48 12.997-1.887 27.432-2.024 1.261-.013 2.553-.016 3.873-.002 10.968.072 23.811.921 36.914 3.394 8.835 1.668 29.904 17.87 30.133 19.886" fill="#67727C"/>
        <g transform="translate(15.38 122.073)">
            <mask id="J" fill="#fff">
                <use xlink:href="#H"/>
            </mask>
            <path d="M.164.322c1.445.005 144.854.654 186.09 13.961.005-.094.005-.19.005-.28C164.724 7.034 115.294 3.614 77.61 1.967 36.76.184.528.048.165.045v.277z" fill="url(#I)" mask="url(#J)"/>
        </g>
        <g transform="translate(146.366 115.063)">
            <mask id="M" fill="#fff">
                <use xlink:href="#K"/>
            </mask>
            <path d="M.376.45c.23.032 23.418 3.408 51.356 11.245a9.215 9.215 0 0 0-.23-.38C23.55 3.472.645.205.416.172L.376.45z" fill="url(#L)" mask="url(#M)"/>
        </g>
        <path d="m36.248 133.104-.257.106c-4.528-9.92-5.944-16.72-6.33-20.682-.224-2.284-.107-3.63-.05-4.085l.32-.294c-.05.333-.215 1.774.044 4.376.4 4.022 1.82 10.817 6.273 20.579" fill="#A6A8A4"/>
        <path d="M142.602 117.36c-1.585-.04-16.74-.708-35.385-1.53l-10.46-.464c-1.835-.08-3.686-.16-5.544-.245l-.022-.002s-5.114-15.112-2.975-16.871c2.138-1.758 29.73 1.189 29.73 1.189 5.937 1.241 20.912 13.269 24.656 17.922M80.543 114.65l-3.303-.147a29805.28 29805.28 0 0 0-40.925-1.795l-1.853-.074v-.003c-.556-1.444 11.088-12.101 14.296-13.723 3.21-1.625 26.903-1.217 26.903-1.217s6.485 15.076 4.882 16.96" fill="#B3B8B9"/>
        <path d="M83.77 114.792v.002l-1.787-.08-2.876-.128-.31-.013-1.557-.07c-2.324-12.514-1.398-22.407-1.398-22.407.254-.002.511-.005.77-.005.093-.003.187-.003.28-.003.926-.005 1.866-.005 2.822.006.613 8.501 4.002 22.479 4.055 22.698" fill="#505D62"/>
        <path d="m92.773 157.609-.313.004c-7.659-14.584-11.614-30.525-13.663-43.04-2.025-12.409-2.173-21.454-2.184-22.482.091-.002.186-.002.278-.002.012 1.013.176 10.075 2.216 22.497 2.056 12.525 6.024 28.468 13.666 43.023M135.688 157.228l-.315.004c4.282-15.497 4.341-30.594 3.736-40.007-.33-5.121-.853-8.562-1.001-9.465.08.06.161.125.242.186.128.744.678 4.132 1.03 9.286.636 9.309.627 24.376-3.692 39.996" fill="#A6A8A4"/>
        <path d="M87.76 114.968s-3.636-11.549-2.939-13.117c.698-1.566 5.907-1.29 7.767 2.415 1.859 3.703 5.775 11.173 5.775 11.173l-10.604-.47zM41.739 112.942a2674.1 2674.1 0 0 0-5.424-.233l-1.853-.074c-1.176-.048-2.04-.085-2.552-.103-.433-1.51-.933-3.32-1.326-4.98 1.543-1.4 3.345-2.99 5.209-4.574a5.727 5.727 0 0 1 1.944 2.188 710.783 710.783 0 0 0 4.002 7.776" fill="#5B676E"/>
        <g transform="translate(44.254 94.035)">
            <mask id="P" fill="#fff">
                <use xlink:href="#N"/>
            </mask>
            <path d="M.501 5.633s3.334-3.667 6.65-4.26c3.795-.678 58.686-2.961 71.707 4.26 13.02 7.218 2.232 5.924-.652 5.738C75.324 11.186-2.287 8.495.501 5.633" fill-opacity=".3" fill="url(#O)" mask="url(#P)"/>
        </g>
        <path d="M61.895 152.027c0 9.893-8.057 17.913-17.996 17.913-9.94 0-17.996-8.02-17.996-17.913s8.057-17.913 17.996-17.913c9.94 0 17.996 8.02 17.996 17.913" fill="#495458"/>
        <g transform="translate(40.732 138.895)">
            <mask id="S" fill="#fff">
                <use xlink:href="#Q"/>
            </mask>
            <path d="M.195.502C.193.502.193.504.193.504L.187.51l2.028 9.933c.076.373.44.617.817.544h.001a.688.688 0 0 1 .268 0c.377.073.741-.17.818-.544L6.146.51 6.141.504A13.261 13.261 0 0 0 .195.502" fill="url(#R)" mask="url(#S)"/>
        </g>
        <g transform="translate(40.732 153.615)">
            <mask id="V" fill="#fff">
                <use xlink:href="#T"/>
            </mask>
            <path d="M3.301.713a.688.688 0 0 1-.268 0h-.001a.696.696 0 0 0-.817.544L.357 10.359a.697.697 0 0 0 .564.826 13.147 13.147 0 0 0 4.49 0h.001a.697.697 0 0 0 .565-.826L4.119 1.257A.698.698 0 0 0 3.436.7.678.678 0 0 0 3.3.713" fill="url(#U)" mask="url(#V)"/>
        </g>
        <g transform="translate(45.662 148.709)">
            <mask id="Y" fill="#fff">
                <use xlink:href="#W"/>
            </mask>
            <path d="M10.252.58 1.015 2.45a.694.694 0 0 0-.547.81l.001.006a.68.68 0 0 1 0 .262v.005a.693.693 0 0 0 .546.81l9.212 1.863a.7.7 0 0 0 .827-.56 13.004 13.004 0 0 0 .027-4.501.702.702 0 0 0-.69-.58.67.67 0 0 0-.139.015" fill="url(#X)" mask="url(#Y)"/>
        </g>
        <g transform="translate(30.169 148.709)">
            <mask id="ab" fill="#fff">
                <use xlink:href="#Z"/>
            </mask>
            <path d="M.887 1.145A12.856 12.856 0 0 0 .704 3.32c0 .795.07 1.573.209 2.328.07.384.445.636.829.56l9.208-1.862a.695.695 0 0 0 .546-.814V3.53a.736.736 0 0 1 0-.266v-.001a.696.696 0 0 0-.546-.815L1.715.58a.7.7 0 0 0-.829.566" fill="url(#aa)" mask="url(#ab)"/>
        </g>
        <g transform="translate(44.958 140.998)">
            <mask id="ae" fill="#fff">
                <use xlink:href="#ac"/>
            </mask>
            <path d="M5.463.617.23 8.48a.694.694 0 0 0 .19.959l.006.005a.673.673 0 0 1 .187.183l.002.006a.703.703 0 0 0 .964.188l7.884-5.198a.697.697 0 0 0 .188-.98A13.094 13.094 0 0 0 6.45.433a.7.7 0 0 0-.987.184" fill="url(#ad)" mask="url(#ae)"/>
        </g>
        <g transform="translate(32.986 152.914)">
            <mask id="ah" fill="#fff">
                <use xlink:href="#af"/>
            </mask>
            <path d="M8.273.477.467 5.623a.694.694 0 0 0-.185.983A13.055 13.055 0 0 0 3.476 9.76a.703.703 0 0 0 .984-.187l5.16-7.756a.691.691 0 0 0-.192-.96.716.716 0 0 1-.19-.19.703.703 0 0 0-.965-.192" fill="url(#ag)" mask="url(#ah)"/>
        </g>
        <g transform="translate(44.958 152.914)">
            <mask id="ak" fill="#fff">
                <use xlink:href="#ai"/>
            </mask>
            <path d="M.615.665V.67a.714.714 0 0 1-.19.187L.424.86a.692.692 0 0 0-.193.96l5.161 7.755a.703.703 0 0 0 .985.187A13.084 13.084 0 0 0 9.572 6.61a.694.694 0 0 0-.185-.983L1.58.476a.702.702 0 0 0-.965.19" fill="url(#aj)" mask="url(#ak)"/>
        </g>
        <g transform="translate(32.986 140.998)">
            <mask id="an" fill="#fff">
                <use xlink:href="#al"/>
            </mask>
            <path d="M3.402.432a13.04 13.04 0 0 0-3.2 3.213.696.696 0 0 0 .19.98l7.883 5.197c.32.21.749.124.964-.192a.698.698 0 0 1 .188-.187l.004-.003a.693.693 0 0 0 .19-.96L4.392.618a.701.701 0 0 0-.586-.312c-.14 0-.28.041-.403.127" fill="url(#am)" mask="url(#an)"/>
        </g>
        <g>
            <path d="M46.815 152.027a2.909 2.909 0 0 1-2.916 2.901c-1.61 0-2.915-1.3-2.915-2.901a2.909 2.909 0 0 1 2.915-2.901 2.909 2.909 0 0 1 2.916 2.9" fill="#AAABA9"/>
            <path d="M43.9 139.199c-7.107 0-12.888 5.755-12.888 12.828 0 7.072 5.781 12.827 12.887 12.827 7.106 0 12.888-5.755 12.888-12.827 0-7.073-5.782-12.828-12.888-12.828m0 25.932c-7.26 0-13.166-5.879-13.166-13.104 0-7.228 5.907-13.105 13.166-13.105 7.26 0 13.166 5.877 13.166 13.105 0 7.225-5.906 13.104-13.166 13.104" fill="#AAABA9"/>
            <path d="M187.212 152.027c0 9.893-8.057 17.913-17.996 17.913-9.939 0-17.997-8.02-17.997-17.913s8.058-17.913 17.997-17.913c9.94 0 17.996 8.02 17.996 17.913" fill="#495458"/>
        </g>
        <g transform="translate(166.085 138.895)">
            <mask id="aq" fill="#fff">
                <use xlink:href="#ao"/>
            </mask>
            <path d="M.16.502C.158.502.158.504.158.504A.066.066 0 0 1 .15.51l2.028 9.933a.7.7 0 0 0 .818.544.684.684 0 0 1 .268 0h.001a.7.7 0 0 0 .819-.544L6.11.51 6.106.504A13.255 13.255 0 0 0 .16.502" fill="url(#ap)" mask="url(#aq)"/>
        </g>
        <g transform="translate(166.085 153.615)">
            <mask id="at" fill="#fff">
                <use xlink:href="#ar"/>
            </mask>
            <path d="M3.266.713a.688.688 0 0 1-.268 0 .698.698 0 0 0-.82.544L.323 10.359a.697.697 0 0 0 .563.826 13.17 13.17 0 0 0 4.492 0 .697.697 0 0 0 .564-.826L4.085 1.257A.699.699 0 0 0 3.4.7a.678.678 0 0 0-.135.013" fill="url(#as)" mask="url(#at)"/>
        </g>
        <g transform="translate(171.014 148.709)">
            <mask id="aw" fill="#fff">
                <use xlink:href="#au"/>
            </mask>
            <path d="M10.217.58.979 2.45a.695.695 0 0 0-.547.81l.002.006a.68.68 0 0 1 0 .262l-.002.005a.694.694 0 0 0 .547.81l9.212 1.863a.703.703 0 0 0 .829-.56 13 13 0 0 0 .209-2.327c0-.74-.063-1.468-.183-2.174a.7.7 0 0 0-.69-.58.67.67 0 0 0-.14.015" fill="url(#av)" mask="url(#aw)"/>
        </g>
        <g transform="translate(155.521 148.709)">
            <mask id="az" fill="#fff">
                <use xlink:href="#ax"/>
            </mask>
            <path d="M.85 1.145A12.93 12.93 0 0 0 .669 3.32c0 .795.07 1.573.21 2.328.07.384.444.636.828.56l9.208-1.862a.695.695 0 0 0 .547-.814V3.53a.706.706 0 0 1 0-.266v-.001a.696.696 0 0 0-.546-.815L1.68.58a.7.7 0 0 0-.83.566" fill="url(#ay)" mask="url(#az)"/>
        </g>
        <g transform="translate(170.31 140.998)">
            <mask id="aC" fill="#fff">
                <use xlink:href="#aA"/>
            </mask>
            <path d="M5.427.617.195 8.48a.693.693 0 0 0 .19.959l.006.005a.693.693 0 0 1 .186.183l.003.006a.702.702 0 0 0 .963.188l7.884-5.198a.696.696 0 0 0 .19-.98A13.109 13.109 0 0 0 6.415.433a.701.701 0 0 0-.988.184" fill="url(#aB)" mask="url(#aC)"/>
        </g>
        <g transform="translate(158.338 152.914)">
            <mask id="aF" fill="#fff">
                <use xlink:href="#aD"/>
            </mask>
            <path d="M8.238.477.432 5.623a.693.693 0 0 0-.185.983A13.04 13.04 0 0 0 3.441 9.76a.703.703 0 0 0 .984-.187l5.16-7.756a.692.692 0 0 0-.192-.96.72.72 0 0 1-.19-.19.699.699 0 0 0-.965-.192" fill="url(#aE)" mask="url(#aF)"/>
        </g>
        <g transform="translate(170.31 152.914)">
            <mask id="aI" fill="#fff">
                <use xlink:href="#aG"/>
            </mask>
            <path d="M.581.665.578.67a.696.696 0 0 1-.19.187V.86a.692.692 0 0 0-.192.96l5.161 7.755a.702.702 0 0 0 .983.187A13.08 13.08 0 0 0 9.537 6.61a.694.694 0 0 0-.186-.983L1.544.476a.7.7 0 0 0-.963.19" fill="url(#aH)" mask="url(#aI)"/>
        </g>
        <g transform="translate(158.338 140.998)">
            <mask id="aL" fill="#fff">
                <use xlink:href="#aJ"/>
            </mask>
            <path d="M3.367.432a13.037 13.037 0 0 0-3.2 3.213.696.696 0 0 0 .19.98l7.882 5.197c.319.21.75.124.965-.192a.688.688 0 0 1 .188-.187l.004-.003a.692.692 0 0 0 .19-.96L4.354.618A.7.7 0 0 0 3.77.305c-.14 0-.28.041-.403.127" fill="url(#aK)" mask="url(#aL)"/>
        </g>
        <g fill="#AAABA9">
            <path d="M172.131 152.027a2.909 2.909 0 0 1-2.915 2.901c-1.61 0-2.915-1.3-2.915-2.901a2.909 2.909 0 0 1 2.915-2.901 2.908 2.908 0 0 1 2.915 2.9"/>
            <path d="M169.216 139.199c-7.106 0-12.887 5.755-12.887 12.828 0 7.072 5.78 12.827 12.887 12.827 7.106 0 12.887-5.755 12.887-12.827 0-7.073-5.78-12.828-12.887-12.828m0 25.932c-7.26 0-13.166-5.879-13.166-13.104 0-7.228 5.906-13.105 13.166-13.105 7.26 0 13.166 5.877 13.166 13.105 0 7.225-5.906 13.104-13.166 13.104"/>
        </g>
        <g transform="translate(139.324 112.96)">
            <mask id="aO" fill="#fff">
                <use xlink:href="#aM"/>
            </mask>
            <path d="M3.552 4.584c2.487-.28 3.02-.37 3.02-.37s.983-.782 1.146-1.685C7.88 1.626.225.684.225.684s.84 4.183 3.327 3.9" fill="url(#aN)" mask="url(#aO)"/>
        </g>
        <g>
            <path d="M144.288 117.363s2.177-1.573.651-2.082c-1.525-.51-5.48-1.296-6.134-2.13-.655-.832-6.329-4.258-8.84-2.59-2.511 1.666-1.115 6.85 1.768 7.498 2.883.647 12.555-.696 12.555-.696" fill="#00A3DA"/>
            <path d="M45.95 152.027a2.048 2.048 0 0 1-2.051 2.042 2.047 2.047 0 0 1-2.051-2.042c0-1.128.918-2.043 2.05-2.043 1.134 0 2.053.915 2.053 2.043M171.267 152.027a2.046 2.046 0 0 1-2.051 2.042 2.047 2.047 0 0 1-2.052-2.042c0-1.128.92-2.043 2.052-2.043 1.134 0 2.051.915 2.051 2.043" fill="#495458"/>
            <path d="M121.483 143.857c-.647 0-1.083-.304-1.083-1.099v-3.284h2.286v-.965c0-.318-.12-.45-.357-.45h-1.93v-1.722c0-.265-.171-.397-.515-.397-.461 0-.87.053-1.255.159v6.567c0 1.708.952 2.621 2.365 2.621 1.083 0 1.731-.503 1.731-.9 0-.239-.106-.556-.238-.715-.264.119-.66.185-1.004.185" fill="#00A3DA"/>
            <path d="M110.514 143.705c-.603 0-.84-.523-.927-1.05.171 1.878.94 2.595.94 2.595.975 0 1.698-.273 2.144-.815-.47-.547-.668-1.334-.668-2.255 0 .753-.6 1.525-1.49 1.525" fill="#3166A2"/>
            <path d="M109.587 142.655a8.229 8.229 0 0 1-.034-.76v-1.744h.001v-1.746c0-.27-.161-.404-.51-.404-.47 0-.887.053-1.276.161v.353l-.002.011v3.292c0 2.287.92 3.432 2.76 3.432 0 0-.768-.717-.94-2.595" fill="#00A3DA"/>
            <path d="M117.284 138.027c-.457 0-1.04.3-1.301.525.104.275.335 1.4.335 2.482 0 1.69-.741 2.671-1.567 2.671-.645 0-.967-.508-.967-1.796 0 2.505.98 3.341.98 3.341 1.267 0 2.206-.662 2.8-1.984.318-.742.477-1.372.477-2.355 0-.746-.069-1.61-.27-2.46-.07-.302-.175-.424-.487-.424" fill="#3166A2"/>
            <path d="M113.784 141.909v-3.383c-.018-.332-.248-.498-.69-.498h-.4c-.439 0-.67.166-.69.498v3.655c0 .92.198 1.707.666 2.254.44.513 1.118.815 2.094.815 0 0-.98-.836-.98-3.341M104.834 142.93c-.276.636-.911.98-1.519.98-.62 0-1.11-.304-1.11-.926 0-.623.503-.993 1.388-.993.384 0 .965.053 1.241.159v.78zm2.233.915c-.304 0-.476-.16-.476-.65v-2.449c0-1.894-1.096-2.847-3.038-2.847-1.426 0-2.524.623-2.524 1.086 0 .225.08.516.212.702a4.172 4.172 0 0 1 1.823-.41c1.229 0 1.77.49 1.77 1.337v.437c-.357-.185-1.017-.319-1.585-.319-1.69 0-2.8.862-2.8 2.304 0 1.311.977 2.252 2.417 2.252.912 0 1.664-.425 2.1-1.113.225.729.793 1.046 1.348 1.046.7 0 1.15-.424 1.15-.78 0-.226-.04-.411-.093-.596h-.304zM126.34 143.857c-.99 0-1.846-.833-1.846-2.34 0-1.492.777-2.18 1.74-2.18.99 0 1.833.833 1.833 2.34 0 1.493-.765 2.18-1.728 2.18m-.052-5.947c-1.899 0-3.56 1.321-3.56 3.687 0 2.366 1.661 3.687 3.56 3.687s3.56-1.321 3.56-3.687c0-2.366-1.661-3.687-3.56-3.687" fill="#00A3DA"/>
            <g transform="translate(37.915 59.689)">
                <mask id="aQ" fill="#fff">
                    <use xlink:href="#aP"/>
                </mask>
                <path d="M6.503.714S2.59.583 1.34 3.776c-1.248 3.192-.305 5.64.05 6.803.93 3.037 1.007 4.14.557 5.973-.399 1.625-.767 2.463-1.227 3.982-.46 1.519.308 1.35.375 1.461.066.111 14.975 3.309 14.975 3.309s-.474-3.8-1.46-5.296c-.725-1.098-1.81-1.471-.992-4.726.817-3.256 1.336-4.768.878-7.128-.531-2.736-.866-4.445-3.45-6.239A6.967 6.967 0 0 0 6.504.714" fill="#474E4F" mask="url(#aQ)"/>
            </g>
            <path d="M40.013 98.102a20.96 20.96 0 0 1-1.636 7.02s-3.199 1.315-4.743-.68c-.608-.785-1.138-3.425-1.363-6.793-.345-5.185 1.19-12.594 3.138-17.112 0 0 5.147 7.888 4.604 17.565" fill="#404E62"/>
            <path d="M40.013 98.102a20.96 20.96 0 0 1-1.636 7.02s-3.199 1.315-4.743-.68c-.608-.785-1.138-3.425-1.363-6.793l7.742.453z" fill="#F0E4C9"/>
            <path d="M67.806 77.04s.595-1.444.815-1.775c.22-.33-.466-1.044-.897-.186-.43.859-.694 1.408-.694 1.408l.776.553z" fill="#E2AE93"/>
            <path d="m67.206 78.399 2.017-6.224a.72.72 0 0 0-.55-.927l-3.035-.597a.723.723 0 0 0-.843.54l-1.534 6.39a.72.72 0 0 0 .583.877l2.552.43a.723.723 0 0 0 .81-.49" fill="#5A6261"/>
            <path d="M68.03 77.982s.255-.539-.632-1.441c-1.178-1.2-2.83-2.584-3.22-2.525-.563.086-.453.528.34 1.154.794.625 1.057.829 1.057.829s-1.704-.812-2.177-.746c-.473.066-.675.543-.415.728.26.186.925.483.925.483s-.759-.245-.944.027c-.137.2-.281.509.38.898 0 0-.678.356-.081.96.595.603.672.97.58 1.757-.092.786.41 2.026.41 2.026l2.299-.255s.423-2.055.722-2.534c.3-.479.756-1.361.756-1.361" fill="#E2AE93"/>
            <path d="M53.534 91.055c1.052 1.57 2.43 3.23 3.54 3.214.717-.01 9.731-11.558 9.728-12.136-.004-.655-3.318-1.559-3.318-1.559s-1.581 2.728-3.033 3.88c-1.453 1.15-3.222 3.606-3.587 3.859-.364.255-1.684-2.567-1.684-2.567-.435-1.36-.972-3.765-2.243-5.994-1.27-2.229-4.118-3.196-4.118-3.196-5.55 2.48 3.094 11.77 3.094 11.77s1.119 2.011 1.62 2.729" fill="#0070A2"/>
            <path d="M47.514 74.318s4.362 3.13 5.816 10.593c0 0-4.095-7.981-5.43-9.404 0 0-.562-.535-.386-1.189M54.306 86.821s-.057 17.316 0 21.31c.057 3.993-5.084-9.596-5.084-9.596s2.742-8.473 5.084-11.714M31.44 128.42s12.452-1.352 20.064 2.998c7.613 4.35-7.116-12.879-7.116-12.879s-12.777 5.008-12.948 9.882" fill="#0070A2"/>
            <path d="M58.202 166.16s.659 1.746 1.575 2.16c.916.415 2.99 2.332 3.824 2.47.832.137 2.832.293 2.942 1.343.111 1.051-.104 2.004-4.129 1.451-4.025-.553-7.829-2.404-7.829-2.404s-.812-4.059.497-6.064c1.308-2.004 3.12 1.045 3.12 1.045" fill="#E5D7CF"/>
            <path d="m58.202 166.16-.753-2.503h-2.876v2.67s4.352 1.626 3.63-.166" fill="#E2AE93"/>
            <path d="M32.968 161.444s.284 1.81.73 2.358 1.092 3.153 2.003 3.984c.911.832 3.144 2.706 2.46 3.643-.683.937-5.462-.267-7.17-3.163-1.707-2.897-2.291-3.225-2.074-4.012.218-.787 1.837-3.813 1.798-4.18-.038-.369 2.253 1.37 2.253 1.37" fill="#E5D7CF"/>
            <path d="M33.666 160.143c-.028 0-.577.821-.698 1.301-.12.48-1.177.67-2.025-.372 0 0-.264-.376-.227-.999.037-.622.75-2.09.75-2.09l2.2 2.16z" fill="#E2AE93"/>
            <path d="M45.567 118.994c.15.722 1.111 3.743 2.187 7.1l.938 2.924a426.396 426.396 0 0 1 1.766 5.607c.24.794.422 1.421.516 1.803.62 2.522-.077 6.48-.303 9.787-.226 3.307 3.357 19.578 3.357 19.578.845.392 4.593-.646 4.593-.646-.62-1.177-1.452-21.432-1.114-22.72.337-1.29.562-4.878.224-6.28-.069-.287-.103-.667-.11-1.124-.03-1.77.338-4.693.561-7.9.282-4.037-1.295-14.07-1.52-14.967a9.414 9.414 0 0 0-.096-.342c-.414-1.407-1.75-5.402-1.75-5.402-2.71-.802-4.75-.947-6.272-.638-2.016.408-3.125 1.612-3.679 3.141-1.325 3.648.507 9.143.702 10.08" fill="#354353"/>
            <path d="m30.172 159.631 3.699 1.564c.465-2.241 10.795-17.816 11.474-19.554.68-1.738 1.404-5.1 1.404-6.335 0-.22.016-.591.048-1.073.12-1.87.464-5.395.957-8.138.092-.513.189-.997.29-1.439.546-2.366.641-10.451.647-15.207a344.62 344.62 0 0 0-.012-3.572l-.135-.103c-1.027-.774-7.615-5.49-9.911-1.081-.607 1.165-1.003 2.414-1.244 3.718-.736 3.995-1.284 9.11-.69 13.209.509 3.507 1.611 7.475 2.361 11.087.41 1.972.772 4.102.312 4.898-1.295 2.242-2.562 4.14-5.181 12.052-.852 2.573-4.02 9.974-4.02 9.974" fill="#354353"/>
            <path d="M39.684 97.779c-.601 2.391-3.658 14.336-3.582 15.046.028.267 3.382.826 6.463 1.365 5.125.898 11.742-1.014 14-2.375v-.003c-.047-.175-3.076-11.43-3.3-12.727-.224-1.308.275-6.212.388-7.594.042-.514.262-1.247.52-2.036.436-1.338.98-2.838.95-3.71-.021-.662-.187-1.28-.456-1.907v-.001c-.306-.71-.745-1.43-1.263-2.23a59.463 59.463 0 0 0-.936-1.407c-1.033-1.509-2.065-2.878-2.57-3.35a8.324 8.324 0 0 0-1.036-.822h-.002a5.467 5.467 0 0 0-.958-.521H47.9c-.069-.028-.105-.04-.105-.04l-4.469-.71s-.477.172-1.15.4c-.824.28-1.944.643-2.838.877h-.003c-.137.037-.27.07-.395.099 0 0-.764.284-1.57 1.187-.768.863-1.58 2.277-1.603 5.149-.02 2.53 2.903 8.583 3.354 10.45.45 1.87 1.164 2.468.563 4.86" fill="#F0E4C9"/>
            <path d="m48.86 76.026 2.589 4.063 2.39 3.749c-.006-.02-.165-.588-.435-2.232a76.784 76.784 0 0 1-.165-1.056 2.813 2.813 0 0 0-.076-.346c-1.022-2.347-4.185-4.117-4.301-4.176-.002 0-.003-.002-.003-.002" fill="#E5D7CF"/>
            <path d="M42.35 75.243s.128-5.267-.323-6.114c-.45-.846 5.456 3.525 5.456 3.525s-.02.207-.029.356a5.634 5.634 0 0 0 .035 1.064l.017.17c.07.684.256 1.424.552 2.038.65 1.353-5.708-1.04-5.708-1.04" fill="#E2AE93"/>
            <path d="M53.153 80.177s.138.284.251 1.43l-.936-1.407s-1.672-2.388-2.246-3.008c-.573-.62-1.36-1.164-1.36-1.164s3.29 1.573 4.29 4.149" fill="#0070A2"/>
            <path d="M47.794 75.468s2.996 4.584 1.982 4.985c-1.014.4-6.503-.534-8.837-4.89 0 0 3.49-1.78 6.855-.095" fill="#E2AE93"/>
            <path d="M53.646 91.566a2.23 2.23 0 0 0 .011-.105l-.005.03a.958.958 0 0 0-.006.075" fill="#3B5B6F"/>
            <path d="M40.707 83.482s-3.818-1.351-5.005-1.442c0 0 .89-6.765 4.831-6.085 3.94.68.174 7.527.174 7.527" fill="#E5D7CF"/>
            <path d="M47.56 74.64s-.232.87-5.194-.647l-.234 1.121s-.656.098-2.447.826c0 0 8.949 8.394 10.3 4.968 1.352-3.426-2.084-5.401-2.084-5.401l-.342-.867z" fill="#F0E4C9"/>
            <path d="m47.9 75.507 6.767 8.33c-.306-.71-.745-1.43-1.263-2.23a59.463 59.463 0 0 0-.936-1.407c-1.033-1.509-2.065-2.878-2.571-3.35a8.146 8.146 0 0 0-1.035-.822l-.003-.001a5.444 5.444 0 0 0-.957-.52h-.001z" fill="#0070A2"/>
            <path d="M53.657 91.461c.438-1.337 1.609-4.412 1.523-5.715-.043-.66-.243-1.282-.513-1.908v-.001c-.305-.71-.745-1.504-1.262-2.305-.303-.468-.847-1.258-1.164-1.72-1.033-1.51-1.838-2.504-2.344-2.977a8.65 8.65 0 0 0-1.038-.846c-.002-.001 0 0 0 0-.447-.297-.792-.416-.957-.482H47.9s7.13 6.405 5.757 15.954" fill="#0070A2"/>
            <path d="M38.31 103.965s.489.751.791.9c.302.148.648.853.648.853l-1.933 1.412s-.707-1.663-1.592-2.185c-.886-.52 2.087-.98 2.087-.98" fill="#E2AE93"/>
            <path d="M35.384 79.955s1.582-4.524 4.862-3.109c3.152 1.36-1.098 6.88-1.477 7.556-.38.677-3.945 6.118-4.304 6.852-1.135 2.32-.755 3.47-.369 4.581 1.295 3.73 3.825 7.218 4.44 7.82.615.601-1.9 2.762-2.894 2.084-1.323-.903-3.694-5.602-4.345-6.671-.797-1.308-2.809-3.664-1.383-7.756.96-2.756 5.47-11.357 5.47-11.357" fill="#0070A2"/>
            <path d="m40.253 104.334-4.151 3.317s3.256 4.871 4.817 2.824c1.562-2.046-.666-6.14-.666-6.14" fill="#D4C8C2"/>
            <path d="M48.898 85.605c-.685-7.28-6.531-11.68-6.531-11.68l-.227 1.08c-6.016 1.692-6.16 3.023-6.438 7.035-.108 1.54.325 3.593.884 5.804.227.896.474 1.82.715 2.744.71 2.734 1.359 5.485 1.232 7.64-.277 4.677-12.834 25.259-12.834 25.259 0 4.348 10.882 10.575 10.882 10.575-.509-5.735 13.295-42.681 12.317-48.457" fill="#0070A2"/>
            <path d="M37.3 90.588v-.001c1.875-2.19 2.978-8.595 2.978-8.595-1.116 3.127-3.692 5.851-3.692 5.851.226.897.474 1.82.714 2.745" fill="#185C7D"/>
            <path d="M47.754 126.094v.001l.938 2.923c1.507-5.793 1.768-12.25 1.768-12.25-.457 3.601-2.706 9.326-2.706 9.326" fill="#1E2730"/>
            <path d="m36.585 95.522-.195-.316.195.316zm.196.317-.39-.633c.056-.035 4.2-2.632 4.985-7.303.571-3.39-.812-7.097-3.948-10.904l.665-.453c3.281 3.983 4.63 7.874 4.017 11.49-.848 5.013-5.146 7.69-5.33 7.803z" fill="#404E62"/>
            <path d="M37.428 76.999s.2-.29.665-.453c0 0-.086.437-.665.453" fill="#404E62"/>
            <path d="M47.47 59.446s4.316 2.805 2.914 9.585c-1.404 6.781-6.5 3.053-7.054 2.669-.554-.385-2.265-4.629-2.332-6.48-.063-1.743-.976-8.732 6.472-5.774" fill="#E3AF93"/>
            <path d="M47.173 60.807c-.45-.133-1.97 2.79-2.787 3.511-.819.722-2.323 2.532-2.47 4.517-.147 1.983-1.829-4.336-1.247-6.68.582-2.346 1.358-5.784 6.62-3.057 5.26 2.727 3.9 7.603 3.9 7.603s-1.741-5.226-4.016-5.894" fill="#474E4F"/>
            <path d="M43.528 65.487c-.14-.802-1.919-1.48-1.893-.275.026 1.205 1.009 2.597 1.564 2.509.555-.088.457-1.493.329-2.234" fill="#E3AF93"/>
            <path d="M47.489 74.074h-.01c-3.124-.038-4.149-2.375-4.149-2.375 2.164 1.626 3.897 1.351 4.125 1.306a5.57 5.57 0 0 0 .034 1.069" fill="#A48571"/>
        </g>
        <g transform="translate(77.352 61.58)">
            <g transform="translate(0 .177)">
                <use fill="#000" filter="url(#aR)" xlink:href="#aS"/>
                <use fill="#FFF" xlink:href="#aS"/>
            </g>
            <path d="M13.59 13.019s.586-1.416 1.595-1.316c1.01.1 1.34 1.2 1.3 2.035 0 0-.01.824-.287 1.099l.08.001 1.167-.14 4.937-.507.629-.067s.243-.013.252-.255c.009-.244.352-2.494 1.291-2.66.939-.164 1.078.993 1.078.993s.051.508-.051.828c-.102.32-2.677 1.42-2.677 1.42l-.42-.01s.067-.194-.184-.184c-.25.01-2.468.265-2.468.265l-3.215.351s-.066 0-.056.087l-.351.055h-.116s.26-.908-.053-1.916c0 0-.147-.671-.814-.966 0 0-1.14-.483-1.637.887" fill="#2B312F"/>
            <path d="M12.824 15.127s.42 1.133 1.33 1.215c0 0 .675.071 1.084-.193 0 0 .736-.509.879-1.232 0 0 .315-.998-.174-2.075-.513-1.128-1.537-.77-1.537-.77s-.284.071-.513.38c-.23.31-.406.834-.406.834l-.302 1.055s-.143.66-.36.786" fill="#242A27"/>
            <path d="M16.209 14.16c0 1.158-.612 2.095-1.365 2.095s-1.364-.937-1.364-2.095c0-1.157.61-2.094 1.364-2.094.753 0 1.365.664 1.365 2.094" fill="#373D3B"/>
            <path d="M15.96 14.21c0 .884-.442 1.601-.988 1.601s-.988-.717-.988-1.6c0-.884.442-1.601.988-1.601s.988.717.988 1.6" fill="#E3E3E2"/>
            <path d="M15.731 14.196a.467.467 0 0 0-.227-.066c-.057.006-.103-.006-.11-.058-.006-.052.355-.293.406-.308.052-.014.053.185.053.185s.006.131.005.205c-.002.074-.068.077-.127.042m-.159.78c-.069-.072-.258-.318-.27-.38-.012-.062.025-.086.094-.025.07.061.336.305.27.406 0 0-.024.07-.094-.002m-.187.424s-.077.055-.12.078c-.045.023-.069-.075-.068-.175a1.704 1.704 0 0 0-.037-.36c-.024-.083-.031-.156-.003-.184.029-.028.293.429.32.5.026.072-.092.141-.092.141m-.39-.94c-.087 0-.155-.11-.155-.244 0-.135.068-.243.154-.243.085 0 .154.108.154.243 0 .134-.069.244-.154.244m-.002.292c-.04 0-.07-.049-.07-.11 0-.06.03-.11.07-.11.038 0 .07.05.07.11 0 .061-.032.11-.07.11m-.118.259c-.025.12-.13.576-.206.49 0 0-.047-.025-.015-.145.031-.12.151-.458.188-.487.037-.03.058.023.033.142m-.519.13s-.047-.11-.07-.174c-.022-.065.035-.12.097-.136a.558.558 0 0 0 .217-.123c.049-.05.093-.076.115-.036.023.039-.215.532-.255.586-.04.053-.104-.117-.104-.117m-.23-.979s-.004-.078.078-.078c.084 0 .326.044.358.087.032.041.008.093-.07.102-.08.01-.387.031-.367-.11m.091-.596s.045-.11.074-.168c.03-.057.083.004.117.088.033.085.107.22.155.27.048.05.08.105.066.153-.014.048-.394-.108-.44-.146-.047-.037.028-.197.028-.197m.505.542c.039 0 .07.05.07.11 0 .061-.031.111-.07.111-.038 0-.07-.05-.07-.11 0-.062.032-.11.07-.11m.062-1.23s.046-.027.07.098c.024.125.066.505.05.565-.017.06-.054.04-.082-.078-.03-.118-.13-.576-.038-.584m.21.805c.038 0 .07.05.07.11 0 .062-.032.111-.07.111-.04 0-.07-.049-.07-.11 0-.06.03-.11.07-.11m.05-.827c.008-.08.127-.012.127-.012s.08.037.123.065c.043.028.022.126-.02.201a1.34 1.34 0 0 0-.12.313c-.017.086-.04.15-.074.142-.032-.008-.046-.627-.036-.709m.284 1.36c0 .06-.032.11-.07.11-.04 0-.07-.05-.07-.11 0-.062.03-.11.07-.11.038 0 .07.048.07.11m.038-.568c.06-.084.296-.396.334-.263 0 0 .032.059-.033.138-.066.08-.277.277-.318.275-.04-.003-.043-.066.017-.15m-.37-1.032c-.558 0-1.01.714-1.01 1.596 0 .881.452 1.596 1.01 1.596s1.01-.715 1.01-1.596c0-.882-.452-1.596-1.01-1.596" fill="#A7ACAE"/>
            <path d="M24.888 11.736s-.372-.37-.996.13c0 0-.304.445-.413 1.058 0 0-.113.715-.14 1.028 0 0-.103.112-.123.139 0 0-.084.063-.146.06 0 0-.16.106-.153.274.007.167.2.658.549.777.347.12.865.242 1.356-.075l.066-3.391z" fill="#242A27"/>
            <path d="M25.55 13.412c0 .99-.457 1.79-1.021 1.79-.565 0-1.023-.8-1.023-1.79s.458-1.791 1.023-1.791c.564 0 1.021.802 1.021 1.79" fill="#373D3B"/>
            <path d="M25.367 13.494c0 .781-.354 1.414-.792 1.414-.438 0-.793-.633-.793-1.414 0-.782.355-1.414.793-1.414.438 0 .792.632.792 1.414" fill="#E3E3E2"/>
            <path d="M25.153 13.473a.335.335 0 0 0-.178-.058c-.045.005-.08-.006-.087-.053-.005-.046.279-.26.32-.273.04-.012.04.165.04.165s.006.117.005.182c-.001.066-.054.069-.1.037m-.125.692c-.054-.062-.202-.28-.212-.336-.009-.055.02-.076.074-.022.055.053.264.27.212.361 0 0-.02.06-.074-.003m-.146.377s-.06.049-.095.07c-.035.02-.054-.067-.053-.156a1.75 1.75 0 0 0-.03-.319c-.017-.075-.024-.14-.002-.164.023-.025.23.38.251.444.021.064-.071.125-.071.125m-.307-.835c-.067 0-.121-.098-.121-.217s.054-.216.12-.216c.067 0 .121.097.121.216 0 .12-.054.217-.12.217m-.002.26c-.03 0-.054-.044-.054-.099 0-.054.024-.098.054-.098s.055.044.055.098c0 .055-.024.1-.055.1m-.093.229c-.02.107-.102.511-.161.435 0 0-.037-.022-.012-.129.025-.107.119-.406.148-.433.029-.026.045.02.025.127m-.407.114s-.036-.097-.054-.155c-.017-.056.027-.105.076-.12a.43.43 0 0 0 .17-.108c.038-.046.073-.068.09-.033.018.036-.169.473-.2.52-.031.048-.082-.104-.082-.104m-.18-.869s-.003-.069.062-.069c.064 0 .255.04.28.077.025.036.007.083-.055.09-.063.009-.304.03-.287-.098m.07-.529s.036-.098.06-.149c.022-.05.064.003.09.08.027.074.084.194.123.239.037.044.062.093.05.135-.01.043-.308-.096-.345-.13-.037-.032.022-.175.022-.175m.397.482c.03 0 .055.044.055.098 0 .054-.025.098-.055.098s-.055-.044-.055-.098c0-.054.025-.098.055-.098m.048-1.091s.037-.025.055.087c.019.11.052.448.04.501-.013.053-.043.037-.066-.069-.022-.105-.101-.511-.029-.519m.165.715c.03 0 .055.044.055.098 0 .055-.024.1-.055.1-.03 0-.054-.045-.054-.1 0-.054.024-.098.054-.098m.04-.733c.006-.072.099-.012.099-.012s.062.034.096.059c.034.024.018.112-.015.179a1.247 1.247 0 0 0-.094.277c-.013.077-.032.134-.058.126-.026-.006-.037-.556-.029-.63m.222 1.208c0 .054-.024.098-.055.098-.03 0-.054-.044-.054-.098 0-.054.024-.098.054-.098.031 0 .055.044.055.098m.031-.504c.048-.075.232-.352.261-.234 0 0 .026.053-.026.123-.051.07-.216.247-.248.244-.032-.003-.034-.059.013-.133m-.29-.917c-.438 0-.792.635-.792 1.418 0 .783.354 1.418.792 1.418.437 0 .792-.635.792-1.418 0-.783-.355-1.418-.792-1.418" fill="#A7ACAE"/>
            <path d="M25.554 13.436s.194-.24.256-.536c.06-.295.088-.292.071-.71-.017-.416-.122-.938-.122-.938s-.082-.404-.147-.607c-.065-.204-.205-.628-.361-.879 0 0-.099-.166-.277-.197-.176-.03-.39-.484-.39-.484s0-.047.07-.06c0 0-.269-.09-.507-.49 0 0-.293-.542-.66-.796 0 0-.188-.021-.263-.014-.076.006-.143 0-.15.072-.007.07 0 .874 0 .874s.007.176-.201.187L21.613 9l-.938.102-1.595.139-.858.084-.04.058s-.22.048-.324.03c0 0-.038-.047-.12-.03l-.504.05-.085.025s-.21.047-.34.02c0 0-.069-.016-.069-.138 0 0-.705.069-1.625.1-.92.03-3.225-.067-3.225-.067l-2.936-.07-.503-.027s-.118.041-.22.082c-.102.04-.302.122-.73.168-.43.045-1.12.223-1.887.615 0 0-.26.195-.44.542-.18.345-.219.566-.212.67l-.307.469s-.095-.055-.17-.242c0 0-.06.157-.065.316-.003.16-.033.55-.033.55l.02.05.003.496s-.058.131-.065.27c-.007.14.01.347.051.431l-.03.364s.12.546.467.704c0 0 .143.075.493.058 0 0 .829.088 1.118.106.29.016 1.564.131 1.884.145.32.013 1.258.133 1.6.148.342.015 2.336-.056 2.336-.056l.475-.015s.127 0 .179-.107c.05-.108.178-.27.306-.87s.399-1.231.399-1.231.27-.717.894-1.079a1.193 1.193 0 0 1 1.661.504c.286.58.312.87.306 1.374-.005.503-.117.925-.286 1.098l.056.005 1.432-.178 2.294-.244 2.402-.229.629-.066s.22 0 .24-.173c.02-.173.113-.93.311-1.49.2-.56.598-1.155 1.13-1.216.532-.06.853.712.853.712s.174.453-.005 1.104l.014.375z" fill="#FBFAFA"/>
            <path d="M5.328 14.789h.002c.008 0 .83.088 1.116.104.124.008.429.033.753.06.444.037.947.079 1.13.086.16.007.465.039.786.074.316.032.643.067.815.075.337.014 2.313-.056 2.332-.057l.475-.015c.006 0 .111-.002.153-.09.008-.017.02-.036.03-.059.063-.114.168-.304.274-.803.127-.597.398-1.23.4-1.237.003-.006.282-.73.908-1.092.292-.17.631-.21.954-.113.327.098.6.328.75.629.287.581.314.87.31 1.387-.005.469-.102.87-.255 1.072l1.421-.177 2.295-.244 2.402-.23.631-.065c.008 0 .194-.003.21-.147.041-.345.136-.998.314-1.496.198-.557.605-1.173 1.155-1.237.548-.062.871.7.885.731.007.02.174.468-.002 1.119l.01.28c.06-.09.158-.26.197-.45a7.97 7.97 0 0 1 .033-.147c.038-.164.052-.224.039-.555a7.304 7.304 0 0 0-.123-.934c0-.004-.082-.405-.146-.604-.047-.15-.193-.608-.357-.872-.001-.002-.095-.155-.255-.182-.188-.032-.392-.454-.414-.502l-.003-.006v-.007c0-.002 0-.034.029-.06-.097-.051-.287-.181-.462-.474-.003-.006-.29-.534-.645-.783a1.878 1.878 0 0 0-.248-.012c-.01 0-.022 0-.032.002-.075.004-.088.011-.091.041-.005.055-.002.594 0 .872 0 0 .006.206-.23.217l-1.258.142-.937.102-1.596.139-.844.083-.04.056-.01.003c-.01.002-.226.048-.336.03l-.013-.001-.006-.01c-.001 0-.028-.031-.09-.019l-.002.001-.502.05-.082.023c-.011.003-.222.05-.356.021-.005 0-.079-.021-.09-.135-.15.013-.794.07-1.596.097-.91.03-3.204-.066-3.227-.067l-2.936-.07-.497-.026a6.307 6.307 0 0 0-.214.08l-.004.001c-.108.043-.308.122-.734.168-.2.021-.928.128-1.873.61-.024.02-.264.21-.43.53-.207.395-.211.602-.209.656l.001.01-.328.5-.025-.014c-.003-.002-.08-.046-.15-.184a.922.922 0 0 0-.04.233c-.002.146-.028.49-.032.544l.02.05.003.507-.003.005c0 .001-.056.13-.062.261-.006.138.01.34.049.416l.002.008-.03.366c.012.051.135.536.449.68.003 0 .144.07.48.055h.002zm4.744.461c-.062 0-.111 0-.145-.002-.174-.008-.502-.042-.818-.075a16.504 16.504 0 0 0-.782-.072c-.185-.009-.69-.05-1.133-.086-.324-.027-.63-.053-.752-.06-.279-.016-1.067-.1-1.116-.105-.354.016-.502-.059-.507-.061-.357-.164-.478-.703-.483-.726l-.001-.005.03-.36c-.044-.101-.056-.315-.05-.437a.924.924 0 0 1 .064-.276l-.003-.482-.02-.053v-.007c0-.004.03-.391.034-.548.004-.162.065-.32.066-.326l.028-.07.03.07a.55.55 0 0 0 .134.208l.283-.432c-.003-.082.016-.296.215-.677.182-.348.44-.543.45-.551l.005-.003c.644-.33 1.354-.56 1.896-.618.419-.045.613-.123.718-.165l.005-.002c.102-.04.22-.081.221-.081l.005-.002.51.026 2.935.07c.023.002 2.315.097 3.223.066.908-.03 1.616-.099 1.624-.099l.032-.004v.034c0 .09.04.108.046.11.121.025.324-.02.326-.02l.089-.026.503-.05a.153.153 0 0 1 .138.032c.088.01.248-.02.291-.03l.043-.058.872-.087 1.594-.138.937-.102 1.26-.142c.173-.01.174-.14.174-.156 0-.034-.007-.807 0-.879.009-.087.086-.092.148-.096l.03-.003c.077-.007.26.014.268.015h.008l.007.004c.369.256.658.786.67.808.228.383.488.473.49.474l.112.037-.116.021c-.032.007-.042.02-.044.027.061.13.235.438.364.46.189.033.293.204.297.21.168.27.316.733.364.886.065.203.144.593.148.61 0 .005.106.529.123.944.013.339-.002.407-.04.571l-.033.145a1.43 1.43 0 0 1-.262.548l-.05.065-.017-.462v-.005c.175-.632.009-1.08.007-1.084-.003-.007-.32-.75-.821-.693-.522.06-.913.658-1.104 1.196-.176.493-.27 1.141-.31 1.483-.02.158-.184.2-.27.2l-.627.066-2.401.23-2.295.243-1.433.18-.124-.012.044-.046c.164-.168.273-.59.278-1.078.005-.508-.022-.79-.304-1.36a1.17 1.17 0 0 0-.712-.597 1.136 1.136 0 0 0-.905.106c-.608.352-.88 1.057-.881 1.064a7.65 7.65 0 0 0-.398 1.226c-.108.508-.215.704-.28.82-.01.022-.021.04-.03.057-.057.123-.2.124-.206.124l-.474.015c-.072.003-1.633.058-2.192.058z" fill="#A3A8AA"/>
            <path d="m6.918 14.96.157.083 1.996.15 2.242.162s.047.04.04.135l1.139.102v-.067l.116-.115v-.259l-1.322.042-.669.026-1.32-.075-2.01-.152-.369-.031zM4.506 12.666s.071.037.112.244c.041.207.144.586.164.637.02.051.098.32.518.37.419.051 1.042.119 1.471.15.43.03 1.807.098 2.436.088.629-.01.65-.046.65-.046s.255-.016.429-.305a7.97 7.97 0 0 1 .407-.599s.129-.184.405-.206l1.006-.076s.031-.004.052.016c.02.02.097.117.097.117s.082.116.031.244c-.051.127-.194.626-.194.626s-.057.315-.399.376c-.343.062-.91.137-1.543.204-.634.066-1.309.03-1.309.03l-2.391-.152s-1.518-.113-1.686-.22c-.17-.106-.277-.325-.277-.325l.02-1.173z" fill="#2B312F"/>
            <path d="m12.252 13.092.042.173-.219.727s-.057.156-.214.249c-.085.05-.276.08-.507.115 0 0-.852.119-1.294.158 0 0-.389.025-.518.029-.125.004-.588-.002-.588-.002l.268-.196s1.865-.127 3.03-1.253" fill="#5D6564"/>
            <path d="M10.746 13.783s.06-.353.378-.539c.286-.168.674 0 .674 0s.323.128.27.488c-.05.36-.265.418-.265.418s-.22.142-.643.106" fill="#4A514F"/>
            <path d="M5.323 13.971s.01.24.138.25c.128.01 1.15.112 1.15.112l.905.065 1.277.051h.281s.112-.055.159-.116c.046-.062-.01-.117-.133-.122-.123-.006-1.845-.066-1.845-.066l-1.027-.082-.905-.092z" fill="#404644"/>
            <path d="m5.327 14.82.05.203s.62-.021 1.023.122l.022-.222-1.095-.104z" fill="#2B312F"/>
            <path d="M5.582 15.023s.362.651 1.288.692c.927.04 1.281-.57 1.281-.57l.033-.085-2.071-.166-.53-.05v.18z" fill="#2B312F"/>
            <path d="m24.655 9.024.385.142s.143.058.235.078c.091.02.136.085.163.146.028.06.116.305.184.56 0 0 .061.21.031.319 0 0-.071.104-.058.169l-.004.142s-.159-.527-.301-.747c0 0-.04-.13-.214-.23 0 0-.113-.027-.148-.05 0 0-.14-.092-.273-.333l-.066-.123s-.037-.053.066-.073" fill="#CF6771"/>
            <path d="M25.318 9.82c.09.144.187.404.246.578a.406.406 0 0 1 .06-.142c.021-.084-.015-.242-.032-.298-.07-.262-.157-.5-.182-.556-.033-.074-.077-.113-.142-.128-.093-.02-.234-.077-.24-.08l-.376-.139c-.033.009-.038.018-.038.018v.007l.002.003.065.123c.127.229.262.32.263.321a.739.739 0 0 0 .138.047l.005.001.003.002c.168.094.22.218.228.243zm.3.951-.056-.182c-.002-.005-.16-.525-.298-.739l-.002-.004-.001-.003c-.001-.001-.04-.12-.197-.211a.722.722 0 0 1-.154-.054 1.005 1.005 0 0 1-.283-.343l-.064-.122a.07.07 0 0 1-.006-.062c.011-.027.042-.048.092-.057l.008-.002.393.146c.002 0 .142.057.231.077.084.018.144.07.185.162.026.058.115.3.186.565.002.008.063.219.03.335v.005l-.004.004c-.025.036-.06.108-.053.146l.001.003-.009.336z" fill="#7E8485"/>
            <path fill="#2B312F" d="m9.738 8.363-.152-.027-.349.487z"/>
            <path d="M9.585 8.335s-.35-.07-.613.102c0 0-.16.124-.065.386 0 0 .038.106.128.193l.202-.193.348-.488z" fill="#0092C7"/>
            <path d="M8.507 9.279s.256-.002.388-.13l.49-.467s1.833-1.67 2.224-1.923l1.925-.022s2.82.011 3.472.083l-.794 1.542-.518 1.052s-1.56.08-3.394-.025c-1.742-.1-2.683-.077-2.683-.077l-1.11-.033z" fill="#313835"/>
            <path d="M13.172 6.679 10.14 9.325s3.457.12 4.175.118c.718-.001 1.396-.03 1.396-.03l1.355-2.674-1.808.005-2.087-.065z" fill="#9AA0A2"/>
            <path d="M11.732 13.818c0 .243-.221.439-.494.439-.272 0-.492-.196-.492-.439 0-.242.22-.438.492-.438.273 0 .494.196.494.438" fill="#323937"/>
            <path d="M9.977 10.97c-.246 0-.593-.025-.597-.025-.693-.095-2.394-.157-2.412-.158-.008 0-.84.005-1.128.02-.268.015-.372-.023-.39-.031l-.315-.06.008-.04.322.062c.001.001.094.044.373.03.289-.016 1.122-.021 1.131-.021.018 0 1.721.061 2.415.158.003 0 .41.03.65.025.074-.002.154-.007.232-.013.19-.013.368-.026.469.014l-.016.038c-.091-.037-.274-.024-.45-.012-.078.006-.16.012-.233.013h-.06M14.373 11.96c-.226-.295-.386-.34-.387-.34l-1.263-.274.008-.04 1.264.276c.007.001.174.046.41.352l-.032.025zM12.766 10.367l-.02-.035c.667-.379 1.678-.538 1.763-.551a.175.175 0 0 0 .066-.118c.011-.104-.073-.205-.074-.206l.032-.026c.004.004.096.115.083.237a.216.216 0 0 1-.086.149l-.005.002-.005.001c-.01.002-1.068.157-1.754.547" fill="#757B7C"/>
            <path d="M11.585 13.615s.11.072.072.305c-.038.235-.205.201-.205.201s-.18-.026-.197-.252c-.017-.227.17-.307.17-.307s.089-.015.16.053" fill="#FFFFFE"/>
            <path d="M11.554 13.591s-.088-.06-.15-.002c-.061.055 0 .098 0 .098s.126.05.064.213c-.063.163.09.163.09.163s.088.001.106-.202c.017-.205-.11-.27-.11-.27" fill="#C8CBCC"/>
            <path d="M11.08 13.403s-.04.033.035.02c.075-.015.265-.013.44.169.175.181.085.4.085.4s-.02.101-.167.18c-.147.077-.014.038-.014.038s.18-.08.24-.235c.06-.153.023-.245-.005-.327-.028-.08-.146-.208-.317-.25-.17-.042-.296.005-.296.005" fill="#5C6463"/>
            <path d="m4.82 12.12.116-.243s.112-.241.275-.25c.163-.01 1.181-.003 1.636.007.455.01 2.062.084 2.062.084s.175.005.322.185c.147.18.226.28.226.28s.065.13.03.218c-.033.087-.25.81-.423 1.068 0 0-.108.196-.276.23 0 0-1.392.029-1.88.01-.488-.02-1.26-.073-1.661-.175 0 0-.093-.03-.174-.182a2.41 2.41 0 0 1-.21-.705c-.026-.233-.044-.528-.044-.528" fill="#2B312F"/>
            <path d="M5.34 14.075s-.541-.034-.482-.325l-.155.09-.065-.018-.12.075s.134.206.243.268c0 0 .081.044.207.058l.45.064s-.095-.035-.079-.212" fill="#5C6463"/>
            <path d="M4.58 12.805s-.13.075-.164.19c-.01.033-.042.101-.053.192-.03.226-.019.581.166.605 0 0 .085.037.143-.061.058-.098.068-.34.068-.34l-.16-.586z" fill="#515856"/>
            <path d="M4.666 13.676c-.307-.053-.302-.669-.182-.737.12-.07.182.214.182.214" fill="#181D1B"/>
            <path d="M13.47 10.452s-.665-.204-1.473 0c-.807.203-1.625.692-1.625.692l-.562.386s-.153.102.082.295.368.23.368.23.21-.006.608-.057c.398-.05 1.197-.157 1.197-.157s.24-.03.52-.354c.282-.326.619-.558.619-.558s.265-.142.265-.477" fill="#9EA4A6"/>
            <path d="M12.736 10.372c-.218 0-.47.022-.736.09-.797.2-1.614.686-1.623.69l-.56.386c-.002 0-.043.029-.045.083-.003.057.04.125.126.196.219.18.349.224.363.228.02 0 .231-.01.606-.057.394-.05 1.189-.157 1.197-.158.002 0 .24-.032.513-.35a3.72 3.72 0 0 1 .62-.558.548.548 0 0 0 .262-.463 2.832 2.832 0 0 0-.723-.087zm-2.478 1.694c-.006-.002-.139-.04-.372-.233-.093-.076-.138-.148-.135-.214a.128.128 0 0 1 .054-.097l.562-.387c.008-.006.828-.492 1.628-.693.8-.202 1.47-.002 1.478 0l.006.002v.008c0 .337-.268.485-.271.487a3.678 3.678 0 0 0-.615.555c-.28.325-.517.355-.527.356-.007.001-.802.108-1.196.158-.395.05-.608.058-.61.058h-.002z" fill="#757B7C"/>
            <path d="M4.666 13.152s-.176 0-.181.23a.297.297 0 0 0 .18.294s.057-.015.077-.249l-.076-.275z" fill="#FFFFFE"/>
            <path d="M4.62 13.188s-.061.003-.029.054c.033.05.09.086.064.257-.025.17.007.157.007.157s.042.033.055-.091c.013-.125.015-.18-.015-.263-.031-.083-.056-.122-.083-.114" fill="#C8CBCC"/>
            <path d="M13.175 10.568s-.608-.186-1.347 0c-.737.187-1.486.633-1.486.633l-.514.354s-.14.093.075.27c.215.177.337.21.337.21s.19-.006.556-.053c.364-.046 1.095-.144 1.095-.144s.218-.025.475-.323.565-.51.565-.51.244-.13.244-.437" fill="#B7BBBD"/>
            <path d="M12.191 10.925s-.427-.13-.948 0c-.52.13-1.047.446-1.047.446l-.362.25s-.1.064.052.19c.152.123.238.147.238.147s.135-.003.392-.036l.77-.102s.155-.018.336-.228c.181-.21.398-.358.398-.358s.171-.093.171-.309" fill="#EDEDEC"/>
            <path d="M11.479 11.172s-.3-.092-.665 0c-.366.092-.735.313-.735.313l-.254.175s-.07.046.036.133a.547.547 0 0 0 .166.105s.095-.004.276-.027c.18-.022.541-.071.541-.071s.108-.013.235-.16c.128-.147.28-.252.28-.252s.12-.064.12-.216" fill="#FFFFFE"/>
            <path d="M11.61 6.759s2.043-.042 3.722-.014A22.68 22.68 0 0 1 17 6.82h3.196s2.064.122 3.025.388c0 0 0-.286-.388-.418-.389-.132-1.88-.397-2.535-.468-.654-.07-2.606-.284-3.873-.224-1.268.062-2.025.04-3.18.184-1.155.142-1.635.478-1.635.478" fill="#0092C7"/>
            <path d="M17.023 6.82h.711l-.62 1.298s-.027.353.014.495c.041.143.055.672.055.672s-.544.07-.9.094c-.354.023-.572.035-.572.035l1.312-2.594z" fill="#818888"/>
            <path d="m15.938 9.22.7-.05s.082.01.082-.061.174-.82.373-1.196c.173-.326-.255.109-.624.565a8.78 8.78 0 0 0-.531.742" fill="#1A1E1C"/>
            <path d="M17.728 6.837h2.201s.222.956.276 2.184l-1.638.142-1.384.122s-.129-.908-.075-1.132c.054-.224.62-1.316.62-1.316" fill="#313835"/>
            <path d="M19.973 6.82s.219.532.304 2.2l.702-.074-.531-2.11-.475-.016z" fill="#818888"/>
            <path fill="#1A1E1C" d="m20.154 7.617.48-.037.345 1.366-.703.075z"/>
            <path d="M17.704 6.857h2.201s.197.67.3 2.164h.071s-.071-1.486-.27-2.12c0 0-.01-.052-.028-.073-.013-.014-.045-.009-.08-.009h-2.164l-.03.038z" fill="#373D3B"/>
            <path d="m17.23 7.848 2.829-.21s-.043-.286-.065-.385c-.023-.099-.075-.396-.075-.396h-2.201l-.248.475-.24.516z" fill="#9AA0A2"/>
            <path d="M20.979 8.946s1.567-.136 1.8-.197c0 0-.058-.43-.206-.956 0 0-.12-.445-.216-.648 0 0-.01-.046-.098-.05l-.919-.113-.562-.056-.236-.025s-.101-.112-.09-.044c.014.083.527 2.089.527 2.089" fill="#313835"/>
            <path d="m17.058 9.19.054-.53-.356.56-.016.119s-.007.153.133.147c.139-.006.327-.043.327-.043l.581-.063.077.034.323-.031.04-.058s.38-.058.42-.38l-1.583.246z" fill="#1C201E"/>
            <path d="M17.082 9.297s-.102-.341 0-.58c.113-.264.496-.306.496-.306s.542-.01.767.031c.225.04.296.178.296.31v.194l-.664.117s-.047.075-.005.157l-.89.077z" fill="#0092C7"/>
            <path d="M5.572 10.176s-1.009.372-1.086 1.405c0 0 .08.206.17.24l.294-.449.622-1.196z" fill="#9EA4A6"/>
            <path d="M4.496 11.58c.009.02.08.19.156.229l.29-.442.609-1.171c-.157.067-.985.462-1.055 1.383zm.164.254-.008-.003c-.093-.036-.172-.238-.176-.247v-.004c.077-1.028 1.082-1.41 1.093-1.413l.024-.01-.633 1.22-.3.457z" fill="#757B7C"/>
            <path d="M5.417 10.452s-.838.325-.901 1.16c0 0 .065.167.138.194l.293-.446.47-.908z" fill="#EDEDEC"/>
            <path d="M5.25 10.749s-.667.23-.718.872c0 0 .062.164.122.185l.296-.466.3-.591z" fill="#FFFFFE"/>
            <path d="m20.74 13.951-.039-.01c.001-.004.111-.437.137-.657.02-.155.008-.203-.011-.29a2.253 2.253 0 0 1-.03-.146 1.697 1.697 0 0 1-.026-.343v-.003l.13-.698c.125-.7.103-1.31.091-1.639 0-.045-.003-.085-.004-.12-.006-.277-.212-.645-.215-.649l-.001-.002-.117-.289-.232-1.323c0-.003-.157-.585-.205-.854-.045-.258-.187-.36-.188-.36l.023-.034c.006.004.158.111.206.387.047.267.203.847.204.853l.232 1.322.114.282c.016.027.214.385.22.666l.005.12c.011.33.032.943-.093 1.647l-.13.698c0 .014-.004.139.027.334.01.06.02.103.028.142.02.088.033.142.013.304-.027.223-.137.657-.138.662" fill="#757B7C"/>
            <path d="m18.222 9.326.281-.171 2.852-.243 1.423-.163s-.226-1.197-.421-1.604c0 0 .005-.03-.194-.061a94.514 94.514 0 0 0-1.632-.166l-.055.033-.029-.114s2.042.12 2.82.369c0 0 .636.797.88 1.33 0 0-.278-.55-.661-.797 0 0-.4-.055-.407.034-.008.09-.006.878-.006.878s.02.181-.2.206c-.22.025-3.363.347-3.363.347l-1.288.122z" fill="#373D3B"/>
            <path d="M16.919 14.137c.003.016.035.163.142.155.13-.01 3.623-.362 3.658-.366l1.589-.193c.007 0 .552-.05.7-.375.15-.337.355-.859.357-.864.007-.02.2-.517.303-.695.101-.177.355-.537.358-.54.002-.003.126-.172.165-.631.04-.468.061-.69.061-.692l.001-.003c.001-.005.128-.482-.088-.74a.998.998 0 0 0-.305-.224l-.004-.002-.002-.003a1.671 1.671 0 0 1-.228-.33c-.085-.167-.484-.928-.5-.96l-.412-.618c-.019-.016-.194-.173-.408-.216-.009-.003-.847-.205-2.572-.285-1.717-.08-2.132.108-2.137.11-.002.001-.197.095-.25.248-.056.162-.523 1.058-.543 1.096l-.224.523c-.001.003-.132.29-.152.392-.02.107-.025.138 0 .214a.426.426 0 0 1-.018.237c-.004.016-.048.211 0 .326.017.043.048.09.08.14a.964.964 0 0 1 .163.352c.04.217.111.865.112.872l.042.698.066.9.03.906.016.568zm.132.196c-.11 0-.161-.123-.173-.19v-.003l-.015-.57-.031-.905-.067-.9-.04-.697c-.001-.005-.072-.652-.112-.867-.026-.138-.096-.244-.157-.339a.9.9 0 0 1-.085-.146c-.055-.131-.003-.343 0-.352v-.003a.385.385 0 0 0 .017-.212c-.026-.085-.022-.123 0-.233.02-.107.15-.389.154-.4l.225-.524c.006-.01.486-.933.541-1.092.059-.17.263-.268.271-.272.017-.008.424-.195 2.157-.114 1.714.08 2.556.28 2.579.286.236.048.42.222.429.228l.002.004.416.622c.004.009.415.791.501.962.077.156.2.297.22.319.197.097.31.227.313.231.096.115.142.286.135.494a1.317 1.317 0 0 1-.038.281l-.061.69c-.04.473-.167.644-.173.652-.002.003-.256.362-.356.537-.1.174-.298.684-.3.689-.003.005-.206.529-.358.866-.157.347-.709.396-.733.398l-1.589.193c-.035.004-3.528.357-3.66.366l-.012.001z" fill="#757B7C"/>
            <path d="m20.634 7.58 1.835-.132-.112-.303s-.01-.038-.09-.04c-.083-.004-1.735-.187-1.735-.187s-.056-.015-.056.034c0 .081.158.627.158.627" fill="#9AA0A2"/>
            <path d="M24.655 9.058s-.028-.006-.045.02l.077.142s.066.106.081.122c.016.018.052.042.21.036.158-.005.334.046.372.085a.907.907 0 0 1 .177.274l-.1-.293s-.038-.142-.161-.17c-.123-.03-.611-.216-.611-.216" fill="#DC8893"/>
            <path d="M20.832 9.814s-.066-.06-.421-.013c0 0-.141-.174-.349-.051-.207.122-.157.325-.157.325s.017.112.198.101c0 0 .044-.002.058.051.013.055.156.069.156.069s.164.053.236-.173c0 0 0-.018.095-.014.095.003.201-.04.231-.102.031-.06-.047-.193-.047-.193" fill="#C0C5C6"/>
            <path d="M20.56 10.085s.296.007.32-.078c.023-.084-.048-.193-.048-.193s-.443-.013-.848.136c0 0-.072.027-.038.098.034.07.133.075.133.075l.48-.038z" fill="#EDEDEC"/>
            <mask id="aU" fill="#fff">
                <use xlink:href="#aT"/>
            </mask>
            <path fill="#D6DCDD" mask="url(#aU)" d="M30.853 7.407H61.56V4.898H30.853zM30.853 12.561h21.27V10.9h-21.27zM30.853 16.184h21.27v-1.661h-21.27z"/>
        </g>
        <g transform="translate(61.155 36.346)">
            <g transform="translate(0 .177)">
                <use fill="#000" filter="url(#aV)" xlink:href="#aW"/>
                <use fill="#FFF" xlink:href="#aW"/>
            </g>
            <path d="M17.591 10.99s1.218-.43 1.836 1.272c0 0 .089-1.548-.701-2.133 0 0-.986-.007-1.135.861M24.026 10.443s1.217-.43 1.836 1.272c0 0 .088-1.549-.702-2.133 0 0-.986-.007-1.134.861" fill="#202220"/>
            <path d="M5.322 14.416s.365.84 1.798.805c1.434-.034 1.71-.659 1.71-.659l-2.783-.167-.326.1-.4-.079zM25.053 14.357h-1.096s-.551-.22-.606-1.304c-.046-.878-.263-3.267 1.702-2.98v4.284z" fill="#242A27"/>
            <path d="M25.819 12.215c0 1.183-.343 2.141-.765 2.141-.423 0-.766-.958-.766-2.14 0-1.183.343-2.141.766-2.141.422 0 .765.958.765 2.14" fill="#373D3B"/>
            <path d="M25.674 12.195c0 .936-.237 1.695-.531 1.695-.293 0-.53-.759-.53-1.695s.237-1.695.53-1.695c.294 0 .531.759.531 1.695" fill="#E3E3E2"/>
            <path d="M25.546 12.174c-.032-.037-.093-.076-.124-.07-.032.008-.057-.007-.06-.062-.004-.055.193-.31.221-.326.028-.016.03.196.03.196s.002.14.001.218c0 .079-.036.082-.068.044m-.087.828a2.38 2.38 0 0 1-.148-.402c-.006-.066.013-.091.052-.027s.183.324.147.432c0 0-.014.073-.051-.003m-.103.45s-.041.058-.065.083c-.024.024-.037-.079-.037-.185a3.375 3.375 0 0 0-.02-.382c-.013-.088-.018-.166-.002-.196s.16.455.175.53c.014.078-.05.15-.05.15m-.215-.688c-.021 0-.038-.053-.038-.117s.017-.117.038-.117c.021 0 .039.053.039.117s-.018.117-.039.117m-.065.275c-.013.128-.07.612-.112.521 0 0-.025-.027-.008-.154.018-.128.083-.486.103-.518.02-.031.032.024.017.151m-.226.262c-.021.057-.056-.124-.056-.124s-.026-.117-.038-.185c-.012-.07.019-.127.053-.144a.343.343 0 0 0 .119-.13c.026-.054.05-.08.061-.04.013.043-.117.566-.139.623m-.182-1.163s-.002-.083.043-.083.178.047.195.091c.017.044.005.1-.038.109-.045.01-.212.033-.2-.117m.049-.632s.025-.118.04-.179c.017-.061.046.004.064.093.019.09.06.234.085.287a.29.29 0 0 1 .036.162c-.008.051-.214-.114-.24-.154-.026-.04.015-.209.015-.209m.276.575c.021 0 .038.053.038.117 0 .065-.017.117-.038.117-.021 0-.038-.052-.038-.117 0-.064.017-.117.038-.117m.034-1.305s.025-.03.038.103c.012.133.035.538.027.601-.009.063-.03.043-.045-.083s-.071-.612-.02-.62m.114.855c.021 0 .039.053.039.117 0 .066-.018.117-.039.117s-.038-.051-.038-.117c0-.064.017-.117.038-.117m.086.562c0 .144-.038.26-.085.26-.046 0-.084-.116-.084-.26 0-.142.038-.258.084-.258.047 0 .085.116.085.258m-.059-1.439c.005-.086.07-.013.07-.013s.044.038.067.068c.023.03.012.135-.011.214-.023.08-.056.239-.065.332-.01.092-.022.16-.04.152-.02-.009-.026-.666-.021-.753m.155 1.443c0 .065-.017.117-.038.117-.021 0-.038-.052-.038-.117 0-.064.017-.117.038-.117.021 0 .038.053.038.117m.022-.603c.033-.089.16-.42.181-.28 0 0 .018.063-.018.148-.036.084-.15.295-.173.291-.022-.003-.023-.07.01-.159m-.203-1.095c-.304 0-.55.759-.55 1.694 0 .937.246 1.696.55 1.696.305 0 .551-.76.551-1.696 0-.935-.246-1.694-.551-1.694" fill="#A7ACAE"/>
            <path d="M5.546 14.464s.06.16.455.167c.395.007.554-.068.554-.068l1.337.069 3.262.142 1.965.035 1.496.069c.448.021.675.13.675.13l.07.035h.668l.234-.363-1.902.082s-1.04.082-1.359-.158l-1.31-.014-2.232-.025-1.684-.078-1.728-.092-.326.098-.175-.03z" fill="#20211F"/>
            <path d="M19.326 11.593s-.201-1.235-.91-1.225c-.707.008-1.315 1.564-1.314 3.586v.247s.165.32-.35.421c-.514.1-2.711.146-2.711.146s-.561.037-1.04-.164l-3.723-.046-3.245-.192-.313.127s-.863-.127-1.066-.347l-.128-.777s-.129-.94.083-1.104c0 0 .253-.873.257-1.249 0 0 .064-.763.358-1.033.327-.3.368-.302.68-.504.313-.2.754-.476.957-.613.202-.137 1.535-.615 1.948-.753l.214-.008.495-.007h.127l.296-.014 2.904.032h5.599s.193-.028.303-.32c.111-.293.478-1.63.478-1.63s.184-.905 1.011-.97c.828-.063 2.244.184 3.007.788 0 0 .716.879.956 1.263 0 0 .183.31.441.54.257.228.579.394.68.777.102.385.295 1.126.295 1.126s.404.832.175 2.553c0 0 .11-2.782-.663-2.306 0 0-.671.512-.946 2.68l.063.477s-.1.219-.21.275l-4.496.887s0-1.574-.212-2.663" fill="#FFFFFE"/>
            <path d="M4.608 13.868s.497.223.755.169c.257-.055.367-.86.826-1.025.46-.165 1.067-.092 1.067-.092l4.266.147s.56.02.956.407c.395.389.9.837.9.837s.083.046.294.036c.212-.009 2.152-.1 2.41-.155 0 0-.11.121-.506.157-.396.035-1.839.099-2.252.063-.415-.037-.36-.183-.671-.183-.313 0-3.898-.138-3.898-.138l-2.704-.073s-.367.046-.596.137c-.23.092-.763-.116-.847-.287" fill="#2B312F"/>
            <path d="M12.154 5.712s1.114-.146 2.962-.131c1.848.016 3.497-.027 4.242.174 0 0-.169.455-.238.79-.07.336-.373 1.25-.373 1.25s-.027.363-.578.314c-.553-.048-2.44 0-2.44 0l-3.822-.011-2.629-.027s1.684-1.828 2.876-2.36" fill="#464D4B"/>
            <path d="M12.138 5.911s-.647.328-1.214.824c-.567.496-1.489 1.272-.9 1.253.588-.018 2.945.01 3.665 0 .72-.01 3.523-.004 4.102.002.58.007.544-.061.69-.36.202-.41.423-1.271.423-1.298 0-.028.266-.505-.24-.522-.505-.018-4.913-.265-6.526.101" fill="#2B312F"/>
            <path d="M12.097 5.81s.417-.175 2.752-.185c2.336-.008 3.12-.044 4.125.087.08.01.183.098.183.098s.45-.827 1.974-.608c0 0-1.18-.132-2.439-.124-1.26.01-3.448-.018-5.029.192 0 0-.587-.065-1.566.54" fill="#FFFFFE"/>
            <path d="M16.997 5.72c.839 0 1.371.022 1.98.122.063.01.136.07.173.105.075-.136.396-.64 1.153-.761a17.969 17.969 0 0 0-1.61-.066 84.57 84.57 0 0 1-.583.002c-1.302.005-3.086.011-4.443.236-.012 0-.535-.062-1.399.552.289-.066.99-.169 2.582-.176l1.126-.009c.389-.003.724-.006 1.02-.006zm2.169.33-.026-.026c-.027-.029-.111-.105-.17-.115-.821-.133-1.502-.127-2.994-.115-.332.003-.703.006-1.126.008-2.292.011-2.738.224-2.742.227l-.025-.06c.976-.752 1.56-.681 1.583-.678 1.355-.226 3.14-.232 4.444-.237.21-.001.405-.001.582-.003.84-.01 1.654.064 2.097.113.108.006.223.02.345.041l-.007.068a11.924 11.924 0 0 0-.344-.042c-1.215-.068-1.597.774-1.602.783l-.015.036z" fill="#757B7C"/>
            <path d="M18.444 8.116s.2.036.347-.505c.109-.401.444-1.503.444-1.503s.226-.957 1.23-.957c0 0-1.01-.027-1.295.55-.285.576-.58 2.29-.91 2.324-.412.042-3.134.011-3.134.011l-5.397-.003s-.377.065.294-.557c.671-.623 1.48-1.318 1.894-1.547.413-.229 1.035-.569 1.834-.67 0 0-1.19-.016-2.257.698-.887.594-1.754 1.413-1.754 1.413s-.673.566-.765.621c-.091.055-.286.138-.12.138l4.402.016s4.502-.027 5.187-.029" fill="#2B312F"/>
            <path d="M6.044 14.367h.004l3.232.164 3.733.047c.465.197 1.02.164 1.026.162.023 0 2.202-.046 2.708-.146.175-.033.287-.097.332-.187a.231.231 0 0 0-.002-.193l-.003-.013v-.247c0-1.983.602-3.605 1.341-3.614h.01c.297 0 .552.216.737.625.136.302.19.609.191.623.193.991.21 2.4.212 2.634l4.459-.88c.08-.043.162-.19.192-.252l-.064-.472.001-.004c.275-2.155.93-2.678.957-2.7.114-.07.216-.078.306-.026.314.182.39 1.112.404 1.747.074-1.286-.227-1.926-.23-1.933-.003-.005-.196-.747-.296-1.13-.076-.29-.277-.448-.49-.615-.06-.048-.123-.097-.182-.15a2.612 2.612 0 0 1-.447-.546c-.235-.378-.947-1.251-.954-1.26-.721-.57-2.096-.851-2.957-.786-.798.061-1.01.95-1.012.958-.016.056-.37 1.341-.48 1.633-.114.304-.316.336-.324.337l-5.602.001-2.906-.033-.422.014-.494.008-.21.007c-.412.137-1.74.615-1.938.75-.127.086-.344.223-.573.368l-.383.244-.158.1c-.183.115-.258.162-.519.401-.283.26-.349 1.009-.35 1.016-.004.372-.248 1.218-.258 1.254l-.002.008-.007.005c-.163.128-.108.822-.073 1.079l.127.768c.195.198.962.321 1.04.333l.324-.099zm7.893.431c-.185 0-.587-.02-.94-.167l-3.719-.045-3.228-.163-.327.1-.007-.002c-.035-.005-.876-.132-1.082-.356l-.005-.006-.002-.009-.129-.777c-.013-.098-.121-.94.086-1.123.025-.09.25-.886.254-1.234.003-.033.069-.78.367-1.053.265-.243.342-.291.528-.407l.157-.1c.116-.075.25-.16.384-.244.228-.145.445-.283.571-.368.205-.14 1.533-.617 1.955-.757l.008-.002.214-.008.546-.007.372-.013 2.906.031h5.597c.004 0 .176-.03.279-.302.108-.288.473-1.613.477-1.626.002-.009.223-.935 1.06-1 .889-.069 2.255.213 3 .803.013.012.726.888.963 1.27.003.003.185.31.436.533.057.051.12.1.18.147.21.167.428.338.509.644l.295 1.126c.001.003.403.855.174 2.564l-.055-.005c.001-.02.077-2.046-.373-2.306-.072-.042-.152-.034-.247.024-.004.004-.662.533-.933 2.658l.065.48-.004.007c-.004.01-.106.23-.224.288l-.007.003-4.527.894v-.034c0-.015-.003-1.584-.212-2.658-.002-.013-.205-1.204-.875-1.204h-.008c-.71.01-1.287 1.607-1.287 3.56v.24a.291.291 0 0 1 0 .237c-.052.107-.177.18-.37.218-.513.1-2.628.145-2.718.147-.002 0-.04.002-.104.002z" fill="#757B7C"/>
            <path d="M15.718 14.744s.182 1.046 2.132.978c0 0 .715-.02 1.143-.593l-.515.278-.887.013-.763-.546-.146-.212-.964.082z" fill="#242A27"/>
            <path d="M19.676 13.18c0 1.362-.79 2.466-1.763 2.466-.57 0-1.076-.377-1.398-.963-.005-.008.24-.011.428-.09a.302.302 0 0 0 .144-.113c.168-.231.041-1.086.076-1.33.125-.882.211-1.522.407-1.91.158-.312.311-.53.321-.53l.033.003c.973 0 1.752 1.105 1.752 2.467" fill="#373D3B"/>
            <path d="M19.441 13.224c0 1.149-.62 2.08-1.386 2.08-.414 0-.786-.274-1.04-.706-.006-.011-.021-.03-.018-.032.058-.036.072-.067.083-.077.013-.012.024-.035.054-.114a.239.239 0 0 0-.005-.18c-.007-.019.001-.065 0-.084-.004-.094 0-.063.002-.346.002-.198.01-.328.024-.522a7.95 7.95 0 0 1 .151-1.08c.043-.218.085-.409.124-.545.07-.243.115-.333.126-.34a.947.947 0 0 1 .5-.133c.765 0 1.385.93 1.385 2.079" fill="#E3E3E2"/>
            <path d="M19.068 13.201a.677.677 0 0 0-.31-.085c-.078.009-.14-.009-.15-.076-.01-.067.484-.38.554-.4.07-.02.072.24.072.24s.01.171.007.268c-.002.096-.092.1-.173.053zm-.217 1.016c-.095-.093-.352-.413-.369-.494-.017-.081.033-.112.129-.033.096.08.458.397.368.53 0 0-.033.089-.128-.003zm-.256.551s-.104.071-.165.101c-.06.03-.093-.096-.092-.227.002-.13-.02-.36-.051-.468-.032-.108-.042-.204-.004-.24.039-.037.401.557.438.652.035.093-.126.182-.126.182zm-.534-1.223c-.117 0-.211-.143-.211-.319 0-.175.094-.317.211-.317.116 0 .21.142.21.317 0 .176-.094.319-.21.319zm-.003.38c-.053 0-.095-.064-.095-.144 0-.08.042-.144.095-.144.052 0 .096.064.096.144 0 .08-.044.144-.096.144zm-.162.338c-.035.155-.178.749-.281.637 0 0-.064-.033-.02-.19.043-.156.206-.594.256-.634.05-.038.08.03.045.187zm-.708.167s-.01-.15-.042-.235c-.03-.083-.006-.147.079-.168a.778.778 0 0 0 .297-.16c.066-.065.126-.098.157-.046.03.05-.294.692-.35.762-.054.07-.141-.153-.141-.153zm-.015-1.343c.113 0 .253.026.296.08.043.055.012.122-.098.133-.046.006-.114.016-.215.01l.017-.223zm.12-.767c.045.11.11.243.176.31.066.065.11.136.09.198-.02.063-.258-.03-.323-.08l.056-.428zm.393.767c.053 0 .096.064.096.144 0 .08-.043.143-.096.143-.052 0-.095-.064-.095-.143 0-.08.043-.144.095-.144zm.085-1.6s.063-.035.096.127c.032.163.09.659.068.737-.024.078-.075.053-.113-.102-.04-.154-.177-.75-.05-.762zm.287 1.05c.052 0 .096.065.096.143 0 .08-.044.145-.096.145-.053 0-.095-.065-.095-.145 0-.078.042-.143.095-.143zm.068-1.075c.012-.106.174-.017.174-.017s.11.048.169.085c.059.036.029.165-.028.262a1.66 1.66 0 0 0-.164.407c-.023.113-.056.196-.101.185-.045-.01-.064-.816-.05-.922zm.387 1.77c0 .078-.042.142-.096.142-.052 0-.095-.064-.095-.143 0-.08.043-.144.095-.144.054 0 .096.064.096.144zm.054-.74c.082-.11.403-.516.455-.342 0 0 .044.076-.045.18-.09.102-.378.361-.434.357-.056-.004-.058-.085.024-.195zm-.491-1.348c-.18-.004-.477.023-.535.15-.05.11-.114.34-.16.52a9.716 9.716 0 0 0-.196 1.074c-.054.398-.052.67-.057 1.06v.088c0 .027.001.058-.003.088a.151.151 0 0 0 .004.075c.017.05.03.109.005.182a.325.325 0 0 1-.137.19l.01.019c.252.456.627.715 1.054.715.762 0 1.38-.93 1.38-2.079 0-1.146-.61-2.064-1.365-2.082z" fill="#A7ACAE"/>
            <path d="m8.984 10.596-2.408.055s-.469-.009-.625.228c-.157.239-.267.513-.267.513s-.221.393.358.686l.304.165s.496.174 2.638.256c2.142.083 2.786-.073 2.786-.073s.929-.192 1.14-.613c0 0-.286-.98-.947-1.09-.662-.109-2.979-.127-2.979-.127" fill="#2B312F"/>
            <path d="M9.904 11.557h2.573s.157 0 .185.054c.027.055-.083.11-.166.101-.082-.01-2.639.001-2.639.001s-.137-.046-.11-.079c.028-.031.157-.077.157-.077" fill="#EEF0F0"/>
            <path d="M8.956 10.907c-.32 0-.58.3-.58.668 0 .368.26.668.58.668.32 0 .579-.3.579-.668 0-.368-.26-.668-.58-.668m0 1.446c-.38 0-.69-.35-.69-.778 0-.429.31-.778.69-.778.381 0 .69.35.69.778 0 .429-.309.778-.69.778" fill="#F2F4F4"/>
            <path fill="#F2F4F4" d="m8.975 10.853-.138.649-.478.425.552-.251.606.311-.493-.485z"/>
            <path d="M12.436 12.799s.22-.206.69-.234c.468-.027 1.41-.111 1.774-.062.363.049 1.19.722 1.273 1.572" fill="#757B7C"/>
            <path d="m16.136 13.954-1.609-.046s-.284.032-.486-.245c-.203-.276-.276-.57-.276-.57s-.092-.228.211-.273l1.085-.166s.276-.081.772.614c.497.696.303.686.303.686" fill="#2B312F"/>
            <path d="M6.001 12.681s-.175-.22-.543-.303c-.298-.067-.819-.243-.92 0 0 0-.118.615.07 1.43" fill="#757B7C"/>
            <path d="m4.82 13.606.331.057s.22.108.312-.24c.092-.347.083-.631.083-.631s.009-.257-.643-.403c0 0-.203-.055-.24.183-.036.238-.008 1.005.157 1.034" fill="#2B312F"/>
            <path d="m12.91 10.852.11-.073s2.243-.577 3.42-.65c0 0 .203-.028.598.362 0 0-1.317.636-2.979 1.144 0 0-.24.105-.496 0l-.653-.783z" fill="#9EA4A6"/>
            <path d="M13.58 11.612a.66.66 0 0 0 .468-.002 23.684 23.684 0 0 0 2.941-1.127c-.359-.344-.545-.326-.546-.326-1.137.07-3.297.618-3.411.648l-.081.053.628.754zm.226.098a.658.658 0 0 1-.254-.05l-.01-.008-.673-.806.144-.094c.023-.006 2.26-.578 3.425-.65.008 0 .22-.024.62.37l.027.026-.036.017c-.012.007-1.337.643-2.982 1.146-.005.002-.112.05-.26.05z" fill="#757B7C"/>
            <path d="m13.06 10.943.098-.066s1.99-.51 3.033-.576c0 0 .232-.05.583.295 0 0-1.222.601-2.696 1.052 0 0-.21.083-.44-.011l-.578-.694z" fill="#B7BBBD"/>
            <path d="m13.994 11.67-.475-.68s1.551-.477 2.176-.504c0 0 .331-.046.478.11 0 0-.018.18-.183.35 0 0-.45.199-1.1.432-.762.274-.896.293-.896.293" fill="#EDEDEC"/>
            <path d="M4.865 11.042s.383.446.681.514l.334-.85s-.649-.472-.656-.723c0 0-.108.047-.261.418-.103.246-.098.64-.098.64" fill="#9EA4A6"/>
            <path d="M4.893 11.032c.05.056.375.416.636.492l.318-.809c-.1-.074-.575-.437-.642-.681-.04.04-.12.141-.217.377-.09.217-.095.558-.095.62zm.67.557-.023-.006c-.303-.07-.68-.505-.696-.524l-.006-.007v-.01c0-.016-.004-.404.1-.653.153-.37.263-.426.275-.431l.038-.017.001.04c.006.196.467.574.644.703l.018.012-.351.893z" fill="#757B7C"/>
            <path d="m13.994 11.67-.305-.439s.99-.302 1.383-.319c0 0 .209-.029.302.07 0 0-.013.153-.116.26 0 0-.516.185-.687.249-.178.066-.577.18-.577.18" fill="#FFFFFE"/>
            <path d="M6.576 10.65s-.32.02-.541.307c-.183.238-.25.526-.25.526s-.07.325.344.641c0 0-.606-.239-.47-.665.052-.167.121-.279.15-.35.044-.1.185-.287.185-.287s.134-.188.582-.171" fill="#3A403E"/>
            <path d="M6 11.532h1.994s.12 0 .142.053c.022.053-.064.106-.128.098-.064-.01-2.043 0-2.043 0s-.107-.044-.085-.075a.425.425 0 0 1 .12-.076" fill="#EEF0F0"/>
            <path d="M24.162 7.782s-.101.041-.267.05c-.165.01-1.792.138-2.344.229-.551.091-2.226.468-2.294.491-.116.04-.114-.28-.078-.546.037-.265.145-2.425 1.545-2.48 1.07-.04 1.616.125 2.35.726.729.595 1.088 1.53 1.088 1.53" fill="#4E5554"/>
            <path d="M21.22 5.682s1.683-.2 2.804 2.031c0 0-1.526.047-1.848.128 0 0-.68-1.756-.956-2.159M20.89 5.677s.644 1.405.805 2.22c0 0-2.083.412-2.35.521 0 0-.01-1.098.386-2.114 0 0 .184-.64 1.158-.627" fill="#2B312F"/>
            <path d="M19.703 6.4s.272-.754 1.173-.663c0 0 .463.906.776 2.16l.054.016s-.334-1.463-.803-2.244c0 0-1.034-.053-1.2.731M21.213 5.668l.035.076s.89.006 1.365.343c0 0 .59 1.16.708 1.66l.11-.01s-.531-1.263-.667-1.492c0 0-.033-.165.163.065.1.118.277.295.455.511.169.207.338.451.445.628 0 0 .161.23.096.264 0 0 .06.002.113 0 .057-.002-.024-.048-.037-.082-.012-.03-.78-1.654-2.124-1.894-.204-.037-.385-.078-.662-.07" fill="#414846"/>
            <path d="m23.32 7.742-.061-.213s-.265.113-.343.24l.405-.027zM23.62 7.146s.05.133-.055.22c-.107.087-.212.233-.134.37l.322-.013s.032-.083.055-.184c.023-.1-.083-.255-.188-.393" fill="#4E5554"/>
            <path d="M21.983 7.87a.028.028 0 0 1-.027-.021c-.263-.992-.91-2.15-.916-2.163l-.005-.009.003-.011c.011-.046-.028-.093-.028-.093a.026.026 0 0 1 .002-.039c.01-.01.029-.01.038.002.002.003.054.063.043.133.061.11.665 1.214.917 2.166a.028.028 0 0 1-.02.033l-.007.001" fill="#5E6665"/>
            <path d="m19.86 8.464.386.229.165-.046.221-.238s.115-.032.482-.023c.368.01.433-.174.473-.37.042-.197-.165-.335-.381-.421a3.118 3.118 0 0 0-.832-.174c-.174 0-.335.045-.358.187-.023.143-.06.325.045.682 0 0 .024.036-.036.064-.06.027-.165.11-.165.11" fill="#2B312F"/>
            <path d="m21.069 8.112.055-.083.467-.09s.022-.201-.41-.354c-.258-.092-.836-.251-1.067-.11-.225.136-.121.716-.048.836l.175.073.391.025.578-.025s.32.016.368-.327l-.51.055z" fill="#0092C7"/>
            <path d="M4.999 11.126s.3.349.533.403l.26-.667s-.569-.385-.575-.582c0 0-.057.07-.16.393-.063.199-.058.453-.058.453" fill="#B7BBBD"/>
            <path d="M5.083 11.191s.253.295.451.34l.221-.562s-.499-.335-.504-.5c0 0-.035.056-.137.3-.068.164-.03.422-.03.422" fill="#EDEDEC"/>
            <path d="M5.184 11.263s.2.233.355.268l.174-.444s-.393-.263-.396-.394c0 0-.029.044-.109.237-.053.13-.024.333-.024.333" fill="#EEF0F0"/>
            <path d="M9.058 9.963c.002.072.102.128.224.125.122-.003.22-.064.217-.135-.002-.073-.102-.13-.224-.125-.121.002-.219.063-.217.135M19.653 13.7l.01-.043c.082-.377.136-1.807.082-3.253-.054-1.422-.417-1.837-.421-1.841-.01-.011-.009-.028.002-.039a.028.028 0 0 1 .04.002c.015.016.38.429.434 1.876.053 1.401.004 2.788-.075 3.225l4.45-1.036c.014-.003.03.006.032.02a.028.028 0 0 1-.02.034L19.653 13.7z" fill="#757B7C"/>
            <path d="M22.498 13.011h-.003a.027.027 0 0 1-.024-.03c.003-.034.344-3.423.001-4.444a1.48 1.48 0 0 0-.352-.547l-.145-.1a.026.026 0 0 1-.007-.037.026.026 0 0 1 .038-.008l.15.102c.013.012.257.24.368.572.348 1.033.016 4.328.001 4.467a.027.027 0 0 1-.027.025" fill="#5E6665"/>
            <path d="m24.185 12.616-.055-.006c0-.01.121-1.125.539-2.844.328-1.355-.596-1.951-.606-1.957l.03-.046c.01.005.967.622.629 2.015-.417 1.716-.536 2.828-.537 2.838" fill="#757B7C"/>
            <path d="M22.48 8.818s-.053-.05-.343-.01c0 0-.115-.142-.284-.043-.169.1-.127.265-.127.265s.013.091.16.083c0 0 .037-.003.047.041.012.044.128.056.128.056s.133.044.191-.141c0 0 0-.014.078-.011.078.003.164-.034.189-.083.025-.05-.039-.157-.039-.157" fill="#C0C5C6"/>
            <path d="M22.258 9.039s.242.005.261-.064c.02-.07-.039-.158-.039-.158s-.36-.01-.69.111c0 0-.06.022-.031.08.028.058.108.061.108.061l.391-.03z" fill="#EDEDEC"/>
            <path d="M24.497 8.61s-.042-.04-.268-.01c0 0-.09-.11-.222-.032s-.1.207-.1.207.011.072.126.065c0 0 .028-.002.037.033.009.034.1.043.1.043s.104.033.15-.11c0 0 0-.011.06-.01.06.002.127-.025.147-.064.02-.04-.03-.123-.03-.123" fill="#C0C5C6"/>
            <path d="M24.323 8.782s.189.004.204-.05c.016-.054-.03-.122-.03-.122s-.282-.009-.54.085c0 0-.045.017-.024.063.022.045.085.048.085.048l.305-.024z" fill="#EDEDEC"/>
            <mask id="aY" fill="#fff">
                <use xlink:href="#aX"/>
            </mask>
            <path fill="#D6DCDD" mask="url(#aY)" d="M30.853 6.707H61.56v-2.51H30.853zM30.853 11.86h21.27v-1.661h-21.27zM30.853 15.483h21.27v-1.661h-21.27z"/>
        </g>
        <g>
            <g filter="url(#aZ)" transform="translate(32.986 13.916)" fill-rule="nonzero">
                <path d="M12.989 0c-.151 0-.31 0-.46.007C6.04.229.677 5.246.058 11.67a13.003 13.003 0 0 0 .172 3.687s.02.15.092.432c.197.884.493 1.742.868 2.541 1.336 3.15 4.264 8.004 10.62 13.256a1.88 1.88 0 0 0 2.382 0c6.35-5.246 9.278-10.105 10.607-13.23.381-.818.678-1.683.875-2.56a4.65 4.65 0 0 0 .085-.413c.158-.805.237-1.63.237-2.456C25.984 5.803 20.154 0 12.99 0z" fill="#48A1D5"/>
                <use fill="#00A3DA" xlink:href="#ba"/>
            </g>
            <use fill="#FFF" xlink:href="#bb" transform="translate(31.577 12.514)"/>
        </g>
    </g>
</svg>
