<svg width="71" height="60" xmlns="http://www.w3.org/2000/svg">
    <g fill="#00A3DA" fill-rule="evenodd">
        <path d="m59.015 55.63-.936-2.217a12.204 12.204 0 0 0 2.466-1.403c5.388-3.95 6.558-11.55 2.606-16.94a12.08 12.08 0 0 0-5.07-4.004l.93-2.22a14.5 14.5 0 0 1 6.08 4.8c4.737 6.461 3.336 15.569-3.123 20.308a14.67 14.67 0 0 1-2.953 1.675M47.605 55.572a14.525 14.525 0 0 1-5.942-4.744c-4.736-6.46-3.334-15.57 3.125-20.305a14.545 14.545 0 0 1 2.814-1.618l.96 2.207c-.826.359-1.617.814-2.35 1.351-5.39 3.952-6.56 11.552-2.609 16.94a12.102 12.102 0 0 0 4.957 3.958l-.955 2.21zM19.914 28.6a3.13 3.13 0 0 0-3.126 3.127 3.13 3.13 0 0 0 3.126 3.126 3.13 3.13 0 0 0 3.127-3.126 3.13 3.13 0 0 0-3.127-3.126m0 8.659a5.54 5.54 0 0 1-5.533-5.533 5.539 5.539 0 0 1 5.533-5.532 5.538 5.538 0 0 1 5.533 5.532 5.54 5.54 0 0 1-5.533 5.533"/>
        <path d="M16.689 53.23h-3.246c-2.197 0-3.792-1.582-3.792-3.763v-3.075c-1.265-1.3-3.57-4.082-3.57-10.316 0-6.433 2.059-10.89 3.357-12.19l1.702 1.702c-.527.527-2.652 4.048-2.652 10.488 0 5.757 2.132 7.886 3.157 8.91l.413.412v4.07c0 1.258 1.06 1.356 1.385 1.356h3.246c.367 0 1.415-.26 1.415-1.417v-4.119h15.1v2.407H20.51v1.712c0 1.88-1.43 3.823-3.821 3.823M62.935 14.783h-1.398c-1.424 0-2.669 1.075-3.494 1.784l-.145.126c-1.478-3.347-3.277-7.403-3.59-8.026-1.19-2.364-3.921-5.124-7.701-5.124H22.869c-3.78 0-6.51 2.76-7.702 5.124-.316.63-2.114 4.684-3.59 8.026l-.147-.126c-.823-.71-2.069-1.784-3.493-1.784H6.541a2.578 2.578 0 0 0-2.575 2.575v2.71c0 1.324.863 2.69 2.308 2.69H8.26v-2.406H6.434a.78.78 0 0 1-.06-.284v-2.71c0-.091.074-.168.167-.168h1.396c.53 0 1.402.751 1.923 1.2.622.536 1.072.923 1.696.923.558 0 1.583-.198 2.171-1.53 2.052-4.65 3.361-7.578 3.59-8.034.883-1.753 2.865-3.8 5.552-3.8h23.738c2.684 0 4.669 2.047 5.551 3.8.227.45 1.535 3.378 3.59 8.034.588 1.332 1.613 1.53 2.171 1.53.626 0 1.074-.387 1.696-.923.52-.449 1.392-1.2 1.922-1.2h1.398c.092 0 .166.077.166.168v2.71c0 .1-.028.21-.06.284h-1.829v2.406h1.99c1.444 0 2.306-1.366 2.306-2.69v-2.71a2.577 2.577 0 0 0-2.573-2.575M57.81 44.285c0-2.228-1.501-3.019-3.12-3.542a39.713 39.713 0 0 0-.585-.187c-1.165-.366-2.171-.682-2.171-1.532 0-.985.73-1.484 2.165-1.484 1.251 0 2.324.352 2.334.356l.083.027.066-.06c.386-.364.636-1.038.636-1.719v-.08l-.07-.045c-.036-.024-.844-.513-2.622-.616v-2.501H52.12v2.7c-1.707.468-2.657 1.682-2.657 3.49 0 2.325 1.716 3.025 3.326 3.497l.247.073c1.246.353 2.231.634 2.231 1.691 0 .984-.681 1.484-2.028 1.484-1.54 0-2.994-.55-3.009-.556l-.087-.034-.067.065c-.418.395-.659 1.045-.659 1.784v.087l.073.042c.048.027.991.564 2.63.763v2.747h2.407v-2.762c2.125-.33 3.283-1.609 3.283-3.688"/>
    </g>
</svg>
