<svg width="71" height="60" xmlns="http://www.w3.org/2000/svg">
    <g fill="#00A3DA" fill-rule="evenodd">
        <path d="M19.882 29.817c-1.722 0-3.12 1.4-3.12 3.12 0 1.72 1.398 3.12 3.12 3.12 1.719 0 3.118-1.4 3.118-3.12 0-1.72-1.4-3.12-3.118-3.12m0 8.642a5.529 5.529 0 0 1-5.523-5.522 5.529 5.529 0 0 1 5.523-5.522 5.528 5.528 0 0 1 5.52 5.522 5.528 5.528 0 0 1-5.52 5.522"/>
        <path d="M16.662 54.395h-3.238c-2.193 0-3.785-1.578-3.785-3.753v-3.07c-1.262-1.298-3.564-4.075-3.564-10.295 0-6.42 2.056-10.869 3.35-12.164l1.7 1.698c-.525.525-2.647 4.038-2.647 10.466 0 5.745 2.128 7.87 3.151 8.891l.412.411v4.063c0 1.255 1.058 1.352 1.383 1.352h3.238c.365 0 1.412-.259 1.412-1.412v-4.11h15.07v2.4H20.474v1.71c0 1.875-1.426 3.813-3.813 3.813M59.027 56.782l-.935-2.212a12.252 12.252 0 0 0 2.462-1.398 12.01 12.01 0 0 0 4.8-7.914 12.017 12.017 0 0 0-2.2-8.993 12.105 12.105 0 0 0-5.06-3.996l.928-2.213a14.462 14.462 0 0 1 6.068 4.79 14.4 14.4 0 0 1 2.638 10.777 14.405 14.405 0 0 1-5.755 9.487 14.552 14.552 0 0 1-2.946 1.672M47.631 56.733A14.494 14.494 0 0 1 41.701 52c-4.726-6.447-3.327-15.537 3.118-20.263a14.512 14.512 0 0 1 2.81-1.616l.957 2.203c-.824.358-1.614.812-2.347 1.35-5.378 3.942-6.545 11.527-2.601 16.905a12.086 12.086 0 0 0 4.947 3.949l-.954 2.205zM62.812 16.028H61.42c-1.42 0-2.665 1.072-3.486 1.78-.046.04-.096.083-.147.125-1.471-3.334-3.266-7.38-3.581-8.008-1.19-2.359-3.913-5.114-7.687-5.114H22.829c-3.772 0-6.498 2.755-7.685 5.114-.316.628-2.112 4.674-3.583 8.008-.05-.042-.1-.086-.144-.125-.824-.708-2.067-1.78-3.487-1.78H6.535a2.573 2.573 0 0 0-2.568 2.57v2.704c0 1.32.86 2.685 2.302 2.685h1.984v-2.401H6.429a.766.766 0 0 1-.061-.284v-2.705c0-.092.076-.167.167-.167H7.93c.528 0 1.398.75 1.918 1.198.621.534 1.068.921 1.691.921.558 0 1.58-.198 2.168-1.528 2.047-4.64 3.353-7.562 3.583-8.017.88-1.749 2.86-3.791 5.539-3.791h23.689c2.681 0 4.66 2.042 5.54 3.791.23.455 1.534 3.377 3.583 8.017.587 1.33 1.61 1.528 2.168 1.528.622 0 1.071-.387 1.692-.921.519-.448 1.388-1.198 1.918-1.198h1.393c.093 0 .168.075.168.167v2.705c0 .1-.03.209-.06.284h-1.824v2.401h1.984c1.442 0 2.302-1.364 2.302-2.685v-2.705a2.573 2.573 0 0 0-2.57-2.57"/>
        <path d="M47.951 44.836a1.03 1.03 0 0 1 .327-.73c.197-.192.456-.293.724-.293.295 0 .556.11.761.323l.974 1.024a1.58 1.58 0 0 0 1.133.477h.048a1.573 1.573 0 0 0 1.156-.568l4.755-5.804a1.058 1.058 0 0 1 1.487-.152c.215.177.351.427.376.71.029.277-.053.552-.232.768l-6.638 8.098c-.193.232-.47.37-.79.382h-.023c-.288 0-.563-.118-.761-.325l-3.01-3.157a1.026 1.026 0 0 1-.287-.753m4.058 6.158c.05 0 .093 0 .11-.004a2.993 2.993 0 0 0 2.19-1.083l6.638-8.096a2.966 2.966 0 0 0 .657-2.178 2.94 2.94 0 0 0-1.07-2.003 2.97 2.97 0 0 0-1.883-.675c-.894 0-1.728.395-2.304 1.086l-4.502 5.496-.69-.723a2.953 2.953 0 0 0-2.153-.924c-.765 0-1.496.293-2.051.824a2.948 2.948 0 0 0-.92 2.078c-.022.79.267 1.544.818 2.12l3.007 3.158a2.98 2.98 0 0 0 2.153.924"/>
    </g>
</svg>
