<svg width="71" height="60" xmlns="http://www.w3.org/2000/svg">
    <g fill="#00A3DA" fill-rule="evenodd">
        <path d="M19.85 29.391a3.118 3.118 0 0 0-3.115 3.115 3.118 3.118 0 0 0 3.115 3.113 3.117 3.117 0 0 0 3.113-3.113 3.117 3.117 0 0 0-3.113-3.115m0 8.625a5.516 5.516 0 0 1-5.51-5.51 5.518 5.518 0 0 1 5.51-5.511 5.518 5.518 0 0 1 5.51 5.51c0 3.04-2.472 5.51-5.51 5.51"/>
        <path d="M16.637 53.923h-3.232c-2.19 0-3.776-1.576-3.776-3.748v-3.063c-1.26-1.295-3.558-4.066-3.558-10.275 0-6.407 2.051-10.847 3.344-12.14l1.695 1.695c-.524.524-2.64 4.032-2.64 10.445 0 5.734 2.123 7.855 3.143 8.874l.413.411v4.053c0 1.253 1.055 1.351 1.379 1.351h3.232c.365 0 1.408-.26 1.408-1.41v-4.103h15.042v2.397H20.444v1.706c0 1.872-1.425 3.807-3.807 3.807M59.043 56.305l-.932-2.208a12.227 12.227 0 0 0 2.457-1.395 11.994 11.994 0 0 0 4.79-7.898 12.003 12.003 0 0 0-2.195-8.975 12.06 12.06 0 0 0-5.051-3.989l.927-2.21a14.447 14.447 0 0 1 6.057 4.781 14.375 14.375 0 0 1 2.632 10.757 14.376 14.376 0 0 1-5.745 9.467 14.525 14.525 0 0 1-2.94 1.67M47.67 56.255a14.466 14.466 0 0 1-5.918-4.724c-4.718-6.434-3.321-15.506 3.112-20.224a14.567 14.567 0 0 1 2.805-1.611l.954 2.198c-.822.358-1.61.81-2.342 1.347-5.368 3.935-6.532 11.505-2.597 16.872a12.067 12.067 0 0 0 4.938 3.942l-.952 2.2zM62.698 15.63h-1.392c-1.418 0-2.658 1.069-3.48 1.777l-.144.124c-1.47-3.33-3.263-7.37-3.576-7.993-1.185-2.354-3.906-5.103-7.671-5.103H22.79c-3.764 0-6.483 2.75-7.668 5.103-.317.627-2.108 4.665-3.576 7.993-.052-.042-.1-.085-.146-.124-.82-.708-2.062-1.777-3.479-1.777H6.531a2.567 2.567 0 0 0-2.565 2.565v2.7c0 1.317.859 2.679 2.297 2.679h1.98v-2.397h-1.82a.785.785 0 0 1-.06-.283v-2.7c0-.092.075-.167.168-.167h1.391c.527 0 1.395.75 1.914 1.196.62.533 1.067.918 1.689.918.556 0 1.577-.198 2.162-1.523 2.044-4.632 3.348-7.549 3.576-8.001.879-1.747 2.855-3.785 5.528-3.785h23.643c2.677 0 4.652 2.038 5.53 3.785.228.45 1.531 3.366 3.578 8 .584 1.326 1.605 1.524 2.161 1.524.623 0 1.07-.385 1.689-.918.518-.447 1.387-1.196 1.914-1.196h1.392c.091 0 .166.075.166.168v2.7c0 .099-.028.208-.06.282h-1.819v2.397h1.98c1.437 0 2.296-1.362 2.296-2.68v-2.7a2.567 2.567 0 0 0-2.563-2.564"/>
        <path d="M50.352 39.237a1.798 1.798 0 0 0-1.872 1.698c0 1.84 2.92 4.841 4.95 6.485 1.991-1.6 4.938-4.617 4.938-6.485 0-.471-.311-1.698-1.731-1.698-1.218 0-1.949.775-2.342 1.192l-.886.944-.872-.958c-.518-.57-1.158-1.178-2.185-1.178zm3.064 11.164-.697-.504c-.066-.048-6.636-4.864-6.636-8.962 0-1.97 1.633-4.095 4.27-4.095 1.372 0 2.395.568 3.085 1.122.711-.553 1.77-1.122 3.199-1.122 2.583 0 4.127 2.082 4.127 4.095 0 4.136-6.58 8.922-6.646 8.968l-.702.498z"/>
    </g>
</svg>
