<svg width="48" height="48" xmlns="http://www.w3.org/2000/svg">
    <path d="M46.298 10.232a18.807 18.807 0 0 1-5.197 1.425 8.97 8.97 0 0 0 3.968-4.986 18.027 18.027 0 0 1-5.72 2.183A9.04 9.04 0 0 0 32.76 6c-4.994 0-9.014 4.053-9.014 9.023 0 .715.06 1.402.209 2.057-7.5-.366-14.135-3.96-18.593-9.435a9.082 9.082 0 0 0-1.235 4.559 9.033 9.033 0 0 0 4.007 7.497c-1.45-.028-2.871-.449-4.076-1.111v.099c0 4.383 3.127 8.024 7.227 8.863-.734.2-1.534.297-2.365.297-.577 0-1.16-.033-1.707-.154 1.168 3.572 4.485 6.198 8.428 6.283a18.125 18.125 0 0 1-11.184 3.848c-.74 0-1.45-.033-2.159-.124 3.996 2.577 8.732 4.048 13.838 4.048 16.6 0 25.674-13.75 25.674-25.669 0-.398-.013-.783-.033-1.165 1.79-1.271 3.295-2.858 4.521-4.684z" fill="#3366A2" fill-rule="nonzero"/>
</svg>
