<svg width="48" height="48" xmlns="http://www.w3.org/2000/svg">
    <g fill="#3366A2" fill-rule="nonzero">
        <path d="M45.888 14.936c-.103-2.338-.481-3.945-1.023-5.338a10.737 10.737 0 0 0-2.545-3.902 10.83 10.83 0 0 0-3.894-2.536c-1.401-.541-3-.92-5.339-1.022C30.731 2.026 29.984 2 24.01 2s-6.723.026-9.07.129c-2.339.103-3.946.481-5.339 1.023a10.738 10.738 0 0 0-3.903 2.544A10.833 10.833 0 0 0 3.16 9.59c-.542 1.401-.92 3-1.023 5.337C2.026 17.283 2 18.031 2 24.004c0 5.974.026 6.722.129 9.069.103 2.337.482 3.945 1.023 5.337a10.85 10.85 0 0 0 2.545 3.903 10.83 10.83 0 0 0 3.894 2.535c1.402.542 3 .92 5.34 1.023 2.346.103 3.094.129 9.07.129 5.974 0 6.722-.026 9.07-.129 2.337-.103 3.945-.481 5.338-1.023a11.255 11.255 0 0 0 6.44-6.438c.54-1.4.919-3 1.022-5.337.103-2.347.129-3.095.129-9.069 0-5.973-.009-6.721-.112-9.068zm-3.963 17.965c-.095 2.149-.456 3.309-.757 4.083a7.3 7.3 0 0 1-4.178 4.177c-.774.3-1.943.662-4.083.756-2.322.104-3.018.13-8.89.13-5.872 0-6.576-.026-8.89-.13-2.149-.094-3.31-.455-4.083-.756a6.772 6.772 0 0 1-2.527-1.642 6.84 6.84 0 0 1-1.643-2.527c-.3-.773-.661-1.942-.756-4.083-.103-2.32-.129-3.017-.129-8.888 0-5.87.026-6.575.13-8.887.094-2.149.455-3.31.755-4.083a6.688 6.688 0 0 1 1.651-2.527 6.832 6.832 0 0 1 2.528-1.642c.774-.3 1.943-.661 4.083-.756 2.322-.103 3.018-.13 8.89-.13 5.88 0 6.576.027 8.89.13 2.149.095 3.31.455 4.083.756.954.352 1.822.911 2.527 1.642a6.84 6.84 0 0 1 1.642 2.527c.301.774.662 1.942.757 4.083.103 2.32.13 3.017.13 8.887 0 5.871-.027 6.559-.13 8.88z"/>
        <path d="M24.009 12.701c-6.242 0-11.306 5.063-11.306 11.303 0 6.24 5.064 11.303 11.306 11.303 6.241 0 11.305-5.062 11.305-11.303 0-6.24-5.064-11.303-11.305-11.303zm0 18.635a7.334 7.334 0 0 1-7.334-7.332 7.334 7.334 0 0 1 14.667 0 7.334 7.334 0 0 1-7.333 7.332zM38.4 12.254a2.64 2.64 0 1 1-5.278 0 2.64 2.64 0 0 1 5.278 0z"/>
    </g>
</svg>
